<?xml version="1.0" encoding="utf-8"?>
<!-- Generator: Adobe Illustrator 19.1.0, SVG Export Plug-In . SVG Version: 6.00 Build 0)  -->
<!DOCTYPE svg PUBLIC "-//W3C//DTD SVG 1.1//EN" "http://www.w3.org/Graphics/SVG/1.1/DTD/svg11.dtd">
<svg version="1.1" id="Layer_1" xmlns="http://www.w3.org/2000/svg" xmlns:xlink="http://www.w3.org/1999/xlink" x="0px" y="0px"
	 viewBox="342 52.9 1280 736" style="enable-background:new 342 52.9 1280 736;" xml:space="preserve">
<style type="text/css">
	.st0{opacity:0.5;fill:#FFFFFF;enable-background:new    ;}
	.st1{fill:#FFFFFF;}
	.st2{opacity:0.58;enable-background:new    ;}
	.st3{fill:none;stroke:#FFFFFF;stroke-width:3.2538;stroke-linecap:square;stroke-linejoin:bevel;}
</style>
<polygon class="st0" points="1404.6,337 1404.5,335.6 1404.8,334.6 1405.5,334.4 1406.5,334.4 1414.1,333.3 1410,318 1409.2,318.2 
	1407.3,318.1 1403.9,317.9 1402.4,317.9 1401.9,318.8 1400.8,319.4 1400.3,318.8 1399.1,318 1397.9,317.1 1397.3,316.4 
	1395.2,318.1 1393.9,318 1393.4,316.9 1392.5,316.9 1392.4,315.9 1390.7,315.9 1390.2,311.9 1389,311.3 1386.9,316.2 1385.3,315.2 
	1384.5,316.5 1383.3,316.6 1381.9,317.7 1380.4,316.9 1378.3,316.8 1377,316.5 1375.6,315.6 1373.8,315.7 1372.5,315.1 
	1371.5,313.8 1369.1,313.2 1366.8,317.7 1366.3,318.2 1365.3,317.9 1363.3,317.5 1362.1,317.7 1364,325.3 1364,327.3 1365.1,328.8 
	1365.2,330.3 1365.6,330.8 1366.1,331.9 1365.5,334.1 1362.4,335.3 1361.7,337 1362.6,338.8 1364,341.3 1366.5,342.4 1368.5,343 
	1370.8,343.7 1372,345.1 1376.2,345.6 1378.1,346 1380,345 1382.7,344.5 1384.7,342.9 1388.3,342.9 1391.8,342.9 1393.7,343.7 
	1396.9,345.1 1403.6,342.5 1405.8,342.4 1405.9,340.5 "/>
<polygon class="st1" points="658.3,531.6 669.5,535.8 681.7,500.9 670.6,496.9 "/>
<g>
	<polygon class="st1" points="1362.6,338.8 1364,341.3 1366.5,342.4 1368.5,343 1370.8,343.7 1372,345.1 1376.2,345.6 1378.1,346 
		1380,345 1382.7,345 1384.7,343.9 1388.3,343.9 1391.8,343.9 1393.7,344.2 1396.9,345.4 1403.6,342.6 1405.8,342.5 1405.9,340.5 
		1405.1,338.6 1404.3,338.4 1396.2,336.1 1389.9,334.5 1382.5,334.2 1372.4,334.6 1362,336.3 1361.7,337 	"/>
</g>
<path class="st2" d="M342,41.2v750h1279v-739H342V41.2z M1386.1,383.4c-30,0-54.4-24.3-54.4-54.4c0-30,24.3-54.4,54.4-54.4
	c30,0,54.4,24.3,54.4,54.4S1416.1,383.4,1386.1,383.4z M672.6,562.3c-30,0-54.4-24.3-54.4-54.4c0-30,24.3-54.4,54.4-54.4
	c30,0,54.4,24.3,54.4,54.4C727,538,702.7,562.3,672.6,562.3z"/>
<path class="st3" d="M665.6,513.8l-4.7-2.7l26.7-66.7l12-11.3l63.3-47.3c0,0,16.7-18.7,40.7-9.3l138,49.3c0,0,24,6.7,20.7-18
	c0,0,3.3-7.3,20-19.3l32-65.3c0,0,4.7-10.7,12.7-10s20,0.7,20,0.7l18.7,8.7l26.7-12.7l12.8,13.3l10,11l19.2,5.8c0,0,8.2,1.8,8.8,5.5
	c0.6,3.7,11.5,48,11.5,48l17,34.5l10-2.8l8.2-7.5l38.5-61.8c0,0,5-4.8,7-5.2s21.8-6.5,21.8-6.5s6.2,0,8,1c1.8,1,12,5.8,12,5.8
	l21.5,0.5l13.2-0.5l12.2-2.5l20.8-7l15-3.3h4.2"/>
</svg>
