<?xml version="1.0" standalone="no"?>
<!DOCTYPE svg PUBLIC "-//W3C//DTD SVG 1.1//EN" "http://www.w3.org/Graphics/SVG/1.1/DTD/svg11.dtd" >
<svg xmlns="http://www.w3.org/2000/svg">
<metadata></metadata>
<defs>
<font id="romain_bp_textregular_italic" horiz-adv-x="1853" >
<font-face units-per-em="2048" ascent="1536" descent="-512" />
<missing-glyph horiz-adv-x="409" />
<glyph unicode="&#xfb01;" horiz-adv-x="1196" d="M-453 -483q0 36 25 60t61 24q42 0 73 -26.5t47 -57.5t43 -57.5t61 -26.5q26 0 52 11.5t57.5 43t58.5 80.5t52 132.5t40 190.5l141 1006h-217l16 76h211l8 57q20 142 64 252.5t97.5 177t119 109t123.5 58t117 15.5q123 0 216 -60.5t93 -154.5q0 -60 -31.5 -96.5 t-85.5 -36.5q-55 0 -85 33t-30 70q0 27 9.5 63t9.5 43q0 36 -34.5 60t-84.5 24q-29 0 -59 -11.5t-65.5 -43t-65 -80.5t-56 -131.5t-41.5 -187.5l-22 -160h555l-135 -742q-15 -72 -12.5 -108.5t28.5 -36.5q53 0 160 133l41 -33q-73 -106 -137.5 -160.5t-141.5 -54.5 q-88 0 -126 63t-15 181l125 682h-352l-127 -903q-20 -144 -62.5 -256t-93.5 -178.5t-114 -110t-119.5 -59t-114.5 -15.5q-66 0 -127 14.5t-105.5 48t-44.5 79.5z" />
<glyph unicode="&#xfb02;" horiz-adv-x="1142" d="M-453 -483q0 36 25 60t61 24q42 0 73 -26.5t47 -57.5t43 -57.5t61 -26.5q26 0 52 11.5t57.5 43t58.5 80.5t52 132.5t40 190.5l141 1006h-217l16 76h213l9 59q20 141 64 251.5t97 176.5t118.5 108.5t123.5 58t117 15.5q64 0 133 -16l168 12l-211 -1407 q-12 -72 -8.5 -108.5t28.5 -36.5q52 0 156 133l43 -33q-72 -107 -134.5 -161t-139.5 -54q-87 0 -125 62.5t-21 181.5l103 682h-334l-123 -868q-22 -154 -65.5 -273t-95 -189t-115 -115t-120 -61t-114.5 -16q-66 0 -127 14.5t-105.5 48t-44.5 79.5zM467 973h336l78 506 q-2 3 -13.5 21t-14.5 22.5t-13 18t-16.5 18t-16 12t-20 10t-21.5 2.5q-26 0 -54 -11t-62.5 -42t-63.5 -79.5t-55.5 -130.5t-41.5 -187z" />
<glyph unicode="&#xfb03;" horiz-adv-x="1765" d="M-453 -483q0 36 25 60t61 24q42 0 73 -26.5t47 -57.5t43 -57.5t61 -26.5q26 0 52 11.5t57.5 43t58.5 80.5t52 132.5t40 190.5l141 1006h-217l16 76h211q22 149 67 264t98.5 182t119.5 110t123.5 58t116.5 15q85 0 161 -26t103 -75q71 74 155.5 107.5t165.5 33.5 q123 0 216.5 -60.5t93.5 -154.5q0 -60 -31.5 -96.5t-85.5 -36.5q-55 0 -85 33t-30 70q0 27 9.5 63t9.5 43q0 36 -34.5 60t-84.5 24q-29 0 -59 -11.5t-65.5 -43t-65 -80.5t-56 -131.5t-41.5 -187.5l-22 -160h555l-136 -742q-15 -72 -12 -108.5t29 -36.5q52 0 159 133l41 -33 q-73 -106 -137 -160.5t-141 -54.5q-88 0 -126 63t-15 181l125 682h-353l-112 -799q-101 -723 -445 -723q-104 0 -187 43t-83 103q0 32 23 56t63 24q42 0 72.5 -27t44.5 -59t36 -59t50 -27q29 0 53.5 22.5t52 80t54 171.5t51.5 283l129 911h-383l-121 -868 q-22 -154 -65.5 -273t-95 -189t-115 -115t-120 -61t-114.5 -16q-66 0 -127 14.5t-105.5 48t-44.5 79.5zM467 973h383l8 57q28 201 107 346q-29 4 -52 23t-38 42.5t-30.5 46.5t-36.5 38.5t-48 15.5q-26 0 -54 -11t-62.5 -42t-63.5 -79.5t-55.5 -130.5t-41.5 -187z" />
<glyph unicode="&#xfb04;" horiz-adv-x="1722" d="M-453 -483q0 36 25 60t61 24q42 0 73 -26.5t47 -57.5t43 -57.5t61 -26.5q26 0 52 11.5t57.5 43t58.5 80.5t52 132.5t40 190.5l141 1006h-217l16 76h211q21 148 66 263t98.5 182t119.5 110.5t124 58.5t117 15q85 0 161 -26t103 -75q71 74 155.5 107.5t165.5 33.5 q64 0 133 -16l168 12l-211 -1407q-12 -72 -8 -108.5t29 -36.5q52 0 156 133l43 -33q-71 -106 -134.5 -160.5t-140.5 -54.5q-87 0 -124.5 62.5t-20.5 181.5l102 682h-334l-112 -799q-103 -723 -445 -723q-104 0 -187 43t-83 103q0 32 23 56t63 24q42 0 72.5 -27t44.5 -59 t36 -59t50 -27q29 0 54 22.5t52.5 79.5t54 172t50.5 283l129 911h-383l-121 -868q-22 -154 -65.5 -273t-95 -189t-115 -115t-120 -61t-114.5 -16q-66 0 -127 14.5t-105.5 48t-44.5 79.5zM467 973h383l8 59q28 206 107 344q-29 4 -52 23t-38 42.5t-30.5 46.5t-36.5 38.5 t-48 15.5q-26 0 -54 -11t-62.5 -42t-63.5 -79.5t-55.5 -130.5t-41.5 -187zM1047 973h335l78 506q-3 5 -13.5 21t-14.5 22t-13 18.5t-15.5 18t-16 12.5t-20 9.5t-21.5 2.5q-26 0 -54 -11t-62.5 -42t-63.5 -79.5t-55.5 -130.5t-41.5 -187z" />
<glyph horiz-adv-x="1024" />
<glyph horiz-adv-x="1024" />
<glyph horiz-adv-x="682" />
<glyph unicode=" "  horiz-adv-x="409" />
<glyph unicode="&#x09;" horiz-adv-x="409" />
<glyph unicode="&#xa0;" horiz-adv-x="409" />
<glyph unicode="!" horiz-adv-x="579" d="M41 131q0 63 45.5 108.5t108.5 45.5q67 0 113 -45t46 -109q0 -68 -46 -114t-113 -46q-63 0 -108.5 46.5t-45.5 113.5zM190 369q40 240 53.5 486.5t20 443t29.5 323.5q119 30 233 0q-22 -175 -57.5 -337.5t-68 -273.5t-73.5 -284.5t-71 -357.5h-66z" />
<glyph unicode="&#x22;" horiz-adv-x="688" d="M82 1147l20 450h205l-117 -450h-108zM381 1147l20 450h205l-117 -450h-108z" />
<glyph unicode="#" horiz-adv-x="1732" d="M61 436l41 96h326l193 478h-371l41 96h368l201 500h105l-201 -500h448l201 500h105l-201 -500h354l-41 -96h-352l-193 -478h398l-41 -96h-395l-175 -436h-104l174 436h-448l-175 -436h-104l174 436h-328zM532 532h449l193 478h-449z" />
<glyph unicode="$" horiz-adv-x="1357" d="M61 109l43 321h43q21 -101 55 -172t80.5 -111.5t97.5 -60t116 -25.5l106 668l-137 82q-229 135 -229 369q0 197 135.5 308t367.5 120l35 215h96l-34 -215q111 -6 210.5 -37.5t165.5 -75.5l-43 -305h-49q-27 156 -105 236.5t-194 93.5l-90 -572l31 -18q17 -10 58.5 -35 t65.5 -40t63.5 -43t64 -51t54 -58t46 -69t28 -78.5t11.5 -92.5q0 -154 -77.5 -266t-205.5 -167.5t-292 -58.5l-29 -182h-96l28 184q-127 8 -237 43t-183 93zM451 1268q0 -72 38.5 -131.5t133.5 -118.5l22 -14l82 518q-148 -10 -212 -79t-64 -175zM592 59q169 6 254.5 80.5 t85.5 210.5q0 186 -244 328z" />
<glyph unicode="%" horiz-adv-x="1839" d="M139 1108q0 186 111.5 306t284.5 120q160 0 242.5 -88t82.5 -223q0 -113 -49.5 -212t-141 -161t-202.5 -62q-158 0 -243 91t-85 229zM223 0l1327 1618h115l-1331 -1618h-111zM240 1124q0 -105 57 -175t174 -70q130 0 207.5 96t77.5 227q0 107 -59.5 175.5t-170.5 68.5 q-121 0 -203.5 -92.5t-82.5 -229.5zM975 291q0 186 111 306t284 120q160 0 243 -88t83 -223q0 -113 -49.5 -212t-141 -161t-202.5 -62q-158 0 -243 91t-85 229zM1075 307q0 -105 57.5 -175.5t174.5 -70.5q130 0 207 96.5t77 227.5q0 107 -59 175.5t-170 68.5 q-121 0 -204 -92.5t-83 -229.5z" />
<glyph unicode="&#x26;" horiz-adv-x="1640" d="M61 375q0 193 144 335t416 210l-23 32q-109 153 -109 297q0 155 118 259t313 104q141 0 223 -61t82 -165q0 -125 -120 -239t-276 -170l267 -373q46 126 98.5 213.5t105 130.5t99 60.5t96.5 17.5q145 0 145 -108q0 -42 -30 -70.5t-68 -28.5q-27 0 -67 13.5t-64 13.5 q-78 0 -147.5 -71t-135.5 -216l144 -199q62 -87 81 -169.5t-0.5 -148.5t-67 -122.5t-115.5 -95.5t-150 -62l-14 35q301 150 92 447l-68 96q-202 -369 -536 -369q-113 0 -199 34t-135.5 92.5t-74 128.5t-24.5 149zM281 395q0 -129 75.5 -217t198.5 -88q125 0 240.5 74 t199.5 225l-352 498q-172 -72 -267 -197.5t-95 -294.5zM690 1298q0 -131 98 -262l21 -28q73 38 135 90t107 127t45 151q0 74 -49.5 127t-126.5 53q-75 0 -129 -39.5t-77.5 -96t-23.5 -122.5z" />
<glyph unicode="'" horiz-adv-x="389" d="M82 1147l20 450h205l-117 -450h-108z" />
<glyph unicode="(" horiz-adv-x="770" d="M131 276q0 382 162 737.5t446 590.5h113q-6 -3 -14 -11t-11 -10q-286 -252 -436.5 -594.5t-150.5 -705.5q0 -259 72.5 -494.5t215.5 -388.5h-114q-136 149 -209.5 382.5t-73.5 493.5z" />
<glyph unicode=")" horiz-adv-x="671" d="M-190 -600q296 261 456 608.5t160 714.5q0 258 -73.5 492.5t-217.5 388.5h115q138 -149 211.5 -382t73.5 -493q0 -379 -163.5 -736t-445.5 -593h-116z" />
<glyph unicode="*" horiz-adv-x="753" d="M41 1141l244 127l-205 125l57 86l197 -131l41 258h96l-39 -252l238 133l41 -80l-244 -129l205 -123l-56 -86l-198 129l-41 -256h-96l38 250l-237 -131z" />
<glyph unicode="+" horiz-adv-x="1134" d="M74 471l14 96h432l70 432h104l-69 -432h434l-15 -96h-434l-69 -436h-105l70 436h-432z" />
<glyph unicode="," horiz-adv-x="446" d="M10 -221q180 106 180 188q0 18 -19 37t-42 35t-42 47.5t-19 71.5q0 53 42 90t99 37q72 0 110.5 -48t38.5 -120q0 -65 -29.5 -127.5t-78 -111t-104 -85t-113.5 -59.5z" />
<glyph unicode="-" horiz-adv-x="806" d="M94 471l15 96h602l-15 -96h-602z" />
<glyph unicode="." horiz-adv-x="456" d="M41 131q0 63 45.5 108.5t108.5 45.5q67 0 113 -45t46 -109q0 -68 -46 -114t-113 -46q-63 0 -108.5 46.5t-45.5 113.5z" />
<glyph unicode="/" horiz-adv-x="790" d="M-141 -68l962 1737h107l-963 -1737h-106z" />
<glyph unicode="0" horiz-adv-x="1191" d="M119 459q0 156 65 285t188.5 206.5t282.5 77.5q120 0 214 -38.5t152 -105.5t88 -153t30 -186q0 -154 -69 -284.5t-194.5 -209t-279.5 -78.5q-114 0 -205.5 38t-150 104.5t-90 154.5t-31.5 189zM283 457q0 -71 17.5 -131t54.5 -110t102.5 -78.5t152.5 -28.5 q166 0 265.5 123t99.5 305q0 156 -86.5 258t-241.5 102q-109 0 -193 -60.5t-127.5 -160t-43.5 -219.5z" />
<glyph unicode="1" horiz-adv-x="782" d="M41 0l6 47l90 14q51 8 69 25t25 49q22 111 45 256l35 219l31 226q5 39 -5.5 53.5t-55.5 21.5l-93 15l9 47h544l-8 -47l-88 -15q-52 -8 -70.5 -25t-23.5 -48q-14 -58 -41 -228l-35 -219l-37 -254q-3 -40 7 -54.5t57 -21.5l90 -14l-6 -47h-545z" />
<glyph unicode="2" horiz-adv-x="1048" d="M-35 31q30 22 119.5 84t162 114t166.5 129.5t158 145t109 146.5t45 147q0 67 -45.5 101t-122.5 34q-70 0 -147.5 -34.5t-145.5 -94.5l-28 33q183 194 407 194q127 0 208 -61.5t81 -159.5q0 -51 -21.5 -103t-54.5 -96t-86.5 -92t-102 -84t-118 -80t-117.5 -71.5 t-117.5 -66.5t-101.5 -58h461q81 0 124 31.5t79 134.5h38l-41 -324h-907z" />
<glyph unicode="3" horiz-adv-x="825" d="M-205 -573q195 50 346.5 133.5t242.5 201t91 248.5q0 109 -76.5 177.5t-236.5 86.5v43q74 36 141 84t124.5 107.5t91.5 132.5t34 147q0 70 -39.5 109t-120.5 39q-170 0 -274 -150l-41 23q74 116 179 168.5t216 52.5q125 0 200 -61t75 -166q0 -64 -34 -128.5t-84 -114 t-112 -94t-111.5 -71.5t-89.5 -43q172 -22 265.5 -99.5t93.5 -205.5q0 -110 -57.5 -210.5t-149 -174t-209.5 -133t-234.5 -95t-228.5 -52.5z" />
<glyph unicode="4" horiz-adv-x="1214" d="M-37 31l881 999h82l-144 -897h152q98 0 141.5 32t79.5 138h41l-47 -303h-387l-33 -207l-37 -256q-6 -38 6 -53.5t58 -22.5l112 -14l-8 -47h-588l9 47l108 14q51 7 71 25t25 49q20 100 45 258l33 207h-586zM152 133h432l108 606z" />
<glyph unicode="5" horiz-adv-x="923" d="M-123 -575q159 67 279.5 149.5t193 169t112 168.5t52.5 166q8 47 8 100q0 122 -61.5 208.5t-198.5 137.5q-51 19 -62 53.5t5 84.5l80 311h413q73 0 106 16t62 55h21l-74 -243h-471l-55 -193q231 -34 341.5 -140t110.5 -257q0 -105 -52.5 -213.5t-139 -200.5t-198 -175 t-228 -144.5t-230.5 -102.5z" />
<glyph unicode="6" horiz-adv-x="1265" d="M102 473q0 179 71 352.5t187.5 311.5t267.5 255t309 196.5t314 123.5l15 -49q-648 -256 -881 -868q25 39 58 75.5t81.5 75t115.5 61.5t142 23q76 0 145.5 -27.5t125.5 -80.5t89.5 -139.5t33.5 -194.5q0 -175 -85 -316.5t-232.5 -221t-326.5 -79.5q-205 0 -317.5 140 t-112.5 362zM293 399q0 -152 69.5 -253t200.5 -101q105 0 197.5 74t148.5 202t56 275q0 150 -66 250t-178 100q-124 0 -224.5 -83t-152 -207t-51.5 -257z" />
<glyph unicode="7" horiz-adv-x="1024" d="M-143 -553q494 595 950 1186l131 170h-553q-85 0 -131.5 -32.5t-81.5 -135.5h-45l82 338h921l17 -19l-236 -315q-267 -360 -503 -676t-338 -452l-103 -136z" />
<glyph unicode="8" horiz-adv-x="1230" d="M104 352q0 154 109.5 274t298.5 197l-10 11q-91 76 -143 179t-52 204q0 172 130.5 283.5t338.5 111.5q180 0 285.5 -82t105.5 -197q0 -132 -97.5 -229t-299.5 -195l74 -59q118 -97 179.5 -191t61.5 -196q0 -93 -34.5 -180t-99 -157t-168 -112.5t-230.5 -42.5 q-191 0 -320 106t-129 275zM276 360q0 -140 77.5 -226.5t219.5 -86.5q76 0 137 27.5t97.5 73t56 99.5t19.5 111q0 71 -36.5 146t-109.5 135l-190 156q-135 -75 -203 -191t-68 -244zM498 1300q0 -166 219 -346l20 -16q132 85 196 169.5t64 203.5q0 94 -62.5 159.5 t-170.5 65.5q-120 0 -193 -59.5t-73 -176.5z" />
<glyph unicode="9" horiz-adv-x="1273" d="M2 -662q648 256 881 869q-25 -39 -58 -75.5t-82 -75t-116 -62t-142 -23.5q-76 0 -145.5 28t-125.5 81t-89 139.5t-33 194.5q0 175 85 316.5t232 220.5t326 79q205 0 317.5 -140t112.5 -362q0 -179 -71 -352.5t-187.5 -311.5t-267.5 -255t-309 -196.5t-314 -123.5z M303 406q0 -150 66 -250.5t178 -100.5q124 0 224.5 83t152 207t51.5 257q0 152 -69.5 253t-200.5 101q-105 0 -197.5 -74t-148.5 -201.5t-56 -274.5z" />
<glyph unicode=":" horiz-adv-x="546" d="M41 131q0 63 45.5 108.5t108.5 45.5q67 0 113 -45t46 -109q0 -68 -46 -114t-113 -46q-63 0 -108.5 46.5t-45.5 113.5zM147 877q0 63 45.5 108t108.5 45q67 0 113.5 -45t46.5 -108q0 -67 -46.5 -113.5t-113.5 -46.5q-63 0 -108.5 46.5t-45.5 113.5z" />
<glyph unicode=";" horiz-adv-x="499" d="M10 -221q180 106 180 188q0 18 -19 37t-42 35t-42 47.5t-19 71.5q0 53 43.5 90t97.5 37q72 0 110.5 -48t38.5 -120q0 -65 -29.5 -127.5t-78 -111t-104 -85t-113.5 -59.5zM170 877q0 63 45.5 108t108.5 45q67 0 113 -45t46 -108q0 -68 -46 -114t-113 -46 q-63 0 -108.5 46.5t-45.5 113.5z" />
<glyph unicode="&#x3c;" horiz-adv-x="1136" d="M96 471l17 96l1106 463l-17 -117l-977 -399l846 -432l-18 -109z" />
<glyph unicode="=" horiz-adv-x="1134" d="M63 287l17 96h930l-17 -96h-930zM123 655l14 97h930l-14 -97h-930z" />
<glyph unicode="&#x3e;" horiz-adv-x="1136" d="M-82 -27l19 119l978 432l-849 398l16 108l962 -463l-16 -96z" />
<glyph unicode="?" horiz-adv-x="788" d="M98 131q0 63 45.5 108.5t108.5 45.5q67 0 113.5 -45.5t46.5 -108.5q0 -67 -46 -113.5t-114 -46.5q-63 0 -108.5 46.5t-45.5 113.5zM164 555q0 80 27 153.5t70 132t95 115t103.5 112t94.5 112t70 126t27 144.5q0 56 -25.5 92.5t-78.5 36.5q-34 0 -64.5 -20.5t-53.5 -49.5 t-46.5 -57.5t-55 -49t-67.5 -20.5q-35 0 -56.5 20t-21.5 54q0 54 61.5 95.5t141 60t154.5 18.5q130 0 216.5 -59t86.5 -170q0 -83 -32 -158.5t-83.5 -135.5t-113.5 -117.5t-124 -114.5t-113.5 -116t-83.5 -132.5t-32 -153.5q0 -63 14 -84l-51 -31q-11 14 -22.5 35.5 t-24 66.5t-12.5 95z" />
<glyph unicode="@" horiz-adv-x="1951" d="M84 635q0 208 83.5 395t223 319t329 209.5t394.5 77.5q121 0 232.5 -27.5t207.5 -84t166.5 -136t111 -191.5t40.5 -243q0 -191 -75.5 -351t-209.5 -253.5t-297 -93.5q-59 0 -105 10.5t-74 30t-47.5 45.5t-26 57.5t-9 66.5t3.5 71q-69 -93 -164.5 -143t-183.5 -50 q-55 0 -98.5 25.5t-68.5 66.5t-37.5 87.5t-12.5 94.5q0 105 27.5 202t76.5 173.5t113.5 134t142.5 88.5t160 31q99 0 176 -49l19 64h184l-100 -541q-8 -43 -12.5 -70t-10 -62t-7 -56.5t-2.5 -48t2 -42t8 -33t14.5 -27.5t22.5 -18.5t31 -12t40 -3.5q107 0 202.5 78t154 215 t58.5 297q0 274 -181.5 443t-487.5 169q-173 0 -337.5 -69.5t-289 -187.5t-200.5 -285.5t-76 -350.5q0 -293 174.5 -468t488.5 -175q108 0 236 27l4 -84q-136 -31 -277 -31q-221 0 -389 90.5t-258 251t-90 367.5zM682 641q0 -89 33.5 -134.5t93.5 -45.5q20 0 45.5 6.5 t60 22.5t70 50t62.5 81l77 409q-1 44 -14 76.5t-33.5 49t-41.5 24.5t-42 8q-69 0 -143 -90.5t-121 -219t-47 -237.5z" />
<glyph unicode="A" horiz-adv-x="1538" d="M-100 0l6 47l53 6q63 8 110 50.5t111 162.5l719 1358h51l363 -1472q21 -91 112 -99l72 -6l-6 -47h-629l6 47l97 8q70 9 94 37q16 18 16 48q0 15 -4 32l-90 395h-539l-149 -291q-29 -55 -40.5 -94.5t-9.5 -62.5t18 -37.5t34.5 -20t48.5 -8.5l62 -6l-7 -47h-499zM516 709 h434l-131 585z" />
<glyph unicode="B" horiz-adv-x="1441" d="M4 0l4 47l103 14q54 8 81 29.5t37 73.5q2 13 24.5 153t39.5 240l80 487l57 375q1 12 1 22q0 35 -16 51q-21 22 -71 30l-100 14l6 47q471 0 600 4q19 1 38 1q123 0 221 -28q113 -32 182 -109t69 -189q0 -160 -122.5 -276.5t-287.5 -141.5q161 -8 271 -102t110 -242 q0 -118 -52 -214t-140.5 -158t-204 -95t-244.5 -33h-686zM452 150v-8q0 -16 4 -28q6 -16 16 -23.5t34 -13t51 -6.5t76 -1q226 0 346.5 109t120.5 323q0 132 -93 211.5t-270 79.5h-188l-37 -236l-53 -354q-5 -33 -7 -53zM561 864h137q203 0 321 103t118 293q0 249 -326 249 q-55 0 -149 -8z" />
<glyph unicode="C" horiz-adv-x="1665" d="M109 723q0 161 46.5 303.5t127.5 247.5t188.5 182t232 115.5t254.5 38.5q167 0 339 -48t280 -128l-35 -306h-43q-25 102 -78.5 180t-125 124t-154 69t-174.5 23q-87 0 -174.5 -35t-168 -108t-143 -173t-100 -241.5t-37.5 -302.5q0 -285 144 -446t389 -161q372 0 575 412 h47l-76 -334q-232 -164 -538 -164q-182 0 -330.5 58.5t-245 160.5t-148.5 238.5t-52 294.5z" />
<glyph unicode="D" horiz-adv-x="1781" d="M4 0l6 47l101 14q52 8 80 29.5t38 73.5q2 14 23.5 154t38.5 239l80 487l57 375q1 12 1 22q0 35 -16 51q-21 22 -71 30l-98 14l6 47h59q81 -1 198 1q165 2 234 3q107 0 203.5 -9t196 -31t182 -56.5t155.5 -89.5t123.5 -125t79.5 -167.5t29 -213.5q0 -168 -49 -311.5 t-138.5 -250t-212 -182t-272 -113.5t-317.5 -38h-717zM456 139q2 -16 7 -24.5t19 -16.5t31.5 -11.5t48.5 -6.5t65 -3.5t86 -0.5q75 0 149.5 13.5t150.5 44t143.5 75.5t127 113.5t102 153t67 198t24.5 244.5q0 128 -37.5 229.5t-99.5 167.5t-148.5 109.5t-179.5 62t-197 18.5 q-73 0 -158 -10l-147 -938q-45 -328 -47 -346q-5 -25 -7 -41q-1 -9 -1 -17q0 -7 1 -14z" />
<glyph unicode="E" horiz-adv-x="1484" d="M4 0l6 47l103 14q53 8 81.5 29.5t36.5 73.5q39 260 62 393l82 487q17 101 31 194.5t19 137.5l5 43q1 12 1 22q1 35 -15 52q-20 21 -72 29l-100 14l6 47h1173l-55 -354h-49q1 14 1 27q0 118 -58 170q-64 58 -197 65q-96 4 -196.5 4.5t-206.5 -4.5q-38 -256 -99 -617h271 q133 0 189 37t89 156h49l-76 -475h-49q1 17 1 32q-1 26 -3 46q-4 32 -15.5 54t-26 34.5t-43 19t-56.5 8.5t-74 2h-270l-41 -274l-43 -303q-5 -31 -6.5 -51t3 -35t10.5 -22t23.5 -11.5t34 -5t48.5 -0.5q211 0 352 6q144 7 216.5 71.5t110.5 203.5h50l-54 -367h-1249z" />
<glyph unicode="F" horiz-adv-x="1351" d="M4 0l6 47l103 14q53 8 81.5 29.5t36.5 73.5q23 166 62 393l82 487q17 101 31 194.5t19 137.5l5 43q1 12 1 22q1 35 -15 52q-20 21 -72 29l-100 14l6 47h1196l-55 -354h-50q1 14 1 27q0 120 -59 172q-65 58 -210 65q-86 4 -177 4q-113 0 -234 -6l-99 -617h232 q133 0 189 37t89 156h49l-75 -475h-50q1 17 1 32q0 26 -2 46q-4 32 -16 54t-26.5 34.5t-43 19t-56.5 8.5t-74 2h-231l-41 -274l-51 -350q-2 -12 -2 -22q0 -36 20 -52q25 -20 98 -29l132 -14l-7 -47h-694z" />
<glyph unicode="G" horiz-adv-x="1755" d="M109 723q0 187 67 352.5t180.5 282t269.5 184.5t330 68q168 0 340.5 -48t280.5 -128l-35 -306h-43q-25 102 -78.5 180t-126 124t-155 69t-174.5 23q-87 0 -174 -35t-167.5 -108t-143 -173t-99.5 -241.5t-37 -302.5q0 -124 28 -225.5t76.5 -171t116 -117t144 -69.5 t161.5 -22q148 0 275 50q61 25 78.5 48.5t29.5 96.5l39 268q2 10 2 20q0 35 -25 52q-31 22 -98 33l-88 12l9 47h622l-8 -47l-92 -14q-50 -8 -69.5 -28t-28.5 -75q-31 -191 -62 -377q-126 -82 -277.5 -128t-291.5 -46q-155 0 -284.5 42.5t-219 114.5t-152 169t-91.5 204.5 t-29 221.5z" />
<glyph unicode="H" horiz-adv-x="1929" d="M4 0l6 47l103 14q53 8 81.5 29.5t36.5 73.5q29 180 64 393l82 487q13 76 26.5 170t20.5 150l8 55q2 13 2 24q0 33 -16 49q-20 22 -72 30l-100 14l6 47h633l-6 -47l-105 -14q-54 -9 -83.5 -30.5t-35.5 -72.5q-28 -189 -59 -375l-29 -167h826l28 167l56 375q2 13 2 24 q1 33 -15 49q-20 22 -73 30l-101 14l6 47h633l-6 -47l-104 -14q-54 -9 -83.5 -30.5t-35.5 -72.5q-29 -189 -60 -375l-81 -487l-60 -393q-2 -13 -2 -24q-1 -34 15 -50q20 -22 73 -29l101 -14l-7 -47h-630l6 47l102 14q53 8 82 29.5t37 73.5q28 180 63 393l39 234h-825 l-39 -234q-17 -105 -32 -203t-21 -144l-6 -46q-2 -13 -2 -24q-1 -34 15 -50q20 -22 73 -29l100 -14l-6 -47h-631z" />
<glyph unicode="I" horiz-adv-x="884" d="M4 0l6 47l103 14q53 8 81.5 29.5t36.5 73.5q29 180 64 393l82 487q13 76 26.5 170t20.5 150l8 55q2 13 2 24q0 33 -16 49q-20 22 -72 30l-100 14l6 47h633l-6 -47l-105 -14q-54 -9 -83.5 -30.5t-35.5 -72.5q-28 -189 -59 -375l-82 -487q-17 -105 -32 -203t-21 -144 l-6 -46q-2 -13 -2 -24q-1 -34 15 -50q20 -22 73 -29l100 -14l-6 -47h-631z" />
<glyph unicode="J" horiz-adv-x="956" d="M-53 154q0 46 27.5 78t82.5 32q48 0 73.5 -26t31.5 -62.5t9 -73t15.5 -62.5t42.5 -26q72 0 125.5 146t110.5 495l63 389l58 375q2 13 2 25q0 33 -20 50q-27 21 -101 30l-96 12l6 47h661l-6 -47l-104 -14q-55 -8 -83 -29.5t-36 -73.5q-32 -189 -61 -375l-64 -389 q-12 -75 -21.5 -127t-23.5 -116.5t-28 -108t-35 -94t-44 -83t-54.5 -64.5t-68 -50.5t-83 -29.5t-101.5 -11q-110 0 -194 53.5t-84 129.5z" />
<glyph unicode="K" horiz-adv-x="1568" d="M4 0l6 47l103 14q53 8 81.5 29.5t36.5 73.5q29 180 64 393l82 487q13 76 26.5 170t20.5 150l8 55q2 13 2 24q0 33 -16 49q-20 22 -72 30l-100 14l6 47h633l-6 -47l-105 -14q-54 -9 -83.5 -30.5t-35.5 -72.5q-28 -189 -59 -375l-82 -487q-17 -105 -32 -203t-21 -144 l-6 -46q-2 -13 -2 -24q-1 -34 15 -50q20 -22 73 -29l100 -14l-6 -47h-631zM557 793l639 602q28 27 39 55t-2 49.5t-51 26.5l-74 10l6 47h516l-6 -47l-72 -12q-74 -13 -123 -43t-137 -113l-522 -491l438 -652q33 -49 68 -83.5t63 -52.5t62 -28.5t54.5 -12.5t51.5 -3l-6 -47 q-100 -23 -180 -23q-75 0 -132.5 15t-102.5 48.5t-78 72t-72 98.5z" />
<glyph unicode="L" horiz-adv-x="1368" d="M4 0l6 47l103 14q52 8 82 32.5t38 76.5q25 182 60 387l82 487q17 101 31 194.5t19 137.5l5 43q1 12 1 22q1 35 -15 52q-20 21 -72 29l-100 14l6 47h659l-6 -47l-115 -12q-65 -8 -97 -30.5t-38 -74.5q-30 -182 -57 -352l-88 -553l-43 -303q-5 -31 -6.5 -51t3 -35t10.5 -22 t23.5 -11.5t34 -5t48.5 -0.5q190 0 331 6q142 7 217 75.5t111 199.5h49l-53 -367h-1229z" />
<glyph unicode="M" horiz-adv-x="2107" d="M-51 0l4 47q57 5 98 16t69 28t47.5 44.5t32 59.5t23.5 79q39 156 66 285l174 850q4 19 4 35q0 76 -86 84l-117 8l6 47h490l268 -1216l629 1216h471l-6 -47l-121 -8q-106 -10 -119 -127l-90 -850l-39 -387q-1 -12 -1 -22q0 -36 16 -52q21 -22 71 -29l111 -14l-4 -47h-650 l4 47l105 14q56 8 84.5 29.5t34.5 73.5q35 313 43 383l96 839l-733 -1404h-35l-332 1407l-172 -834l-55 -279q-13 -58 -13 -100q0 -12 1 -24q5 -48 47.5 -73t138.5 -32l-4 -47h-557z" />
<glyph unicode="N" d="M0 0l6 47q57 6 98.5 16t69 27t44.5 32.5t28 44t15.5 49t10.5 60.5l177 1110l-17 25q-85 118 -162 125l6 47h334l822 -1227l145 949q4 27 5.5 39t3.5 35t-0.5 33.5t-7 29t-14 27.5t-24.5 22t-36 20t-50 14t-65 11l6 47h561l-6 -47q-48 -5 -85.5 -14.5t-63 -19.5t-44.5 -28 t-29.5 -32t-19 -41t-11.5 -44t-9 -52l-213 -1334h-58l-887 1293l-147 -988q-8 -35 -8 -68q1 -8 1 -16q2 -40 16 -69t57 -49t116 -27l-6 -47h-559z" />
<glyph unicode="O" d="M123 727q0 189 67 354.5t180.5 280.5t268 181.5t326.5 66.5q221 0 395.5 -95t272.5 -269t98 -398q0 -152 -43.5 -289.5t-122 -243.5t-184 -184t-234 -119t-266.5 -41q-222 0 -394.5 94t-268 266t-95.5 396zM358 651q0 -155 39 -271t110 -185.5t162.5 -103.5t202.5 -34 q129 0 242 57.5t198 164.5t134 271t49 365q0 157 -40 276t-112 190.5t-165 107t-205 35.5q-171 0 -312 -114t-222 -314.5t-81 -444.5z" />
<glyph unicode="P" horiz-adv-x="1374" d="M4 0l6 47l103 14q53 8 81.5 29.5t36.5 73.5q25 176 62 393l82 487l55 375q2 13 2 24q0 33 -16 49q-20 22 -72 30l-100 14l6 47q131 -1 211 -1h67q80 0 153.5 1.5t109.5 1.5q91 0 173 -11t162 -38.5t138 -70t93.5 -110.5t35.5 -155q0 -123 -49.5 -224t-134 -166.5 t-195 -101.5t-234.5 -36q-121 0 -239 41l-21 -135l-63 -414q-2 -14 -2 -26q1 -32 19 -48q26 -20 99 -29l132 -14l-7 -47h-694zM547 768q76 -20 158 -20q96 0 179 28.5t147 83t101 140t37 192.5q0 81 -33 143.5t-88.5 98t-121.5 53.5t-140 18q-75 0 -124 -10z" />
<glyph unicode="Q" horiz-adv-x="1839" d="M109 727q0 189 66.5 354.5t180 280.5t268 181.5t326.5 66.5q221 0 395.5 -95t272.5 -269t98 -398q0 -238 -102 -429.5t-277 -307.5l252 -398l-26 -30l-516 307q-93 -19 -181 -19q-222 0 -394.5 94t-267.5 266t-95 396zM344 651q0 -155 39 -271t110 -185.5t162.5 -103.5 t202.5 -34q129 0 242 57.5t198 164.5t134 271t49 365q0 157 -40.5 276t-112.5 190.5t-165 107t-205 35.5q-171 0 -311.5 -114t-221.5 -314.5t-81 -444.5z" />
<glyph unicode="R" horiz-adv-x="1546" d="M4 0l6 47l101 14q55 8 83.5 29.5t36.5 73.5q46 256 66 393l76 487l57 375q2 14 2 26q0 31 -16 47q-22 22 -72 30l-100 14l6 47q38 -1 91 -1q79 0 193 2q190 3 257 3q90 0 168.5 -9t155.5 -33.5t131.5 -62.5t88 -100t33.5 -143q0 -180 -141 -307t-381 -144 q155 -17 235.5 -95.5t106.5 -239.5q17 -103 32.5 -165t38 -115t54.5 -78.5t77 -37.5q39 -10 93 -10h18l4 -31q-103 -45 -217 -45q-65 0 -117.5 21.5t-89 58.5t-63 92t-42 117t-24.5 139q-9 79 -26.5 137.5t-45.5 97t-59.5 63.5t-78 37.5t-90.5 17t-107 4.5l-29 -199 l-59 -393q-2 -14 -2 -26q-1 -34 15 -48q20 -20 91 -29l123 -14l-6 -47h-674zM555 813h90q244 0 370 108.5t126 305.5q0 62 -21 112t-57 81t-83.5 53t-99.5 29q-53 6 -108 8q-8 0 -16 1q-47 0 -90 -8z" />
<glyph unicode="S" horiz-adv-x="1294" d="M41 109l43 321h43q19 -91 50.5 -158t68 -107.5t86 -64.5t98 -32.5t109.5 -8.5q186 0 279 74.5t93 216.5q0 191 -247 338l-220 131q-229 136 -229 361q0 207 147.5 318.5t397.5 111.5q127 0 243 -32.5t189 -82.5l-43 -305h-49q-12 90 -44 156t-79 104t-103 56t-122 18 q-172 0 -247 -68t-75 -180q0 -158 172 -266l139 -88q18 -11 58 -35t65.5 -39.5t64.5 -42.5t64 -50t54 -57.5t46 -68.5t28.5 -78t11.5 -92q0 -118 -46 -212t-127.5 -154t-188.5 -91t-232 -31q-150 0 -281.5 35.5t-216.5 102.5z" />
<glyph unicode="T" horiz-adv-x="1421" d="M92 1208l80 375h1393l-66 -375h-47q2 26 2 49q0 46 -7 78q-10 49 -45 88t-105 55.5t-183 16.5h-166l-151 -938l-58 -393q-2 -12 -2 -22q1 -38 21 -56q26 -24 94 -29l115 -10l-6 -47h-715l6 47l108 10q78 8 112.5 30.5t43.5 76.5q46 284 62 393l147 938h-182 q-182 0 -271.5 -68t-130.5 -219h-49z" />
<glyph unicode="U" horiz-adv-x="1734" d="M190 1536l7 47h632l-6 -47l-104 -14q-55 -8 -83 -29.5t-36 -73.5l-125 -766q-15 -101 -15 -188t23.5 -157.5t66 -120.5t113.5 -77.5t166 -27.5q240 0 382 145.5t186 409.5l110 659q6 37 8 58t1 51.5t-12.5 48.5t-33 37t-59.5 29.5t-92 15.5l6 47h553l-6 -47 q-66 -6 -112.5 -21t-72.5 -34.5t-41.5 -50.5t-22 -59.5t-13.5 -71.5v-3l-111 -665q-54 -322 -228 -491t-474 -169q-321 0 -459 172q-99 124 -99 328q0 80 15 172l63 381l60 395q2 14 2 26q1 31 -15 47q-22 22 -73 30z" />
<glyph unicode="V" horiz-adv-x="1566" d="M61 1536l5 47h628l-4 -47l-98 -8q-68 -10 -88 -36q-12 -17 -12 -45q0 -16 4 -36l241 -1135l527 1031q28 55 39.5 94.5t9.5 62.5t-17.5 37.5t-34.5 20t-49 8.5l-59 6l4 47h518l-4 -47l-55 -6q-70 -8 -119 -50t-113 -163l-718 -1366h-60l-366 1481q-21 90 -109 98z" />
<glyph unicode="W" horiz-adv-x="2131" d="M61 1536l7 47h608l-6 -47l-78 -8q-66 -8 -87 -34q-15 -19 -15 -54q0 -13 2 -29l145 -1071l410 891l-39 201q-13 87 -109 98l-51 6l6 47h608l-6 -47l-98 -8q-66 -6 -88 -33q-16 -20 -15 -55q0 -13 2 -29l142 -1067l428 963q25 57 35.5 96.5t9.5 62.5t-15.5 36.5t-31.5 19 t-47 8.5l-62 6l6 47h516l-6 -47l-53 -6q-73 -8 -124 -50.5t-107 -162.5l-629 -1346h-66l-182 1110l-508 -1110h-74l-241 1461q-6 40 -36 67t-79 31z" />
<glyph unicode="X" horiz-adv-x="1673" d="M-123 0l6 47l49 4q42 3 73 13t69 39.5t71.5 63.5t98.5 105l483 531l-336 643q-17 34 -51.5 54t-62.5 25.5t-76 10.5l6 47h631l-7 -47l-106 -6q-59 -4 -73 -28q-5 -9 -5 -21q0 -19 15 -45l233 -449l322 352q93 97 93 145q0 36 -52 46q-9 1 -19 2l-74 4l6 47h525l-6 -47 l-50 -4q-86 -6 -142.5 -46.5t-178.5 -174.5l-377 -414l393 -756q25 -48 74 -67t121 -27l-6 -47h-627l6 47l94 6q58 3 76 28q8 11 8 26q0 18 -12 40l-295 566l-428 -469q-90 -98 -90 -146q0 -38 55 -46q8 -1 17 -1l90 -4l-6 -47h-535z" />
<glyph unicode="Y" horiz-adv-x="1513" d="M113 1536l6 47h629l-7 -47l-96 -8q-106 -9 -106 -73q0 -19 10 -44l252 -604l391 500q41 52 61 90t23 61.5t-10.5 38.5t-34.5 22t-55 11l-60 6l6 47h510l-6 -47l-55 -6q-65 -7 -118.5 -51.5t-145.5 -161.5l-486 -608l-84 -545q-3 -16 -3 -29q0 -33 16 -49q22 -23 90 -29 l114 -10l-6 -47h-694l6 47l109 10q75 8 105.5 30t39.5 77l90 549l-311 719q-10 23 -18 35.5t-26.5 29t-52 26t-83.5 13.5z" />
<glyph unicode="Z" horiz-adv-x="1413" d="M-35 20l1172 1475q-71 4 -153 4q-102 0 -222 -6q-190 -9 -299.5 -88.5t-140.5 -206.5h-48q85 311 95 385h1061l16 -29l-1180 -1468q97 -4 271.5 -4t271.5 4q179 9 271 85.5t130 229.5h47l-57 -401h-1225z" />
<glyph unicode="[" horiz-adv-x="600" d="M23 -475l317 2015h418l-13 -86h-319l-293 -1843h320l-13 -86h-417z" />
<glyph unicode="\" horiz-adv-x="790" d="M137 1669h103l411 -1737h-102z" />
<glyph unicode="]" horiz-adv-x="600" d="M-158 -475l13 86h317l293 1843h-320l13 86h417l-317 -2015h-416z" />
<glyph unicode="^" horiz-adv-x="1097" d="M35 756l514 850h96l283 -850h-111l-235 729l-430 -729h-117z" />
<glyph unicode="_" horiz-adv-x="1599" d="M115 -98l14 98h1354l-15 -98h-1353z" />
<glyph unicode="`" horiz-adv-x="428" d="M49 1583h230l90 -418h-41z" />
<glyph unicode="a" horiz-adv-x="1163" d="M59 295q0 146 56.5 282.5t144 230.5t195 150t209.5 56q97 0 170 -58l12 74h190l-131 -799q-14 -65 -14 -102q1 -5 1 -7q2 -36 30 -36q52 0 159 133l41 -33q-73 -106 -137 -160.5t-141 -54.5q-78 -1 -114 51q-29 41 -30 109q0 17 2 35q-153 -195 -346 -195q-78 0 -138 30 t-93 79t-49.5 103.5t-16.5 111.5zM279 365q0 -283 170 -283q138 0 266 166l90 543q-29 141 -150 141q-74 0 -138.5 -42.5t-106.5 -107t-73 -142.5t-44.5 -149t-13.5 -126z" />
<glyph unicode="b" horiz-adv-x="1091" d="M100 332l172 1124q6 39 -4.5 58t-46.5 26l-106 23l6 47l377 28l-133 -886q73 143 171 211.5t193 68.5q78 0 138.5 -30t94 -78.5t50 -103t16.5 -111.5q0 -141 -57 -279.5t-143 -236.5t-190 -158.5t-196 -61.5q-76 0 -139.5 17.5t-117 56.5t-77.5 112q-14 45 -14 99 q0 35 6 74zM305 352q-8 -55 -8 -100q0 -203 166 -203h3q71 1 132 45q62 46 101.5 114t67.5 150.5t40 154.5t12 126q0 132 -45.5 207.5t-122.5 75.5q-158 0 -301 -269z" />
<glyph unicode="c" horiz-adv-x="892" d="M74 295q0 100 26 204t77 198.5t119 169t158.5 119t188.5 44.5q54 0 109 -15t98 -49t42 -81q0 -43 -24 -67.5t-59 -24.5q-38 0 -61.5 17.5t-35 42.5t-23.5 50t-36 42.5t-63 17.5q-78 0 -150 -94.5t-112.5 -232t-40.5 -269.5q0 -133 43.5 -209t122.5 -76q67 0 152.5 68 t146.5 174l45 -25q-175 -328 -424 -328q-45 0 -85.5 9t-80.5 32t-68.5 59t-46.5 93.5t-18 130.5z" />
<glyph unicode="d" horiz-adv-x="1253" d="M74 295q0 118 36.5 232t98 203t137.5 157.5t158.5 105.5t157.5 37q116 0 194 -63l70 489q5 41 -4.5 59t-44.5 25l-107 23l6 47l375 28l-199 -1407q-10 -60 -10 -95v-14q2 -36 29 -36q52 0 159 133l41 -33q-73 -106 -137 -160.5t-141 -54.5q-87 1 -123 61q-25 41 -25 108 q0 31 5 69q-91 -129 -190 -183.5t-187 -54.5q-63 0 -115 20t-85.5 52.5t-56 75.5t-32.5 87t-10 89zM293 365q0 -136 43 -209.5t129 -73.5q60 0 136.5 47.5t160.5 155.5l72 510q-20 73 -67 113t-114 40q-73 0 -136 -44t-103 -111t-68.5 -148t-40.5 -152.5t-12 -127.5z" />
<glyph unicode="e" horiz-adv-x="903" d="M74 295q0 143 49 279t127.5 235.5t182.5 160t210 60.5q114 0 166.5 -49t52.5 -107q0 -39 -10 -74.5t-32 -65.5t-45.5 -54.5t-63 -48.5t-71.5 -42t-83.5 -39.5t-86.5 -35t-93 -35.5t-92 -35q-4 -27 -4 -77q0 -133 48 -208t122 -75q71 0 154 66t151 174l45 -27 q-108 -182 -210 -254t-239 -72q-124 0 -201 83.5t-77 240.5zM291 500q74 31 137.5 65.5t123.5 79.5t95 98.5t35 108.5q0 62 -30.5 86.5t-73.5 24.5q-64 0 -129 -78q-54 -66 -96.5 -169.5t-61.5 -215.5z" />
<glyph unicode="f" horiz-adv-x="763" d="M-453 -483q0 36 25 60t61 24q42 0 73 -26.5t47 -57.5t43 -57.5t61 -26.5q26 0 52 11.5t57.5 43t58.5 80.5t52 132.5t40 190.5l141 1006h-217l16 76h213l9 59q20 141 64 251.5t97 176.5t118.5 108.5t123.5 58t117 15.5q66 0 126.5 -14t105 -48t44.5 -81q0 -34 -24 -58 t-62 -24q-29 0 -52.5 12.5t-37.5 30.5t-29 40t-27.5 40t-32.5 30.5t-44 12.5q-26 0 -54 -11t-62.5 -42t-63.5 -79.5t-55.5 -130.5t-41.5 -187l-22 -160h326l-13 -76h-323l-123 -868q-22 -154 -65.5 -273t-95 -189t-115 -115t-120 -61t-114.5 -16q-66 0 -127 14.5t-105.5 48 t-44.5 79.5z" />
<glyph unicode="g" horiz-adv-x="1193" d="M-51 -362q0 177 223 241q-127 42 -127 174q0 78 76.5 152.5t228.5 109.5q-84 39 -134 116t-50 175q0 97 41.5 178.5t109 134.5t152 82t172.5 29q113 0 203 -55l364 35q5 -30 6 -52v-8q0 -18 -4 -30q-5 -15 -10 -25.5t-19.5 -14t-24 -5t-31.5 2t-34 6t-40 9.5q-16 4 -25 6 l-123 29q96 -99 96 -230q0 -120 -67.5 -217.5t-177.5 -149.5t-238 -52q-61 0 -110 14q-86 -32 -138.5 -73t-52.5 -81q0 -45 43 -63q38 -17 117 -17h18l244 4h19q177 0 269 -53q97 -56 97 -178q0 -134 -87.5 -239t-232 -160.5t-317.5 -55.5q-190 0 -313 70t-123 191z M100 -354q0 -66 47 -110t113.5 -61.5t147.5 -17.5q59 0 117.5 8t119 28.5t107 50.5t75.5 78.5t29 107.5q0 38 -19.5 63.5t-56.5 39t-80 19t-100 5.5h-233q-90 0 -146 10q-59 -40 -90 -101.5t-31 -119.5zM365 553q0 -101 39.5 -158t123.5 -57q60 0 109 28.5t78.5 73 t49.5 102.5t28 112t8 106q0 211 -162 211q-87 0 -151.5 -65.5t-93.5 -158.5t-29 -194z" />
<glyph unicode="h" horiz-adv-x="1122" d="M57 0l217 1456q6 39 -4.5 58t-46.5 26l-106 23l6 47l379 28l-131 -864q56 119 149.5 187.5t192.5 68.5q74 0 124.5 -23.5t76.5 -62.5q25 -40 33 -100q5 -35 5 -70q0 -27 -3 -55q-6 -65 -23 -150l-68 -338q-13 -64 -14 -99q0 -6 1 -10q2 -36 29 -36q53 0 160 133l41 -33 q-73 -106 -137 -160.5t-141 -54.5q-89 0 -127 63q-24 39 -24 100q0 36 9 81l68 358q24 111 24 184q0 39 -7 67q-19 81 -109 81q-72 0 -144.5 -55.5t-130.5 -171.5l-100 -678h-199z" />
<glyph unicode="i" horiz-adv-x="645" d="M35 852q91 99 175.5 138.5t143.5 39.5q34 0 57 -7.5t36.5 -25t20 -40t5.5 -58t-6 -73t-16 -91.5l-101 -504q-12 -60 -13 -95q0 -8 1 -14q3 -36 29 -36q52 0 159 133l41 -33q-73 -106 -137 -160.5t-141 -54.5q-89 0 -127 63q-24 39 -24 100q0 36 9 81l109 557q14 62 14 98 v11q-2 37 -32 37q-59 0 -166 -107zM272 1417q0 58 40.5 98.5t99.5 40.5q60 0 100.5 -40t40.5 -99q0 -60 -40.5 -100.5t-100.5 -40.5q-59 0 -99.5 40.5t-40.5 100.5z" />
<glyph unicode="j" horiz-adv-x="630" d="M-90 -582q55 51 95.5 105.5t64.5 100.5t42.5 112t27.5 112t22 129l127 795q11 62 11 99v10q-2 37 -30 37q-59 0 -166 -107l-36 41q91 99 176 138.5t143 39.5q92 0 111 -73q8 -28 8 -68q0 -63 -19 -154l-122 -717q-11 -62 -20.5 -106t-26 -98t-37.5 -95.5t-53 -88.5 t-73.5 -87t-99 -82t-129.5 -82zM309 1417q0 58 40.5 98.5t99.5 40.5q60 0 100.5 -40t40.5 -99q0 -60 -40.5 -100.5t-100.5 -40.5q-59 0 -99.5 40.5t-40.5 100.5z" />
<glyph unicode="k" horiz-adv-x="1021" d="M82 0l201 1456q6 39 -6 58t-48 26l-106 23l6 47l379 28l-148 -1054h29q82 0 146.5 24t102.5 64q38 39 56 86q18 45 17 93v5q0 6 -1 28t-1 31t1 28t4.5 28t10 22.5t17 20t26 11.5t35.5 5q44 0 67 -24.5t23 -60.5q-1 -39 -27 -97q-28 -60 -73 -120t-112.5 -107.5 t-137.5 -59.5q63 -11 108.5 -38t74 -70.5t44.5 -85.5t31 -105q26 -104 34 -124q29 -73 97 -92q30 -8 72 -8q17 0 36 1l4 -45q-98 -25 -163 -25q-226 0 -289 260q-4 15 -10.5 44.5t-10 44t-11 40t-13.5 38.5t-16.5 33t-21.5 30.5t-27 23.5t-34.5 19.5t-43 11.5t-52.5 6 l-71 -520h-199z" />
<glyph unicode="l" horiz-adv-x="542" d="M88 215l176 1241q6 39 -5.5 58t-47.5 26l-107 23l7 47l376 28l-198 -1407q-9 -56 -9 -90v-19q4 -36 29 -36q52 0 156 133l43 -33q-71 -106 -134.5 -160.5t-140.5 -54.5q-87 1 -125 63q-26 43 -25 112q0 32 5 69z" />
<glyph unicode="m" horiz-adv-x="1800" d="M35 852q49 56 99.5 94t93 55t71.5 23t55 6q40 0 65 -12.5t37 -34t13 -63.5v-13q-1 -36 -5 -73q-6 -44 -18 -117q57 132 158 222.5t199 90.5q71 0 119.5 -20t73.5 -60t34 -90q7 -38 6 -86v-33q58 122 157 205.5t193 83.5q74 0 124 -23t75 -61t33 -100q5 -36 5 -74 q-1 -26 -3 -52q-6 -64 -21 -151l-61 -338q-15 -68 -15 -104q0 -41 31 -41q53 0 160 133l41 -33q-73 -106 -137 -160.5t-141 -54.5q-89 0 -127 63q-25 41 -24 105q0 35 7 76l64 358q23 113 23 186q0 39 -6 66q-18 80 -109 80q-64 0 -140.5 -75.5t-138.5 -198.5 q-8 -54 -106 -631h-199l92 573q15 92 19 149q1 18 1 35q1 36 -5 66q-8 44 -34.5 63t-72.5 19q-65 0 -144 -80t-141 -207l-98 -618h-201l121 772q11 60 11 96q-1 7 -1 13q-2 37 -30 37q-59 0 -166 -107z" />
<glyph unicode="n" horiz-adv-x="1218" d="M35 852q49 55 99.5 93t93 55t72 23.5t54.5 6.5q40 0 65 -13t37 -35q12 -24 14 -64q0 -10 1 -20q1 -30 -3 -62q-4 -42 -17 -109q65 140 170 221.5t215 81.5q54 0 93 -15t61.5 -45.5t34.5 -69.5q13 -39 13 -94v-9q0 -50 -6 -101q-6 -55 -18 -127l-60 -338q-14 -65 -13 -102 q-1 -5 -1 -7q2 -36 31 -36q52 0 159 133l41 -33q-74 -107 -136.5 -161t-139.5 -54q-88 0 -127 63q-25 41 -25 105q0 35 7 76l63 358q23 114 23 189q0 36 -6 62q-16 81 -97 81q-71 0 -152.5 -75.5t-142.5 -200.5l-100 -629h-199l117 772q12 63 12 99v10q-2 37 -30 37 q-59 0 -166 -107z" />
<glyph unicode="o" horiz-adv-x="1079" d="M66 295q0 146 60.5 285t152 235.5t199 155.5t202.5 59q73 0 131.5 -20t95.5 -52.5t62 -75.5t35 -86.5t10 -88.5q0 -117 -39.5 -231.5t-104.5 -203.5t-145 -158t-165.5 -106t-160.5 -37q-91 0 -158.5 30t-104 79t-53.5 103t-17 112zM285 365q0 -71 6.5 -123.5t22 -95.5 t44.5 -65t72 -22q79 0 144.5 43.5t105 109.5t67 147t38 151t10.5 127q0 147 -33 226t-115 79q-79 0 -144 -43.5t-104.5 -109t-66 -146.5t-37 -150.5t-10.5 -127.5z" />
<glyph unicode="p" horiz-adv-x="1243" d="M-98 -600l8 47l88 14q54 9 76.5 26.5t27.5 47.5l187 1237q10 57 10 92q0 9 -1 17q-3 37 -32 37q-59 0 -166 -107l-37 41q49 55 101 93t95.5 55t72.5 23.5t51 6.5q61 0 89 -32q27 -31 27 -88q0 -56 -12 -142q44 79 95 134t101 81.5t91.5 37.5t83.5 11q78 0 138.5 -30 t94 -78.5t50 -103t16.5 -111.5q0 -178 -78 -338t-198 -267q-119 -106 -254 -127q-29 -5 -57 -5q-103 0 -193 61l-76 -496q-6 -39 5.5 -55.5t55.5 -20.5l136 -14l-11 -47h-585zM401 190q51 -139 197 -139q68 0 128 44.5t99.5 112.5t68 149t41.5 154t13 128q0 134 -47.5 208.5 t-134.5 74.5q-62 0 -137 -56t-154 -188z" />
<glyph unicode="q" horiz-adv-x="1148" d="M74 295q0 118 36.5 232t98 203t137.5 157.5t158.5 105.5t157.5 37q135 0 202 -69l13 69h198l-239 -1493q-6 -37 7.5 -53t59.5 -23l94 -14l-10 -47h-586l9 47l129 14q54 6 73.5 23.5t24.5 52.5l104 651q-90 -118 -186.5 -167.5t-181.5 -49.5q-63 0 -115 20t-85.5 52.5 t-56 75.5t-32.5 87t-10 89zM283 365q0 -134 47.5 -208.5t134.5 -74.5q58 0 133.5 44t155.5 142l86 535q-22 72 -66 113.5t-100 41.5q-79 0 -147 -45t-111.5 -113.5t-74.5 -151t-44.5 -155t-13.5 -128.5z" />
<glyph unicode="r" horiz-adv-x="823" d="M35 852q161 178 319 178q33 0 56 -11t35 -36t17 -55q3 -20 3 -47q-1 -14 -1 -30q-2 -48 -8.5 -94t-17.5 -114q38 100 84.5 175.5t85 114.5t79 62.5t63.5 29t41 5.5q45 0 69.5 -24t24.5 -58q0 -30 -16.5 -56.5t-43.5 -35.5q-9 -3 -91 -14t-132 -41q-117 -72 -176 -258 l-88 -543h-199l123 772q10 55 10 90q0 11 -1 19q-4 37 -33 37q-59 0 -166 -107z" />
<glyph unicode="s" horiz-adv-x="839" d="M41 145q0 49 32 77t74 28t68.5 -23t39.5 -56t27.5 -65.5t43 -55.5t73.5 -23q28 0 55 8t53.5 25.5t43 52.5t16.5 82q0 62 -42 112t-113 103l-101 75q-190 146 -190 303q0 55 23.5 99t60 70t85.5 43t95.5 23.5t95.5 6.5q76 0 143.5 -18t110.5 -51.5t43 -75.5 q0 -40 -26.5 -69.5t-65.5 -29.5q-31 0 -55.5 19t-42 46t-37 54.5t-52.5 46.5t-77 19q-121 0 -121 -119q0 -106 135 -209l68 -51q77 -58 123.5 -101t81 -103t34.5 -122q0 -82 -36 -142.5t-95.5 -92t-121 -46t-125.5 -14.5q-79 0 -152.5 21t-122.5 61.5t-49 91.5z" />
<glyph unicode="t" horiz-adv-x="731" d="M104 909l11 64h172l186 272h41l-41 -272h289l-12 -76h-289l-105 -666q-12 -65 -12 -101v-8q2 -36 29 -36t84 34t116 99l41 -33q-66 -96 -152 -155.5t-167 -59.5q-87 -1 -123 61q-24 40 -25 106q0 34 7 75l108 684z" />
<glyph unicode="u" horiz-adv-x="1241" d="M35 852q91 99 176 138.5t143 39.5q40 0 65.5 -12.5t38.5 -33.5q14 -21 16 -60q1 -13 0 -26q0 -28 -3 -56q-5 -42 -16 -107l-56 -307q-23 -114 -23 -189q0 -36 6 -62q16 -81 97 -81q71 0 152.5 76t142.5 201l96 600h199l-119 -744q-10 -55 -10 -89q0 -12 1 -20 q4 -36 32 -36q53 0 160 133l41 -33q-73 -106 -137.5 -160.5t-141.5 -54.5q-143 0 -143 189q0 51 10 116q-65 -140 -170 -221.5t-215 -81.5q-65 0 -108 23.5t-65 62.5t-28 99q-3 32 -3 65q1 30 3 61q6 65 21 150l63 340q12 57 12 92q0 9 -1 17q-4 37 -33 37q-59 0 -166 -107z " />
<glyph unicode="v" horiz-adv-x="1067" d="M20 797q17 48 38 86t40 62t43 41.5t41 25.5t40 12.5t34 5t29 0.5q69 0 120.5 -62t78 -160t37.5 -218q7 -80 7 -159q0 -39 -2 -79q-6 -118 -24 -219q94 57 201 185t147 280q12 42 12 78v12q-2 40 -14 67.5t-29.5 52.5t-34 43.5t-28 43t-11.5 49.5q0 33 25.5 59.5 t67.5 26.5q72 0 109.5 -59t37.5 -150q0 -127 -52 -266.5t-140 -261.5t-215.5 -218t-268.5 -136l-14 8q25 113 31 279q2 48 2 94q0 114 -10 222q-14 152 -53 259.5t-95 107.5t-111 -135z" />
<glyph unicode="w" horiz-adv-x="1622" d="M31 926l18 47h498l-19 -47q-85 0 -120 -21q-30 -18 -30 -57q0 -7 1 -14l72 -584l309 510l-10 84q-6 43 -33.5 61.5t-81.5 20.5l18 47h486l-19 -47q-86 0 -130 -22q-40 -20 -40 -62v-8l62 -598l311 514q39 65 42 104t-24.5 55t-85.5 17l19 47h424l-19 -47q-63 -8 -94 -18 t-66.5 -42.5t-76.5 -97.5l-504 -809h-80l-82 670l-418 -670h-75l-117 885q-11 45 -39.5 63t-95.5 19z" />
<glyph unicode="x" horiz-adv-x="1148" d="M-4 53q0 78 55 215l60 -18q-33 -105 -33 -148q0 -30 16 -30q33 0 164 147l209 242l-94 284q-29 87 -45.5 123.5t-32.5 36.5q-25 0 -78 -162l-63 11q44 158 96 218t129 60q48 0 92.5 -45.5t75.5 -138.5l69 -213l197 225q148 170 238 170q30 0 49.5 -16t19.5 -49 q0 -97 -55 -234l-59 19q33 105 33 148q0 30 -16 30q-33 0 -165 -148l-209 -241l94 -281q29 -87 45.5 -123.5t32.5 -36.5q25 0 78 162l64 -10q-44 -158 -96.5 -218.5t-129.5 -60.5q-48 0 -91.5 46t-74.5 139l-71 211l-197 -228q-146 -168 -237 -168q-70 0 -70 82z" />
<glyph unicode="y" horiz-adv-x="1077" d="M-512 -489q0 38 25.5 68t74.5 30q34 0 56 -14t32.5 -34.5t19 -40.5t24 -34t40.5 -14q65 0 238.5 115t351.5 282q19 90 22 225v40q0 116 -12 234q-15 140 -40 262.5t-65 200.5t-85 78q-56 0 -111 -135l-39 23q17 48 38 86t40 62t43 41.5t41 25.5t40 12.5t34 5t29 0.5 q69 0 123 -60t85.5 -159.5t48.5 -224.5q16 -118 16 -243v-15q-1 -133 -17 -258q237 277 303 528q12 54 12 91v15q-3 40 -19 74.5t-34 56t-32.5 51t-14.5 58.5q0 33 25 59.5t67 26.5q72 0 109.5 -59t37.5 -150q0 -199 -129.5 -433.5t-337.5 -455.5q-250 -265 -467.5 -409 t-355.5 -144q-101 0 -159 36t-58 96z" />
<glyph unicode="z" horiz-adv-x="882" d="M-82 16l754 783h-451l-94 -154h-49l78 328h780l8 -19l-749 -776h471l90 150h49l-78 -328h-801z" />
<glyph unicode="{" horiz-adv-x="638" d="M31 483l4 37q77 10 137.5 55t96 111t53.5 140.5t18 150.5q0 41 -12.5 119t-12.5 118q0 89 24 161t74.5 127.5t134.5 85.5t197 30h60l-14 -92h-60q-307 0 -307 -291q0 -43 10 -127.5t10 -128.5q0 -314 -237 -477q121 -102 121 -281q0 -153 -95 -356q-65 -133 -65 -225 q0 -175 238 -175h59l-14 -92h-60q-332 0 -332 248q0 120 88 299q74 152 74 295q0 110 -46 182.5t-144 85.5z" />
<glyph unicode="|" horiz-adv-x="546" d="M96 0l256 1618h97l-256 -1618h-97z" />
<glyph unicode="}" horiz-adv-x="606" d="M-166 -627l14 92h60q305 0 305 291q0 43 -10 127.5t-10 128.5q0 323 239 490q-123 103 -123 272q0 147 94 352q66 135 66 226q0 174 -238 174h-59l14 92h60q170 0 251 -67t81 -185q0 -117 -89 -295q-73 -146 -73 -291q0 -107 46.5 -177t145.5 -83l-4 -37 q-77 -10 -137.5 -57t-96 -115t-53.5 -144t-18 -153q0 -41 11.5 -119t11.5 -118q0 -187 -104.5 -295.5t-323.5 -108.5h-60z" />
<glyph unicode="~" horiz-adv-x="1349" d="M80 426q53 114 137.5 170.5t179.5 56.5q57 0 119.5 -21t118 -50.5t110 -59t112 -50.5t106.5 -21q63 0 116 37.5t105 127.5l84 -34q-56 -117 -139.5 -172.5t-178.5 -55.5q-71 0 -153.5 31.5t-144.5 69t-136.5 69t-132.5 31.5q-63 0 -116 -38t-105 -130z" />
<glyph unicode="&#xa1;" horiz-adv-x="579" d="M43 4q22 175 57.5 335.5t68 269.5t73.5 280.5t71 355.5h66q-40 -240 -53.5 -486.5t-20 -443t-29.5 -323.5q-96 -24 -233 12zM215 1483q0 67 46 113t114 46q63 0 108 -46t45 -113q0 -63 -45 -108.5t-108 -45.5q-67 0 -113.5 45.5t-46.5 108.5z" />
<glyph unicode="&#xa2;" horiz-adv-x="929" d="M74 295q0 114 35.5 233.5t97.5 222t155 176.5t199 95l37 227h88l-35 -219q54 -1 107.5 -16.5t94 -49.5t40.5 -79q0 -43 -24.5 -67.5t-59.5 -24.5q-41 0 -66 20t-34.5 46t-27 54t-42.5 39l-137 -862q64 23 132.5 85.5t117.5 148.5l45 -25q-131 -248 -312 -309l-30 -203 h-88l28 186q-4 0 -11 -1t-11 -1q-45 0 -85.5 9t-80.5 32t-68.5 59t-46.5 93.5t-18 130.5zM287 367q0 -117 33 -189.5t94 -91.5l137 870q-71 -22 -133 -117.5t-96.5 -223t-34.5 -248.5z" />
<glyph unicode="&#xa3;" horiz-adv-x="1296" d="M-74 10l11 31q188 3 284 172t121 541h-240l15 86h229l4 84q2 128 25 232t57.5 174t84.5 122.5t99.5 82t111 47t111 23t105.5 5.5q146 0 250 -63t104 -150q0 -48 -25 -74.5t-65 -26.5q-35 0 -58 18t-33 45t-25.5 59t-33.5 59t-57.5 45t-97.5 18q-61 0 -110.5 -18.5 t-83.5 -49t-59 -76t-39.5 -94t-23 -109t-11 -114.5t-1.5 -116q0 -45 -4 -123h428l-14 -86h-424q-16 -121 -53 -229.5t-82 -186t-98.5 -139.5t-101 -98.5t-91.5 -53.5l2 -6q91 47 130.5 66t121.5 55t145 51.5t117 15.5q71 0 137.5 -17t105.5 -33.5t81 -24t86 11.5t98 72 l37 -25q-51 -74 -99 -123.5t-90.5 -74t-76.5 -33.5t-70 -9q-48 0 -144.5 36t-160.5 36q-68 0 -159 -17t-157.5 -32.5t-152 -15t-160.5 29.5z" />
<glyph unicode="&#xa5;" horiz-adv-x="1513" d="M113 1536l6 47h629l-7 -47l-96 -8q-139 -12 -96 -117l252 -604l391 500q41 52 61 90t23 61.5t-10.5 38.5t-34.5 22t-55 11l-60 6l6 47h510l-6 -47l-55 -6q-65 -7 -118.5 -51.5t-145.5 -161.5l-484 -606h318l-15 -97h-319l-33 -211h318l-15 -96h-317l-23 -143 q-9 -55 13 -78t90 -29l114 -10l-6 -47h-694l6 47l109 10q75 8 105.5 30t39.5 77l23 143h-308l15 96h309l35 211h-309l14 97h311v2l-311 719q-10 23 -18 35.5t-26.5 29t-52 26t-83.5 13.5z" />
<glyph unicode="&#xa6;" horiz-adv-x="546" d="M49 -598l141 897h97l-142 -897h-96zM258 721l141 897h97l-142 -897h-96z" />
<glyph unicode="&#xa7;" horiz-adv-x="1185" d="M-16 -336q0 48 27.5 74t70.5 26q35 0 57.5 -17t34 -43.5t22 -59.5t26.5 -65.5t41.5 -59t73.5 -43.5t116 -17q152 0 254 93t102 233q0 106 -60 175.5t-184 121.5l-153 63q-159 67 -233.5 142t-74.5 198q0 112 82 207.5t215 153.5q-105 61 -156.5 149.5t-51.5 192.5 q0 180 141 298t373 118q92 0 179 -26t146.5 -78t59.5 -116q0 -47 -25.5 -70.5t-60.5 -23.5q-33 0 -55 14t-33.5 36.5t-21 50t-22.5 55t-33 50t-58.5 36.5t-92.5 14q-130 0 -214.5 -80t-84.5 -192q0 -82 51 -153.5t140 -112.5l196 -88q156 -68 228.5 -144t72.5 -194 q0 -108 -82.5 -210.5t-210.5 -156.5q112 -66 163.5 -144t51.5 -182q0 -225 -150.5 -360t-410.5 -135q-103 0 -208.5 36.5t-176.5 100t-71 133.5zM283 588q0 -49 17 -87.5t52.5 -68t73.5 -50t96 -44.5l121 -51q68 -30 115 -54q65 46 103 110.5t38 131.5q0 48 -21 88.5 t-60.5 72.5t-79.5 54.5t-95 46.5l-207 90q-153 -88 -153 -239z" />
<glyph unicode="&#xa8;" horiz-adv-x="892" d="M86 1376q0 59 40.5 99.5t98.5 40.5q60 0 101 -40.5t41 -99.5q0 -60 -41 -100.5t-101 -40.5q-59 0 -99 40.5t-40 100.5zM522 1376q0 58 41 99t99 41q60 0 100.5 -40.5t40.5 -99.5q0 -60 -40.5 -100.5t-100.5 -40.5q-59 0 -99.5 40.5t-40.5 100.5z" />
<glyph unicode="&#xa9;" horiz-adv-x="1832" d="M102 784q0 222 109 409.5t296 296.5t408 109q166 0 317 -64.5t260.5 -173.5t174 -260t64.5 -317q0 -165 -64.5 -316t-174 -259.5t-260.5 -173t-317 -64.5q-221 0 -408 109t-296 296t-109 408zM193 784q0 -149 56.5 -284.5t153 -233.5t230.5 -156.5t282 -58.5 q149 0 283.5 58t230.5 156.5t152.5 234t56.5 284.5q0 200 -95.5 369.5t-262 268t-365.5 98.5q-148 0 -282 -58.5t-230.5 -157t-153 -234.5t-56.5 -286zM397 803q0 149 73 267.5t194 182.5t264 64q48 0 95 -6.5t76.5 -13.5t85 -22.5t89.5 -23.5l22 -202h-34 q-59 102 -146.5 151t-189.5 49q-74 0 -137.5 -25t-117 -76t-84 -140t-30.5 -207q0 -112 32 -199.5t85.5 -139t117 -78t132.5 -26.5q255 0 356 236h35l-37 -201q-55 -49 -154 -75.5t-204 -26.5q-117 0 -216 41t-165.5 110.5t-104 163t-37.5 197.5z" />
<glyph unicode="&#xaa;" horiz-adv-x="860" d="M61 1022q0 103 39.5 198t101 160.5t136.5 104.5t145 39q73 0 121 -39l8 51h164l-92 -561q-10 -51 -9.5 -76t21.5 -25q40 0 113 95l31 -25q-50 -72 -96.5 -110.5t-102.5 -38.5q-58 0 -96 37t-35 98q-103 -135 -240 -135q-55 0 -97 20.5t-65.5 55t-35 72.5t-11.5 79z M244 1069q0 -84 25 -137t73 -53q94 0 178 110l64 381q-23 98 -107 98q-71 0 -126 -65t-81 -154.5t-26 -179.5z" />
<glyph unicode="&#xab;" horiz-adv-x="921" d="M39 502l461 430h59l-315 -434l178 -428h-60zM401 506l457 430h60l-314 -434l176 -428h-59z" />
<glyph unicode="&#xac;" horiz-adv-x="1196" d="M109 438l14 97h971l-15 -97h-2l-67 -436h-105l68 436h-864z" />
<glyph unicode="&#xad;" horiz-adv-x="806" d="M94 471l15 96h602l-15 -96h-602z" />
<glyph unicode="&#xae;" horiz-adv-x="1832" d="M102 784q0 222 109 409.5t296 296.5t408 109q166 0 317 -64.5t260.5 -173.5t174 -260t64.5 -317q0 -165 -64.5 -316t-174 -259.5t-260.5 -173t-317 -64.5q-221 0 -408 109t-296 296t-109 408zM193 784q0 -149 56.5 -284.5t153 -233.5t230.5 -156.5t282 -58.5 q149 0 283.5 58t230.5 156.5t152.5 234t56.5 284.5q0 200 -95.5 369.5t-262 268t-365.5 98.5q-148 0 -282 -58.5t-230.5 -157t-153 -234.5t-56.5 -286zM469 334v37l68 6q41 5 59 19.5t18 45.5v754q0 29 -18 44.5t-59 19.5l-68 6v37q57 0 193 2t200 2q56 0 106.5 -6 t103 -23.5t90 -44.5t61.5 -73.5t24 -106.5q0 -43 -22 -87t-59.5 -81t-94.5 -61.5t-121 -26.5v-2q105 -8 164 -47t94 -140q17 -51 26 -76.5t23 -58t26.5 -46.5t30.5 -27.5t40 -16.5t51 0l8 -33q-53 -33 -123 -33q-44 0 -78.5 14.5t-57.5 35.5t-43 58t-32 69t-26 81 q-12 41 -27 72t-30 51.5t-37 35t-39.5 22t-47 11t-50 4.5t-56.5 1v-330q0 -30 17.5 -45t56.5 -20l63 -6v-37h-434zM766 813l96 10q112 12 171 69t59 157q0 49 -15 86t-38 58t-58 34t-68.5 17.5t-74.5 4.5q-20 0 -39.5 -2.5t-32.5 -3.5v-430z" />
<glyph unicode="&#xaf;" horiz-adv-x="868" d="M94 1296l15 97h663l-14 -97h-664z" />
<glyph unicode="&#xb0;" horiz-adv-x="708" d="M61 1315q0 121 85.5 206t207.5 85t207.5 -85t85.5 -206t-85.5 -206t-207.5 -85t-207.5 85t-85.5 206zM164 1315q0 -80 52.5 -138.5t137.5 -58.5q87 0 139 56.5t52 140.5q0 86 -54.5 141t-136.5 55q-75 0 -132.5 -55t-57.5 -141z" />
<glyph unicode="&#xb1;" horiz-adv-x="1134" d="M2 0l14 96h971l-14 -96h-971zM86 532l14 97h432l58 344h104l-57 -344h434l-14 -97h-434l-58 -354h-104l57 354h-432z" />
<glyph unicode="&#xb2;" horiz-adv-x="901" d="M39 817v23q19 12 74.5 47t88.5 56t88.5 59t90.5 66t77.5 66t67 69.5t41.5 67.5t17 68q0 111 -111 111q-93 0 -209 -90l-26 33q72 72 154.5 108.5t160.5 36.5q85 0 151 -41.5t66 -124.5q0 -37 -17.5 -74.5t-41 -67.5t-68 -65.5t-77.5 -58t-93 -56t-89.5 -48.5t-90.5 -46 h264q75 0 107 25.5t59 103.5h45l-37 -268h-692z" />
<glyph unicode="&#xb3;" horiz-adv-x="768" d="M47 438q89 26 159 56t136.5 75t103.5 108.5t37 141.5q0 164 -219 187v28q50 27 95 60.5t85.5 75.5t64 93.5t23.5 104.5q0 88 -100 88q-53 0 -106.5 -29t-89.5 -81l-39 24q51 84 133 125t172 41q99 0 153 -45.5t54 -122.5q0 -92 -100.5 -177t-235.5 -130q295 -36 295 -238 q0 -55 -24 -105.5t-62.5 -89.5t-93 -74.5t-109 -60.5t-116.5 -46.5t-110.5 -34.5t-95.5 -23z" />
<glyph unicode="&#xb4;" horiz-adv-x="428" d="M10 1165l226 418h229l-414 -418h-41z" />
<glyph unicode="&#xb5;" horiz-adv-x="1163" d="M88 -459l223 1432h105l-99 -637q-18 -112 43 -186t181 -74q88 0 172.5 56.5t142.5 154.5l105 686h104l-152 -973h-100l27 160q-63 -92 -145.5 -140.5t-174.5 -48.5q-69 0 -137 32t-102 101l-88 -563h-105z" />
<glyph unicode="&#xb6;" horiz-adv-x="1146" d="M141 1196q10 60 32.5 115t68 109.5t107.5 94.5t157 64.5t211 24.5h457l-15 -93h-172l-278 -1751h-97l279 1751h-158l-278 -1751h-97l164 1031q-186 0 -297.5 111.5t-83.5 293.5z" />
<glyph unicode="&#xb7;" horiz-adv-x="559" d="M123 522q0 63 45 108.5t108 45.5q67 0 113.5 -45.5t46.5 -108.5q0 -68 -46 -114t-114 -46q-63 0 -108 46.5t-45 113.5z" />
<glyph unicode="&#xb8;" horiz-adv-x="573" d="M66 -473q125 16 201.5 73.5t86.5 123.5q5 37 -12.5 63.5t-67.5 26.5q-43 0 -88 -29l-43 39l156 176h76l-158 -172l9 5q10 5 24.5 12t31.5 13.5t36 11.5t34 5q59 0 95 -30.5t36 -86.5q0 -65 -41.5 -117t-107 -83.5t-133 -49.5t-133.5 -24z" />
<glyph unicode="&#xb9;" horiz-adv-x="606" d="M6 813l8 47l68 12q52 10 71.5 27.5t24.5 48.5l21 139l24 154l23 139q6 39 -4.5 55t-55.5 23l-71 12l8 48h465l-8 -48l-68 -12q-52 -10 -71.5 -27.5t-24.5 -48.5q-5 -22 -25 -141l-24 -154l-19 -137q-6 -39 4.5 -55t55.5 -23l71 -12l-8 -47h-465z" />
<glyph unicode="&#xba;" horiz-adv-x="798" d="M61 1022q0 101 43.5 198.5t109 164.5t141.5 108t141 41q64 0 112.5 -21t75.5 -55t40 -72t13 -77q0 -101 -43.5 -198t-108.5 -164t-141 -108.5t-141 -41.5q-64 0 -112.5 21t-75.5 55t-40.5 72t-13.5 77zM244 1071q0 -68 7 -112.5t27.5 -73.5t55.5 -29q46 0 85 30.5 t63 76.5t41.5 102.5t24.5 106t7 88.5q0 217 -88 217q-58 0 -104 -45.5t-70.5 -113t-36.5 -132t-12 -115.5z" />
<glyph unicode="&#xbb;" horiz-adv-x="921" d="M6 74l316 436l-179 426h60l319 -430l-456 -432h-60zM365 70l313 436l-176 426h59l318 -430l-455 -432h-59z" />
<glyph unicode="&#xbc;" horiz-adv-x="1734" d="M63 813l7 47l67 12q53 10 72 27.5t24 48.5q13 69 23 139l25 154l22 139q5 40 -5 55.5t-54 22.5l-72 12l6 48h465l-6 -48l-68 -12q-52 -10 -71.5 -27.5t-24.5 -48.5q-6 -22 -24 -141l-25 -154l-21 -137q-5 -40 5 -55.5t55 -22.5l72 -12l-7 -47h-465zM66 0l1327 1618h114 l-1331 -1618h-110zM715 332l616 700h101l-95 -594h72q62 0 86.5 21.5t50.5 97.5h39l-39 -248h-229l-27 -172q-7 -40 3 -55.5t57 -22.5l71 -12l-8 -47h-465l8 47l68 12q52 10 71.5 27.5t22.5 48.5l29 174h-424zM885 438h293l63 400z" />
<glyph unicode="&#xbd;" horiz-adv-x="1593" d="M63 813l7 47l67 12q53 10 72 27.5t24 48.5q13 69 23 139l25 154l22 139q5 40 -5 55.5t-54 22.5l-72 12l6 48h465l-6 -48l-68 -12q-52 -10 -71.5 -27.5t-24.5 -48.5q-6 -22 -24 -141l-25 -154l-21 -137q-5 -40 5 -55.5t55 -22.5l72 -12l-7 -47h-465zM66 0l1327 1618h114 l-1331 -1618h-110zM670 0v23q19 12 74.5 47t88.5 56t88.5 59t90 66t77 66t67 69.5t41.5 67.5t17 68q0 111 -110 111q-93 0 -209 -90l-27 32q72 73 155 109.5t161 36.5q85 0 151 -41.5t66 -124.5q0 -37 -17.5 -74.5t-41 -67.5t-68 -65.5t-77.5 -58t-93 -56t-89.5 -48.5 t-90.5 -46h264q75 0 107 25.5t59 103.5h45l-37 -268h-692z" />
<glyph unicode="&#xbe;" horiz-adv-x="1902" d="M47 438q89 26 159 56t136.5 75t103.5 108.5t37 141.5q0 164 -219 187v28q50 27 95 60.5t85.5 75.5t64 93.5t23.5 104.5q0 88 -100 88q-53 0 -106.5 -29t-89.5 -81l-39 24q51 84 133 125t172 41q99 0 153 -45.5t54 -122.5q0 -92 -100.5 -177t-235.5 -130q295 -36 295 -238 q0 -55 -24 -105.5t-62.5 -89.5t-93 -74.5t-109 -60.5t-116.5 -46.5t-110.5 -34.5t-95.5 -23zM233 0l1328 1618h114l-1331 -1618h-111zM885 332l616 700h101l-95 -594h72q62 0 86.5 21.5t50.5 97.5h39l-39 -248h-229l-27 -172q-7 -40 3 -55.5t57 -22.5l71 -12l-8 -47h-465 l8 47l68 12q52 10 71.5 27.5t22.5 48.5l29 174h-424zM1055 438h293l63 400z" />
<glyph unicode="&#xbf;" horiz-adv-x="788" d="M100 201q0 83 32 158.5t83.5 135.5t113.5 117.5t124 114t113.5 115.5t83.5 132.5t32 153.5q0 63 -14 84l51 31q59 -74 59 -196q0 -80 -27 -153.5t-70 -132t-95 -115t-103.5 -112t-94.5 -112t-70 -126t-27 -144.5q0 -56 25.5 -92.5t78.5 -36.5q34 0 64.5 20t53.5 49 t46.5 58t55 49t67.5 20q35 0 56.5 -20t21.5 -54q0 -54 -61.5 -95.5t-141 -60t-154.5 -18.5q-130 0 -216.5 59.5t-86.5 170.5zM530 1470q0 68 46 114t114 46q63 0 108.5 -46.5t45.5 -113.5q0 -63 -45.5 -108t-108.5 -45q-67 0 -113.5 45t-46.5 108z" />
<glyph unicode="&#xc0;" horiz-adv-x="1538" d="M-100 0l6 47l53 6q63 8 110 50.5t111 162.5l719 1358h51l363 -1472q21 -91 112 -99l72 -6l-6 -47h-629l6 47l97 8q70 9 94 36.5t12 80.5l-90 395h-539l-149 -291q-29 -55 -40.5 -94.5t-9.5 -62.5t18 -37.5t34.5 -20t48.5 -8.5l62 -6l-7 -47h-499zM516 709h434l-131 585z M731 2111h230l90 -417h-41z" />
<glyph unicode="&#xc1;" horiz-adv-x="1538" d="M-100 0l6 47l53 6q63 8 110 50.5t111 162.5l719 1358h51l363 -1472q21 -91 112 -99l72 -6l-6 -47h-629l6 47l97 8q70 9 94 36.5t12 80.5l-90 395h-539l-149 -291q-29 -55 -40.5 -94.5t-9.5 -62.5t18 -37.5t34.5 -20t48.5 -8.5l62 -6l-7 -47h-499zM516 709h434l-131 585z M745 1694l226 417h229l-414 -417h-41z" />
<glyph unicode="&#xc2;" horiz-adv-x="1538" d="M-100 0l6 47l53 6q63 8 110 50.5t111 162.5l719 1358h51l363 -1472q21 -91 112 -99l72 -6l-6 -47h-629l6 47l97 8q70 9 94 36.5t12 80.5l-90 395h-539l-149 -291q-29 -55 -40.5 -94.5t-9.5 -62.5t18 -37.5t34.5 -20t48.5 -8.5l62 -6l-7 -47h-499zM516 709h434l-131 585z M596 1706l328 383h94l209 -381l-39 -27l-244 238l-315 -242z" />
<glyph unicode="&#xc3;" horiz-adv-x="1538" d="M-100 0l6 47l53 6q63 8 110 50.5t111 162.5l719 1358h51l363 -1472q21 -91 112 -99l72 -6l-6 -47h-629l6 47l97 8q70 9 94 36.5t12 80.5l-90 395h-539l-149 -291q-29 -55 -40.5 -94.5t-9.5 -62.5t18 -37.5t34.5 -20t48.5 -8.5l62 -6l-7 -47h-499zM516 709h434l-131 585z M532 1794q65 128 125.5 188t143.5 60q40 0 82.5 -16.5t79 -39.5l73 -46t77 -39.5t77.5 -16.5q85 0 160 96l32 -18q-65 -128 -125 -188t-143 -60q-53 0 -109 24.5t-96.5 54.5t-90.5 54.5t-93 24.5q-85 0 -160 -96z" />
<glyph unicode="&#xc4;" horiz-adv-x="1538" d="M-100 0l6 47l53 6q63 8 110 50.5t111 162.5l719 1358h51l363 -1472q21 -91 112 -99l72 -6l-6 -47h-629l6 47l97 8q70 9 94 36.5t12 80.5l-90 395h-539l-149 -291q-29 -55 -40.5 -94.5t-9.5 -62.5t18 -37.5t34.5 -20t48.5 -8.5l62 -6l-7 -47h-499zM516 709h434l-131 585z M535 1864q0 58 40.5 98.5t98.5 40.5q60 0 100.5 -40t40.5 -99q0 -60 -40.5 -101t-100.5 -41q-59 0 -99 41t-40 101zM1073 1864q0 58 40.5 98.5t98.5 40.5q60 0 101 -40t41 -99q0 -60 -41 -101t-101 -41q-59 0 -99 41t-40 101z" />
<glyph unicode="&#xc5;" horiz-adv-x="1538" d="M-100 0l6 47l53 6q63 8 110 50.5t111 162.5l719 1358h51l363 -1472q21 -91 112 -99l72 -6l-6 -47h-629l6 47l97 8q70 9 94 36.5t12 80.5l-90 395h-539l-149 -291q-29 -55 -40.5 -94.5t-9.5 -62.5t18 -37.5t34.5 -20t48.5 -8.5l62 -6l-7 -47h-499zM516 709h434l-131 585z M760 1851q0 87 63.5 155.5t163.5 68.5q87 0 133.5 -52.5t46.5 -126.5q0 -85 -65.5 -154t-159.5 -69q-89 0 -135.5 52t-46.5 126zM844 1855q0 -44 24 -75t74 -31q63 0 101 44.5t38 100.5q0 44 -24 74.5t-70 30.5q-64 0 -103.5 -44t-39.5 -100z" />
<glyph unicode="&#xc6;" horiz-adv-x="2553" d="M0 0l8 47q120 10 194.5 50.5t151.5 125.5l1139 1237q-4 29 -25.5 42t-60.5 20l-88 14l8 47h1165l-57 -354h-49q7 140 -54 198t-190 64q-206 10 -413 0q-43 -254 -70 -424l-31 -193h275q133 0 189 37t87 156h49l-76 -475h-49q3 46 -0.5 78t-15 54t-26 34.5t-43 19 t-56.5 8.5t-74 2h-274l-43 -274l-45 -303q-5 -31 -6.5 -51.5t3.5 -35t11.5 -21.5t24.5 -11t34 -5t49 -1q219 0 351 6q144 7 220.5 76t110.5 199h50l-56 -367h-1243l8 47l93 14q54 8 82 29.5t36 73.5q3 25 13 84.5t25 149.5t26 159l37 238h-391l-535 -598q-34 -38 -44.5 -67 t1 -45.5t36 -25t62.5 -10.5l58 -2l-9 -47h-573zM1083 883h326l27 161l43 279z" />
<glyph unicode="&#xc7;" horiz-adv-x="1665" d="M109 723q0 161 46.5 303.5t127.5 247.5t188.5 182t232 115.5t254.5 38.5q167 0 339 -48t280 -128l-35 -306h-43q-25 102 -78.5 180t-125 124t-154 69t-174.5 23q-87 0 -174.5 -35t-168 -108t-143 -173t-100 -241.5t-37.5 -302.5q0 -285 144 -446t389 -161q372 0 575 412 h47l-76 -334q-232 -164 -538 -164q-12 0 -34 1t-32 1l-133 -145l23 12q23 12 56 23.5t56 11.5q59 0 95 -30.5t36 -86.5q0 -65 -41.5 -117t-107 -83.5t-133 -49.5t-133.5 -24l-2 43q125 16 201.5 73.5t86.5 123.5q5 37 -12.5 63.5t-67.5 26.5q-43 0 -88 -29l-43 39l138 156 q-202 27 -348.5 132t-219.5 262t-73 349z" />
<glyph unicode="&#xc8;" horiz-adv-x="1484" d="M4 0l6 47l103 14q53 8 81.5 29.5t36.5 73.5q39 260 62 393l82 487q17 101 31 194.5t19 137.5l5 43q6 53 -14.5 74t-71.5 29l-100 14l6 47h1173l-55 -354h-49q7 140 -57.5 197.5t-196.5 64.5q-192 9 -403 0q-38 -256 -99 -617h271q133 0 189 37t89 156h49l-76 -475h-49 q2 46 -1.5 78t-15.5 54t-26.5 34.5t-43 19t-56.5 8.5t-74 2h-270l-41 -274l-43 -303q-5 -31 -6.5 -51t3 -35t10.5 -22t23.5 -11.5t34 -5t48.5 -0.5q211 0 352 6q144 7 216.5 71.5t110.5 203.5h50l-54 -367h-1249zM684 2111h229l91 -417h-41z" />
<glyph unicode="&#xc9;" horiz-adv-x="1484" d="M4 0l6 47l103 14q53 8 81.5 29.5t36.5 73.5q39 260 62 393l82 487q17 101 31 194.5t19 137.5l5 43q6 53 -14.5 74t-71.5 29l-100 14l6 47h1173l-55 -354h-49q7 140 -57.5 197.5t-196.5 64.5q-192 9 -403 0q-38 -256 -99 -617h271q133 0 189 37t89 156h49l-76 -475h-49 q2 46 -1.5 78t-15.5 54t-26.5 34.5t-43 19t-56.5 8.5t-74 2h-270l-41 -274l-43 -303q-5 -31 -6.5 -51t3 -35t10.5 -22t23.5 -11.5t34 -5t48.5 -0.5q211 0 352 6q144 7 216.5 71.5t110.5 203.5h50l-54 -367h-1249zM801 1694l225 417h229l-413 -417h-41z" />
<glyph unicode="&#xca;" horiz-adv-x="1484" d="M4 0l6 47l103 14q53 8 81.5 29.5t36.5 73.5q39 260 62 393l82 487q17 101 31 194.5t19 137.5l5 43q6 53 -14.5 74t-71.5 29l-100 14l6 47h1173l-55 -354h-49q7 140 -57.5 197.5t-196.5 64.5q-192 9 -403 0q-38 -256 -99 -617h271q133 0 189 37t89 156h49l-76 -475h-49 q2 46 -1.5 78t-15.5 54t-26.5 34.5t-43 19t-56.5 8.5t-74 2h-270l-41 -274l-43 -303q-5 -31 -6.5 -51t3 -35t10.5 -22t23.5 -11.5t34 -5t48.5 -0.5q211 0 352 6q144 7 216.5 71.5t110.5 203.5h50l-54 -367h-1249zM590 1706l328 383h94l209 -381l-39 -27l-244 238l-315 -242z " />
<glyph unicode="&#xcb;" horiz-adv-x="1484" d="M4 0l6 47l103 14q53 8 81.5 29.5t36.5 73.5q39 260 62 393l82 487q17 101 31 194.5t19 137.5l5 43q6 53 -14.5 74t-71.5 29l-100 14l6 47h1173l-55 -354h-49q7 140 -57.5 197.5t-196.5 64.5q-192 9 -403 0q-38 -256 -99 -617h271q133 0 189 37t89 156h49l-76 -475h-49 q2 46 -1.5 78t-15.5 54t-26.5 34.5t-43 19t-56.5 8.5t-74 2h-270l-41 -274l-43 -303q-5 -31 -6.5 -51t3 -35t10.5 -22t23.5 -11.5t34 -5t48.5 -0.5q211 0 352 6q144 7 216.5 71.5t110.5 203.5h50l-54 -367h-1249zM514 1864q0 58 40 98.5t99 40.5q60 0 101 -40t41 -99 q0 -60 -41 -101t-101 -41q-59 0 -99 41t-40 101zM1053 1864q0 58 40.5 98.5t98.5 40.5q60 0 100.5 -40t40.5 -99q0 -60 -40.5 -101t-100.5 -41q-59 0 -99 41t-40 101z" />
<glyph unicode="&#xcc;" horiz-adv-x="884" d="M4 0l6 47l103 14q53 8 81.5 29.5t36.5 73.5q29 180 64 393l82 487q13 76 26.5 170t20.5 150l8 55q7 52 -13.5 73.5t-72.5 29.5l-100 14l6 47h633l-6 -47l-105 -14q-54 -9 -83.5 -30.5t-35.5 -72.5q-28 -189 -59 -375l-82 -487q-17 -105 -32 -203t-21 -144l-6 -46 q-7 -52 13.5 -73.5t72.5 -29.5l100 -14l-6 -47h-631zM406 2111h229l90 -417h-41z" />
<glyph unicode="&#xcd;" horiz-adv-x="884" d="M4 0l6 47l103 14q53 8 81.5 29.5t36.5 73.5q29 180 64 393l82 487q13 76 26.5 170t20.5 150l8 55q7 52 -13.5 73.5t-72.5 29.5l-100 14l6 47h633l-6 -47l-105 -14q-54 -9 -83.5 -30.5t-35.5 -72.5q-28 -189 -59 -375l-82 -487q-17 -105 -32 -203t-21 -144l-6 -46 q-7 -52 13.5 -73.5t72.5 -29.5l100 -14l-6 -47h-631zM399 1694l226 417h229l-414 -417h-41z" />
<glyph unicode="&#xce;" horiz-adv-x="884" d="M4 0l6 47l103 14q53 8 81.5 29.5t36.5 73.5q29 180 64 393l82 487q13 76 26.5 170t20.5 150l8 55q7 52 -13.5 73.5t-72.5 29.5l-100 14l6 47h633l-6 -47l-105 -14q-54 -9 -83.5 -30.5t-35.5 -72.5q-28 -189 -59 -375l-82 -487q-17 -105 -32 -203t-21 -144l-6 -46 q-7 -52 13.5 -73.5t72.5 -29.5l100 -14l-6 -47h-631zM270 1706l328 383h94l209 -381l-39 -27l-244 238l-315 -242z" />
<glyph unicode="&#xcf;" horiz-adv-x="884" d="M4 0l6 47l103 14q53 8 81.5 29.5t36.5 73.5q29 180 64 393l82 487q13 76 26.5 170t20.5 150l8 55q7 52 -13.5 73.5t-72.5 29.5l-100 14l6 47h633l-6 -47l-105 -14q-54 -9 -83.5 -30.5t-35.5 -72.5q-28 -189 -59 -375l-82 -487q-17 -105 -32 -203t-21 -144l-6 -46 q-7 -52 13.5 -73.5t72.5 -29.5l100 -14l-6 -47h-631zM227 1864q0 58 40.5 98.5t99.5 40.5q60 0 100.5 -40t40.5 -99q0 -60 -40.5 -101t-100.5 -41q-59 0 -99.5 41t-40.5 101zM684 1864q0 58 40 98.5t99 40.5q60 0 101 -40t41 -99q0 -60 -41 -101t-101 -41q-59 0 -99 41 t-40 101z" />
<glyph unicode="&#xd0;" horiz-adv-x="1830" d="M4 0l6 47l101 14q52 8 80 29.5t38 73.5q2 14 23.5 154t38.5 239l33 199h-250l16 96h248l33 192l57 375q6 52 -15 73.5t-71 29.5l-98 14l6 47q92 -1 257 1.5t234 2.5q107 0 203.5 -9t196 -31t182 -56.5t155.5 -89.5t123.5 -125t79.5 -167.5t29 -213.5q0 -168 -49 -311.5 t-138.5 -250t-212 -182t-272 -113.5t-317.5 -38h-717zM457 158q-1 -18 6.5 -36t20.5 -25t46 -13t73 -7t110 -1q75 0 149.5 13.5t150.5 44t143.5 75.5t127 113.5t102 153t67 198t24.5 244.5q0 128 -37.5 229.5t-99.5 167.5t-148.5 109.5t-179.5 62t-197 18.5q-73 0 -158 -10 l-102 -643h319l-16 -96h-317l-31 -199q-23 -169 -47 -346q-5 -35 -6 -53z" />
<glyph unicode="&#xd1;" d="M0 0l6 47q57 6 98.5 16t69 27t44.5 32.5t28 44t15.5 49t10.5 60.5l177 1110l-17 25q-85 118 -162 125l6 47h334l822 -1227l145 949q4 27 5.5 39t3.5 35t-0.5 33.5t-7 29t-14 27.5t-24.5 22t-36 20t-50 14t-65 11l6 47h561l-6 -47q-48 -5 -85.5 -14.5t-63 -19.5t-44.5 -28 t-29.5 -32t-19 -41t-11.5 -44t-9 -52l-213 -1334h-58l-887 1293l-147 -988q-10 -44 -7.5 -83.5t16.5 -69t57 -49.5t116 -27l-6 -47h-559zM696 1794q65 128 125.5 188t143.5 60q40 0 82.5 -16.5t79 -39.5l73 -46t77 -39.5t77.5 -16.5q84 0 159 96l33 -18q-65 -128 -125 -188 t-143 -60q-53 0 -109 24.5t-96.5 54.5t-90.5 54.5t-93 24.5q-85 0 -160 -96z" />
<glyph unicode="&#xd2;" d="M123 727q0 189 67 354.5t180.5 280.5t268 181.5t326.5 66.5q221 0 395.5 -95t272.5 -269t98 -398q0 -152 -43.5 -289.5t-122 -243.5t-184 -184t-234 -119t-266.5 -41q-222 0 -394.5 94t-268 266t-95.5 396zM358 651q0 -155 39 -271t110 -185.5t162.5 -103.5t202.5 -34 q129 0 242 57.5t198 164.5t134 271t49 365q0 157 -40 276t-112 190.5t-165 107t-205 35.5q-171 0 -312 -114t-222 -314.5t-81 -444.5zM848 2111h229l90 -417h-41z" />
<glyph unicode="&#xd3;" d="M123 727q0 189 67 354.5t180.5 280.5t268 181.5t326.5 66.5q221 0 395.5 -95t272.5 -269t98 -398q0 -152 -43.5 -289.5t-122 -243.5t-184 -184t-234 -119t-266.5 -41q-222 0 -394.5 94t-268 266t-95.5 396zM358 651q0 -155 39 -271t110 -185.5t162.5 -103.5t202.5 -34 q129 0 242 57.5t198 164.5t134 271t49 365q0 157 -40 276t-112 190.5t-165 107t-205 35.5q-171 0 -312 -114t-222 -314.5t-81 -444.5zM862 1694l225 417h230l-414 -417h-41z" />
<glyph unicode="&#xd4;" d="M123 727q0 189 67 354.5t180.5 280.5t268 181.5t326.5 66.5q221 0 395.5 -95t272.5 -269t98 -398q0 -152 -43.5 -289.5t-122 -243.5t-184 -184t-234 -119t-266.5 -41q-222 0 -394.5 94t-268 266t-95.5 396zM358 651q0 -155 39 -271t110 -185.5t162.5 -103.5t202.5 -34 q129 0 242 57.5t198 164.5t134 271t49 365q0 157 -40 276t-112 190.5t-165 107t-205 35.5q-171 0 -312 -114t-222 -314.5t-81 -444.5zM754 1706l327 383h95l208 -381l-38 -27l-244 238l-316 -242z" />
<glyph unicode="&#xd5;" d="M123 727q0 189 67 354.5t180.5 280.5t268 181.5t326.5 66.5q221 0 395.5 -95t272.5 -269t98 -398q0 -152 -43.5 -289.5t-122 -243.5t-184 -184t-234 -119t-266.5 -41q-222 0 -394.5 94t-268 266t-95.5 396zM358 651q0 -155 39 -271t110 -185.5t162.5 -103.5t202.5 -34 q129 0 242 57.5t198 164.5t134 271t49 365q0 157 -40 276t-112 190.5t-165 107t-205 35.5q-171 0 -312 -114t-222 -314.5t-81 -444.5zM655 1794q65 128 125.5 188t143.5 60q40 0 82.5 -16.5t79 -39.5l73 -46t77 -39.5t77.5 -16.5q85 0 160 96l32 -18q-65 -128 -125 -188 t-143 -60q-53 0 -109 24.5t-96.5 54.5t-90.5 54.5t-93 24.5q-85 0 -160 -96z" />
<glyph unicode="&#xd6;" d="M123 727q0 189 67 354.5t180.5 280.5t268 181.5t326.5 66.5q221 0 395.5 -95t272.5 -269t98 -398q0 -152 -43.5 -289.5t-122 -243.5t-184 -184t-234 -119t-266.5 -41q-222 0 -394.5 94t-268 266t-95.5 396zM358 651q0 -155 39 -271t110 -185.5t162.5 -103.5t202.5 -34 q129 0 242 57.5t198 164.5t134 271t49 365q0 157 -40 276t-112 190.5t-165 107t-205 35.5q-171 0 -312 -114t-222 -314.5t-81 -444.5zM698 1864q0 58 40.5 98.5t99.5 40.5q60 0 100.5 -40t40.5 -99q0 -60 -40.5 -101t-100.5 -41q-59 0 -99.5 41t-40.5 101zM1237 1864 q0 58 40.5 98.5t98.5 40.5q60 0 101 -40t41 -99q0 -60 -41 -101t-101 -41q-59 0 -99 41t-40 101z" />
<glyph unicode="&#xd7;" horiz-adv-x="1089" d="M47 152l426 370l-313 375l80 70l313 -377l432 375l59 -72l-432 -373l314 -373l-80 -67l-314 371l-428 -371z" />
<glyph unicode="&#xd8;" horiz-adv-x="1826" d="M109 727q0 189 66.5 354.5t180 280.5t268 181.5t326.5 66.5q275 0 477 -150l168 197h129l-223 -258q103 -101 159 -242.5t56 -308.5q0 -152 -43.5 -289.5t-122 -243.5t-184 -184t-234 -119t-266.5 -41q-278 0 -471 142l-159 -185h-125l213 248q-103 100 -159 241t-56 310 zM344 651q0 -217 78 -360l921 1073q-135 160 -385 160q-171 0 -311.5 -114t-221.5 -314.5t-81 -444.5zM477 211q137 -154 381 -154q129 0 242 57.5t198 164.5t134 271t49 365q0 223 -80 367z" />
<glyph unicode="&#xd9;" horiz-adv-x="1734" d="M190 1536l7 47h632l-6 -47l-104 -14q-55 -8 -83 -29.5t-36 -73.5l-125 -766q-15 -101 -15 -188t23.5 -157.5t66 -120.5t113.5 -77.5t166 -27.5q240 0 382 145.5t186 409.5l110 659q6 37 8 58t1 51.5t-12.5 48.5t-33 37t-59.5 29.5t-92 15.5l6 47h553l-6 -47 q-66 -6 -112.5 -21t-72.5 -34.5t-41.5 -50.5t-22 -59.5t-13.5 -71.5v-3l-111 -665q-54 -322 -228 -491t-474 -169q-321 0 -459 172t-84 500l63 381l60 395q8 52 -13.5 73.5t-72.5 29.5zM809 2111h229l90 -417h-41z" />
<glyph unicode="&#xda;" horiz-adv-x="1734" d="M190 1536l7 47h632l-6 -47l-104 -14q-55 -8 -83 -29.5t-36 -73.5l-125 -766q-15 -101 -15 -188t23.5 -157.5t66 -120.5t113.5 -77.5t166 -27.5q240 0 382 145.5t186 409.5l110 659q6 37 8 58t1 51.5t-12.5 48.5t-33 37t-59.5 29.5t-92 15.5l6 47h553l-6 -47 q-66 -6 -112.5 -21t-72.5 -34.5t-41.5 -50.5t-22 -59.5t-13.5 -71.5v-3l-111 -665q-54 -322 -228 -491t-474 -169q-321 0 -459 172t-84 500l63 381l60 395q8 52 -13.5 73.5t-72.5 29.5zM987 1694l225 417h230l-414 -417h-41z" />
<glyph unicode="&#xdb;" horiz-adv-x="1734" d="M190 1536l7 47h632l-6 -47l-104 -14q-55 -8 -83 -29.5t-36 -73.5l-125 -766q-15 -101 -15 -188t23.5 -157.5t66 -120.5t113.5 -77.5t166 -27.5q240 0 382 145.5t186 409.5l110 659q6 37 8 58t1 51.5t-12.5 48.5t-33 37t-59.5 29.5t-92 15.5l6 47h553l-6 -47 q-66 -6 -112.5 -21t-72.5 -34.5t-41.5 -50.5t-22 -59.5t-13.5 -71.5v-3l-111 -665q-54 -322 -228 -491t-474 -169q-321 0 -459 172t-84 500l63 381l60 395q8 52 -13.5 73.5t-72.5 29.5zM756 1706l327 383h95l208 -381l-38 -27l-244 238l-316 -242z" />
<glyph unicode="&#xdc;" horiz-adv-x="1734" d="M190 1536l7 47h632l-6 -47l-104 -14q-55 -8 -83 -29.5t-36 -73.5l-125 -766q-15 -101 -15 -188t23.5 -157.5t66 -120.5t113.5 -77.5t166 -27.5q240 0 382 145.5t186 409.5l110 659q6 37 8 58t1 51.5t-12.5 48.5t-33 37t-59.5 29.5t-92 15.5l6 47h553l-6 -47 q-66 -6 -112.5 -21t-72.5 -34.5t-41.5 -50.5t-22 -59.5t-13.5 -71.5v-3l-111 -665q-54 -322 -228 -491t-474 -169q-321 0 -459 172t-84 500l63 381l60 395q8 52 -13.5 73.5t-72.5 29.5zM698 1864q0 58 40.5 98.5t99.5 40.5q60 0 100.5 -40t40.5 -99q0 -60 -40.5 -101 t-100.5 -41q-59 0 -99.5 41t-40.5 101zM1237 1864q0 58 40.5 98.5t98.5 40.5q60 0 101 -40t41 -99q0 -60 -41 -101t-101 -41q-59 0 -99 41t-40 101z" />
<glyph unicode="&#xdd;" horiz-adv-x="1513" d="M113 1536l6 47h629l-7 -47l-96 -8q-139 -12 -96 -117l252 -604l391 500q41 52 61 90t23 61.5t-10.5 38.5t-34.5 22t-55 11l-60 6l6 47h510l-6 -47l-55 -6q-65 -7 -118.5 -51.5t-145.5 -161.5l-486 -608l-84 -545q-9 -55 13 -78t90 -29l114 -10l-6 -47h-694l6 47l109 10 q75 8 105.5 30t39.5 77l90 549l-311 719q-10 23 -18 35.5t-26.5 29t-52 26t-83.5 13.5zM856 1694l225 417h230l-414 -417h-41z" />
<glyph unicode="&#xde;" horiz-adv-x="1359" d="M2 0l8 47l105 14q54 8 80.5 28.5t33.5 68.5q5 34 28 170.5t38 228.5l78 487l59 383q9 44 -12.5 66.5t-73.5 30.5l-100 14l8 47h696l-8 -47l-135 -14q-76 -8 -108.5 -29t-41.5 -74q-12 -57 -24 -133q135 15 231 15q83 0 154.5 -10.5t138.5 -37.5t114.5 -68t76 -105.5 t28.5 -147.5q0 -129 -53 -238.5t-141 -182t-203 -113t-240 -40.5q-128 0 -250 43q-32 -219 -32 -264q0 -38 27.5 -55t90.5 -23l132 -14l-9 -47h-696zM500 459q76 -23 162 -23q133 0 244 59t179 174.5t68 266.5q0 81 -27.5 139.5t-77.5 90.5t-109.5 46.5t-133.5 14.5 q-95 0 -189 -33z" />
<glyph unicode="&#xdf;" horiz-adv-x="1251" d="M-471 -483q0 36 25 60t61 24q34 0 60.5 -17.5t43 -42t31.5 -49t37.5 -42t50.5 -17.5q26 0 52 11.5t57.5 43t58.5 80.5t52 132.5t40 190.5l166 1141q41 285 188 440.5t365 155.5q85 0 158.5 -21t123.5 -68t50 -112q0 -71 -41.5 -129.5t-100.5 -96.5t-117.5 -72t-100 -73 t-41.5 -83q0 -50 42.5 -98.5t124.5 -112.5l76 -57q109 -83 159 -156t50 -162q0 -97 -43 -178.5t-110.5 -131.5t-146 -78t-155.5 -28q-76 0 -144.5 16.5t-116.5 52t-48 83.5q0 45 30 75.5t73 30.5q38 0 61 -20.5t34.5 -50t24.5 -59t40.5 -50t72.5 -20.5q95 0 165.5 72 t70.5 188q0 112 -127 209l-68 51q-109 83 -157 154.5t-48 156.5q0 58 19.5 105.5t51 80.5t69.5 62.5t75.5 58.5t69 61t51 77t19.5 100q0 68 -44 108.5t-131 40.5q-251 0 -319 -467l-154 -1058q-19 -129 -52 -233.5t-75.5 -174t-89.5 -119.5t-99.5 -76.5t-99 -38.5t-94.5 -12 q-66 0 -126.5 14.5t-105 48t-44.5 79.5z" />
<glyph unicode="&#xe0;" horiz-adv-x="1163" d="M59 295q0 146 56.5 282.5t144 230.5t195 150t209.5 56q97 0 170 -58l12 74h190l-131 -799q-15 -72 -13.5 -108.5t30.5 -36.5q52 0 159 133l41 -33q-73 -106 -137 -160.5t-141 -54.5q-78 0 -114.5 51.5t-27.5 143.5q-153 -195 -346 -195q-78 0 -138 30t-93 79t-49.5 103.5 t-16.5 111.5zM279 365q0 -283 170 -283q138 0 266 166l90 543q-29 141 -150 141q-74 0 -138.5 -42.5t-106.5 -107t-73 -142.5t-44.5 -149t-13.5 -126zM442 1583h230l90 -418h-41z" />
<glyph unicode="&#xe1;" horiz-adv-x="1163" d="M59 295q0 146 56.5 282.5t144 230.5t195 150t209.5 56q97 0 170 -58l12 74h190l-131 -799q-15 -72 -13.5 -108.5t30.5 -36.5q52 0 159 133l41 -33q-73 -106 -137 -160.5t-141 -54.5q-78 0 -114.5 51.5t-27.5 143.5q-153 -195 -346 -195q-78 0 -138 30t-93 79t-49.5 103.5 t-16.5 111.5zM279 365q0 -283 170 -283q138 0 266 166l90 543q-29 141 -150 141q-74 0 -138.5 -42.5t-106.5 -107t-73 -142.5t-44.5 -149t-13.5 -126zM600 1165l225 418h230l-414 -418h-41z" />
<glyph unicode="&#xe2;" horiz-adv-x="1163" d="M59 295q0 146 56.5 282.5t144 230.5t195 150t209.5 56q97 0 170 -58l12 74h190l-131 -799q-15 -72 -13.5 -108.5t30.5 -36.5q52 0 159 133l41 -33q-73 -106 -137 -160.5t-141 -54.5q-78 0 -114.5 51.5t-27.5 143.5q-153 -195 -346 -195q-78 0 -138 30t-93 79t-49.5 103.5 t-16.5 111.5zM279 365q0 -283 170 -283q138 0 266 166l90 543q-29 141 -150 141q-74 0 -138.5 -42.5t-106.5 -107t-73 -142.5t-44.5 -149t-13.5 -126zM389 1178l328 383h94l209 -381l-39 -27l-244 238l-315 -242z" />
<glyph unicode="&#xe3;" horiz-adv-x="1163" d="M59 295q0 146 56.5 282.5t144 230.5t195 150t209.5 56q97 0 170 -58l12 74h190l-131 -799q-15 -72 -13.5 -108.5t30.5 -36.5q52 0 159 133l41 -33q-73 -106 -137 -160.5t-141 -54.5q-78 0 -114.5 51.5t-27.5 143.5q-153 -195 -346 -195q-78 0 -138 30t-93 79t-49.5 103.5 t-16.5 111.5zM279 365q0 -283 170 -283q138 0 266 166l90 543q-29 141 -150 141q-74 0 -138.5 -42.5t-106.5 -107t-73 -142.5t-44.5 -149t-13.5 -126zM344 1286q62 123 120.5 175t143.5 52q40 0 78 -16t69 -39.5t61 -46.5t66.5 -39t73.5 -16q84 0 162 96l31 -18 q-62 -123 -120.5 -175.5t-143.5 -52.5q-44 0 -84 16.5t-70.5 39.5t-60 46t-64 39.5t-69.5 16.5q-84 0 -162 -96z" />
<glyph unicode="&#xe4;" horiz-adv-x="1163" d="M59 295q0 146 56.5 282.5t144 230.5t195 150t209.5 56q97 0 170 -58l12 74h190l-131 -799q-15 -72 -13.5 -108.5t30.5 -36.5q52 0 159 133l41 -33q-73 -106 -137 -160.5t-141 -54.5q-78 0 -114.5 51.5t-27.5 143.5q-153 -195 -346 -195q-78 0 -138 30t-93 79t-49.5 103.5 t-16.5 111.5zM279 365q0 -283 170 -283q138 0 266 166l90 543q-29 141 -150 141q-74 0 -138.5 -42.5t-106.5 -107t-73 -142.5t-44.5 -149t-13.5 -126zM408 1376q0 59 40.5 99.5t98.5 40.5q60 0 100.5 -40.5t40.5 -99.5q0 -60 -40.5 -100.5t-100.5 -40.5q-59 0 -99 40.5 t-40 100.5zM844 1376q0 59 40.5 99.5t98.5 40.5q60 0 100.5 -40.5t40.5 -99.5q0 -60 -40.5 -100.5t-100.5 -40.5q-59 0 -99 40.5t-40 100.5z" />
<glyph unicode="&#xe5;" horiz-adv-x="1163" d="M59 295q0 146 56.5 282.5t144 230.5t195 150t209.5 56q97 0 170 -58l12 74h190l-131 -799q-15 -72 -13.5 -108.5t30.5 -36.5q52 0 159 133l41 -33q-73 -106 -137 -160.5t-141 -54.5q-78 0 -114.5 51.5t-27.5 143.5q-153 -195 -346 -195q-78 0 -138 30t-93 79t-49.5 103.5 t-16.5 111.5zM279 365q0 -283 170 -283q138 0 266 166l90 543q-29 141 -150 141q-74 0 -138.5 -42.5t-106.5 -107t-73 -142.5t-44.5 -149t-13.5 -126zM582 1323q0 87 63.5 155t163.5 68q87 0 133.5 -52t46.5 -126q0 -85 -65.5 -154t-159.5 -69q-89 0 -135.5 52t-46.5 126z M666 1327q0 -44 24 -75t74 -31q63 0 101 44.5t38 100.5q0 44 -24 74t-70 30q-64 0 -103.5 -43.5t-39.5 -99.5z" />
<glyph unicode="&#xe6;" horiz-adv-x="1554" d="M59 295q0 146 56.5 282.5t144 230.5t195 150t209.5 56q97 0 170 -58l12 74h190l-18 -112q138 112 276 112q114 0 166.5 -49t52.5 -107q0 -39 -10 -74.5t-32 -65.5t-46.5 -54.5t-64 -48.5t-72 -42t-84 -39t-87.5 -35t-93.5 -35.5t-91.5 -35.5q-4 -27 -4 -77 q0 -133 50 -208t124 -75q72 0 156.5 66t152.5 174l45 -27q-108 -181 -211.5 -253.5t-240.5 -72.5q-99 0 -171.5 61t-93.5 177q-98 -138 -189.5 -188t-193.5 -50q-78 0 -138 30t-93 79t-49.5 103.5t-16.5 111.5zM279 365q0 -283 170 -283q145 0 284 186q0 64 12 156.5 t60 368.5q-29 139 -150 139q-74 0 -138.5 -42.5t-106.5 -107t-73 -142.5t-44.5 -149t-13.5 -126zM938 500q75 31 139 65.5t126 79.5t98 98.5t36 108.5q0 111 -120 111q-51 0 -109 -66.5t-104.5 -174.5t-65.5 -222z" />
<glyph unicode="&#xe7;" horiz-adv-x="892" d="M74 295q0 100 26 204t77 198.5t119 169t158.5 119t188.5 44.5q54 0 109 -14.5t98 -49t43 -81.5q0 -43 -24.5 -67.5t-59.5 -24.5q-38 0 -61.5 17.5t-35 42.5t-23.5 50t-36 42.5t-63 17.5q-78 0 -150 -94.5t-112.5 -232t-40.5 -269.5q0 -133 43.5 -209t122.5 -76 q67 0 152.5 68t146.5 174l45 -25q-175 -328 -424 -328h-8l-132 -143l9 5q10 5 24.5 12t32 13.5t36.5 11.5t34 5q59 0 95 -30.5t36 -86.5q0 -64 -41.5 -116.5t-107.5 -84t-133.5 -49.5t-133.5 -24l-2 43q125 16 202 73.5t87 123.5q5 37 -12.5 63.5t-67.5 26.5q-43 0 -88 -29 l-43 39l137 156q-99 19 -161 94.5t-62 220.5z" />
<glyph unicode="&#xe8;" horiz-adv-x="903" d="M74 295q0 143 49 279t127.5 235.5t182.5 160t210 60.5q114 0 166.5 -49t52.5 -107q0 -39 -10 -74.5t-32 -65.5t-45.5 -54.5t-63 -48.5t-71.5 -42t-83.5 -39.5t-86.5 -35t-93 -35.5t-92 -35q-4 -27 -4 -77q0 -133 48 -208t122 -75q71 0 154 66t151 174l45 -27 q-108 -182 -210 -254t-239 -72q-124 0 -201 83.5t-77 240.5zM291 500q74 31 137.5 65.5t123.5 79.5t95 98.5t35 108.5q0 62 -30.5 86.5t-73.5 24.5q-64 0 -129 -78q-54 -66 -96.5 -169.5t-61.5 -215.5zM352 1583h230l90 -418h-41z" />
<glyph unicode="&#xe9;" horiz-adv-x="903" d="M74 295q0 143 49 279t127.5 235.5t182.5 160t210 60.5q114 0 166.5 -49t52.5 -107q0 -39 -10 -74.5t-32 -65.5t-45.5 -54.5t-63 -48.5t-71.5 -42t-83.5 -39.5t-86.5 -35t-93 -35.5t-92 -35q-4 -27 -4 -77q0 -133 48 -208t122 -75q71 0 154 66t151 174l45 -27 q-108 -182 -210 -254t-239 -72q-124 0 -201 83.5t-77 240.5zM291 500q74 31 137.5 65.5t123.5 79.5t95 98.5t35 108.5q0 62 -30.5 86.5t-73.5 24.5q-64 0 -129 -78q-54 -66 -96.5 -169.5t-61.5 -215.5zM510 1165l225 418h230l-414 -418h-41z" />
<glyph unicode="&#xea;" horiz-adv-x="903" d="M74 295q0 143 49 279t127.5 235.5t182.5 160t210 60.5q114 0 166.5 -49t52.5 -107q0 -39 -10 -74.5t-32 -65.5t-45.5 -54.5t-63 -48.5t-71.5 -42t-83.5 -39.5t-86.5 -35t-93 -35.5t-92 -35q-4 -27 -4 -77q0 -133 48 -208t122 -75q71 0 154 66t151 174l45 -27 q-108 -182 -210 -254t-239 -72q-124 0 -201 83.5t-77 240.5zM291 500q74 31 137.5 65.5t123.5 79.5t95 98.5t35 108.5q0 62 -30.5 86.5t-73.5 24.5q-64 0 -129 -78q-54 -66 -96.5 -169.5t-61.5 -215.5zM299 1178l328 383h94l209 -381l-39 -27l-244 238l-315 -242z" />
<glyph unicode="&#xeb;" horiz-adv-x="903" d="M74 295q0 143 49 279t127.5 235.5t182.5 160t210 60.5q114 0 166.5 -49t52.5 -107q0 -39 -10 -74.5t-32 -65.5t-45.5 -54.5t-63 -48.5t-71.5 -42t-83.5 -39.5t-86.5 -35t-93 -35.5t-92 -35q-4 -27 -4 -77q0 -133 48 -208t122 -75q71 0 154 66t151 174l45 -27 q-108 -182 -210 -254t-239 -72q-124 0 -201 83.5t-77 240.5zM291 500q74 31 137.5 65.5t123.5 79.5t95 98.5t35 108.5q0 62 -30.5 86.5t-73.5 24.5q-64 0 -129 -78q-54 -66 -96.5 -169.5t-61.5 -215.5zM297 1376q0 59 40.5 99.5t98.5 40.5q60 0 101 -40.5t41 -99.5 q0 -60 -41 -100.5t-101 -40.5q-59 0 -99 40.5t-40 100.5zM733 1376q0 59 40.5 99.5t98.5 40.5q60 0 101 -40.5t41 -99.5q0 -60 -41 -100.5t-101 -40.5q-59 0 -99 40.5t-40 100.5z" />
<glyph unicode="&#xec;" horiz-adv-x="645" d="M35 852q91 99 175.5 138.5t143.5 39.5q34 0 57 -7.5t36.5 -25t20 -40t5.5 -58t-6 -73t-16 -91.5l-101 -504q-15 -72 -12 -108.5t29 -36.5q52 0 159 133l41 -33q-73 -106 -137 -160.5t-141 -54.5q-88 0 -126.5 63t-15.5 181l109 557q16 72 13.5 109t-31.5 37 q-59 0 -166 -107zM203 1583h229l90 -418h-41z" />
<glyph unicode="&#xed;" horiz-adv-x="645" d="M35 852q91 99 175.5 138.5t143.5 39.5q34 0 57 -7.5t36.5 -25t20 -40t5.5 -58t-6 -73t-16 -91.5l-101 -504q-15 -72 -12 -108.5t29 -36.5q52 0 159 133l41 -33q-73 -106 -137 -160.5t-141 -54.5q-88 0 -126.5 63t-15.5 181l109 557q16 72 13.5 109t-31.5 37 q-59 0 -166 -107zM197 1165l225 418h229l-413 -418h-41z" />
<glyph unicode="&#xee;" horiz-adv-x="645" d="M35 852q91 99 175.5 138.5t143.5 39.5q34 0 57 -7.5t36.5 -25t20 -40t5.5 -58t-6 -73t-16 -91.5l-101 -504q-15 -72 -12 -108.5t29 -36.5q52 0 159 133l41 -33q-73 -106 -137 -160.5t-141 -54.5q-88 0 -126.5 63t-15.5 181l109 557q16 72 13.5 109t-31.5 37 q-59 0 -166 -107zM47 1178l328 383h94l209 -381l-39 -27l-244 238l-315 -242z" />
<glyph unicode="&#xef;" horiz-adv-x="645" d="M35 852q91 99 175.5 138.5t143.5 39.5q34 0 57 -7.5t36.5 -25t20 -40t5.5 -58t-6 -73t-16 -91.5l-101 -504q-15 -72 -12 -108.5t29 -36.5q52 0 159 133l41 -33q-73 -106 -137 -160.5t-141 -54.5q-88 0 -126.5 63t-15.5 181l109 557q16 72 13.5 109t-31.5 37 q-59 0 -166 -107zM43 1376q0 59 40.5 99.5t98.5 40.5q60 0 101 -40.5t41 -99.5q0 -60 -41 -100.5t-101 -40.5q-59 0 -99 40.5t-40 100.5zM479 1376q0 59 40.5 99.5t98.5 40.5q60 0 101 -40.5t41 -99.5q0 -60 -41 -100.5t-101 -40.5q-59 0 -99 40.5t-40 100.5z" />
<glyph unicode="&#xf0;" horiz-adv-x="1273" d="M39 459q0 121 36 220t93 163t131 107.5t146 62t141 18.5q75 0 136.5 -23.5t100.5 -61t63 -75t36 -75.5q-22 337 -217 567l-318 -236l-53 88l299 222q-128 122 -326 213l39 63q199 -63 381 -207l299 224l53 -89l-274 -202q155 -146 245.5 -330.5t90.5 -390.5 q0 -152 -45 -288t-125.5 -237.5t-199 -161t-257.5 -59.5q-140 0 -250 67.5t-167.5 178t-57.5 242.5zM250 432q0 -169 76 -278t204 -109q108 0 198.5 75.5t140 195.5t49.5 253q0 99 -33.5 184t-102.5 139t-159 54q-109 0 -195.5 -72t-132 -188.5t-45.5 -253.5z" />
<glyph unicode="&#xf1;" horiz-adv-x="1218" d="M35 852q49 55 99.5 93t93 55t72 23.5t54.5 6.5q40 0 65 -13t37.5 -35.5t14 -63t-3 -83t-16.5 -108.5q65 140 170 221.5t215 81.5q54 0 93 -15t61.5 -45.5t34.5 -69.5t12.5 -94t-5 -110t-18.5 -127l-60 -338q-15 -72 -13.5 -108.5t30.5 -36.5q52 0 159 133l41 -33 q-74 -107 -136.5 -161t-139.5 -54q-88 0 -127 63t-18 181l63 358q34 170 17.5 251t-97.5 81q-71 0 -152.5 -75.5t-142.5 -200.5l-100 -629h-199l117 772q14 72 12 109t-30 37q-59 0 -166 -107zM330 1286q62 123 120.5 175t143.5 52q40 0 78 -16t69 -39.5t61 -46.5t66.5 -39 t73.5 -16q84 0 162 96l31 -18q-62 -123 -121 -175.5t-144 -52.5q-44 0 -84 16.5t-70.5 39.5t-60 46t-64 39.5t-69.5 16.5q-84 0 -162 -96z" />
<glyph unicode="&#xf2;" horiz-adv-x="1079" d="M66 295q0 146 60.5 285t152 235.5t199 155.5t202.5 59q73 0 131.5 -20t95.5 -52.5t62 -75.5t35 -86.5t10 -88.5q0 -117 -39.5 -231.5t-104.5 -203.5t-145 -158t-165.5 -106t-160.5 -37q-91 0 -158.5 30t-104 79t-53.5 103t-17 112zM285 365q0 -71 6.5 -123.5t22 -95.5 t44.5 -65t72 -22q79 0 144.5 43.5t105 109.5t67 147t38 151t10.5 127q0 147 -33 226t-115 79q-79 0 -144 -43.5t-104.5 -109t-66 -146.5t-37 -150.5t-10.5 -127.5zM420 1583h229l90 -418h-41z" />
<glyph unicode="&#xf3;" horiz-adv-x="1079" d="M66 295q0 146 60.5 285t152 235.5t199 155.5t202.5 59q73 0 131.5 -20t95.5 -52.5t62 -75.5t35 -86.5t10 -88.5q0 -117 -39.5 -231.5t-104.5 -203.5t-145 -158t-165.5 -106t-160.5 -37q-91 0 -158.5 30t-104 79t-53.5 103t-17 112zM285 365q0 -71 6.5 -123.5t22 -95.5 t44.5 -65t72 -22q79 0 144.5 43.5t105 109.5t67 147t38 151t10.5 127q0 147 -33 226t-115 79q-79 0 -144 -43.5t-104.5 -109t-66 -146.5t-37 -150.5t-10.5 -127.5zM578 1165l225 418h229l-414 -418h-40z" />
<glyph unicode="&#xf4;" horiz-adv-x="1079" d="M66 295q0 146 60.5 285t152 235.5t199 155.5t202.5 59q73 0 131.5 -20t95.5 -52.5t62 -75.5t35 -86.5t10 -88.5q0 -117 -39.5 -231.5t-104.5 -203.5t-145 -158t-165.5 -106t-160.5 -37q-91 0 -158.5 30t-104 79t-53.5 103t-17 112zM285 365q0 -71 6.5 -123.5t22 -95.5 t44.5 -65t72 -22q79 0 144.5 43.5t105 109.5t67 147t38 151t10.5 127q0 147 -33 226t-115 79q-79 0 -144 -43.5t-104.5 -109t-66 -146.5t-37 -150.5t-10.5 -127.5zM399 1178l328 383h94l209 -381l-39 -27l-243 238l-316 -242z" />
<glyph unicode="&#xf5;" horiz-adv-x="1079" d="M66 295q0 146 60.5 285t152 235.5t199 155.5t202.5 59q73 0 131.5 -20t95.5 -52.5t62 -75.5t35 -86.5t10 -88.5q0 -117 -39.5 -231.5t-104.5 -203.5t-145 -158t-165.5 -106t-160.5 -37q-91 0 -158.5 30t-104 79t-53.5 103t-17 112zM285 365q0 -71 6.5 -123.5t22 -95.5 t44.5 -65t72 -22q79 0 144.5 43.5t105 109.5t67 147t38 151t10.5 127q0 147 -33 226t-115 79q-79 0 -144 -43.5t-104.5 -109t-66 -146.5t-37 -150.5t-10.5 -127.5zM346 1286q62 123 120.5 175t143.5 52q40 0 78 -16t69 -39.5t61 -46.5t66.5 -39t73.5 -16q84 0 162 96l31 -18 q-62 -123 -120.5 -175.5t-143.5 -52.5q-44 0 -84 16.5t-70.5 39.5t-60 46t-64 39.5t-69.5 16.5q-84 0 -162 -96z" />
<glyph unicode="&#xf6;" horiz-adv-x="1079" d="M66 295q0 146 60.5 285t152 235.5t199 155.5t202.5 59q73 0 131.5 -20t95.5 -52.5t62 -75.5t35 -86.5t10 -88.5q0 -117 -39.5 -231.5t-104.5 -203.5t-145 -158t-165.5 -106t-160.5 -37q-91 0 -158.5 30t-104 79t-53.5 103t-17 112zM285 365q0 -71 6.5 -123.5t22 -95.5 t44.5 -65t72 -22q79 0 144.5 43.5t105 109.5t67 147t38 151t10.5 127q0 147 -33 226t-115 79q-79 0 -144 -43.5t-104.5 -109t-66 -146.5t-37 -150.5t-10.5 -127.5zM385 1376q0 59 40.5 99.5t98.5 40.5q60 0 101 -40.5t41 -99.5q0 -60 -41 -100.5t-101 -40.5q-59 0 -99 40.5 t-40 100.5zM821 1376q0 58 40.5 99t99.5 41q60 0 100.5 -40.5t40.5 -99.5q0 -60 -40.5 -100.5t-100.5 -40.5q-59 0 -99.5 40.5t-40.5 100.5z" />
<glyph unicode="&#xf7;" horiz-adv-x="1134" d="M94 471l15 96h929l-14 -96h-930zM342 176q0 63 45.5 108.5t108.5 45.5q67 0 113 -45t46 -109q0 -68 -46 -114t-113 -46q-63 0 -108.5 46.5t-45.5 113.5zM444 877q0 63 45.5 108t108.5 45q67 0 113.5 -45t46.5 -108q0 -67 -46 -113.5t-114 -46.5q-63 0 -108.5 46.5 t-45.5 113.5z" />
<glyph unicode="&#xf8;" horiz-adv-x="1083" d="M66 295q0 146 60.5 285t152 235.5t199 155.5t202.5 59q112 0 188 -47l86 123h119l-131 -186q72 -86 72 -213q0 -117 -39.5 -231.5t-104.5 -203.5t-145 -158t-165.5 -106t-160.5 -37q-52 0 -114 15l-82 -117h-115l109 156q-67 44 -99 117t-32 153zM285 365q0 -126 18 -189 l467 666q-37 100 -123 100q-79 0 -144 -43.5t-104.5 -109t-66 -146.5t-37 -150.5t-10.5 -127.5zM354 84q28 -25 76 -25q79 0 144.5 43.5t105 109.5t67 147t38 151t10.5 127q0 13 -1 36t-1 34z" />
<glyph unicode="&#xf9;" horiz-adv-x="1241" d="M35 852q91 99 176 138.5t143 39.5q40 0 65.5 -12.5t38.5 -33.5t15.5 -60t-2.5 -81.5t-16 -107.5l-56 -307q-34 -170 -17.5 -251t97.5 -81q71 0 152.5 76t142.5 201l96 600h199l-119 -744q-13 -72 -9 -108.5t32 -36.5q53 0 160 133l41 -33q-73 -106 -137.5 -160.5 t-141.5 -54.5q-182 0 -133 305q-65 -140 -170 -221.5t-215 -81.5q-65 0 -108 23.5t-65 62.5t-28 99.5t-0.5 125.5t21.5 150l63 340q15 72 11 109t-33 37q-59 0 -166 -107zM418 1583h229l90 -418h-41z" />
<glyph unicode="&#xfa;" horiz-adv-x="1241" d="M35 852q91 99 176 138.5t143 39.5q40 0 65.5 -12.5t38.5 -33.5t15.5 -60t-2.5 -81.5t-16 -107.5l-56 -307q-34 -170 -17.5 -251t97.5 -81q71 0 152.5 76t142.5 201l96 600h199l-119 -744q-13 -72 -9 -108.5t32 -36.5q53 0 160 133l41 -33q-73 -106 -137.5 -160.5 t-141.5 -54.5q-182 0 -133 305q-65 -140 -170 -221.5t-215 -81.5q-65 0 -108 23.5t-65 62.5t-28 99.5t-0.5 125.5t21.5 150l63 340q15 72 11 109t-33 37q-59 0 -166 -107zM596 1165l225 418h230l-414 -418h-41z" />
<glyph unicode="&#xfb;" horiz-adv-x="1241" d="M35 852q91 99 176 138.5t143 39.5q40 0 65.5 -12.5t38.5 -33.5t15.5 -60t-2.5 -81.5t-16 -107.5l-56 -307q-34 -170 -17.5 -251t97.5 -81q71 0 152.5 76t142.5 201l96 600h199l-119 -744q-13 -72 -9 -108.5t32 -36.5q53 0 160 133l41 -33q-73 -106 -137.5 -160.5 t-141.5 -54.5q-182 0 -133 305q-65 -140 -170 -221.5t-215 -81.5q-65 0 -108 23.5t-65 62.5t-28 99.5t-0.5 125.5t21.5 150l63 340q15 72 11 109t-33 37q-59 0 -166 -107zM389 1178l328 383h94l209 -381l-39 -27l-244 238l-315 -242z" />
<glyph unicode="&#xfc;" horiz-adv-x="1241" d="M35 852q91 99 176 138.5t143 39.5q40 0 65.5 -12.5t38.5 -33.5t15.5 -60t-2.5 -81.5t-16 -107.5l-56 -307q-34 -170 -17.5 -251t97.5 -81q71 0 152.5 76t142.5 201l96 600h199l-119 -744q-13 -72 -9 -108.5t32 -36.5q53 0 160 133l41 -33q-73 -106 -137.5 -160.5 t-141.5 -54.5q-182 0 -133 305q-65 -140 -170 -221.5t-215 -81.5q-65 0 -108 23.5t-65 62.5t-28 99.5t-0.5 125.5t21.5 150l63 340q15 72 11 109t-33 37q-59 0 -166 -107zM360 1376q0 58 41 99t99 41q60 0 100.5 -40.5t40.5 -99.5q0 -60 -40.5 -100.5t-100.5 -40.5 q-59 0 -99.5 40.5t-40.5 100.5zM797 1376q0 59 40.5 99.5t98.5 40.5q60 0 100.5 -40.5t40.5 -99.5q0 -60 -40.5 -100.5t-100.5 -40.5q-59 0 -99 40.5t-40 100.5z" />
<glyph unicode="&#xfd;" horiz-adv-x="1077" d="M-512 -489q0 38 25.5 68t74.5 30q34 0 56 -14t32.5 -34.5t19 -40.5t24 -34t40.5 -14q65 0 238.5 115t351.5 282q19 90 21.5 225t-12 274.5t-39.5 262t-65 200.5t-85 78q-56 0 -111 -135l-39 23q17 48 38 86t40 62t43 41.5t41 25.5t40 12.5t34 5t29 0.5q69 0 123 -60 t85.5 -159.5t48.5 -224.5t16 -258t-17 -258q237 277 303 528q15 65 12 105.5t-19 75t-34 56t-32.5 51t-14.5 58.5q0 33 25 59.5t67 26.5q72 0 109.5 -59t37.5 -150q0 -199 -129.5 -433.5t-337.5 -455.5q-250 -265 -467.5 -409t-355.5 -144q-101 0 -159 36t-58 96zM537 1165 l225 418h229l-413 -418h-41z" />
<glyph unicode="&#xfe;" horiz-adv-x="1243" d="M-98 -600l8 47l88 14q54 9 76.5 26.5t27.5 47.5l285 1921q6 39 -5.5 58t-47.5 26l-107 23l6 47l377 28l-131 -880q44 81 96.5 138.5t103.5 85t94 39t85 11.5q78 0 138.5 -30t94 -78.5t50 -103t16.5 -111.5q0 -178 -78 -338t-198 -267q-122 -107 -256.5 -128.5 t-251.5 57.5l-72 -496q-6 -39 5.5 -55.5t55.5 -20.5l136 -14l-11 -47h-585zM397 199q26 -73 78.5 -110.5t122.5 -37.5q68 0 128 44.5t99.5 112.5t68 149t41.5 154t13 128q0 134 -47.5 208.5t-134.5 74.5q-63 0 -141 -59t-158 -197z" />
<glyph unicode="&#xff;" horiz-adv-x="1077" d="M-512 -489q0 38 25.5 68t74.5 30q34 0 56 -14t32.5 -34.5t19 -40.5t24 -34t40.5 -14q65 0 238.5 115t351.5 282q19 90 21.5 225t-12 274.5t-39.5 262t-65 200.5t-85 78q-56 0 -111 -135l-39 23q17 48 38 86t40 62t43 41.5t41 25.5t40 12.5t34 5t29 0.5q69 0 123 -60 t85.5 -159.5t48.5 -224.5t16 -258t-17 -258q237 277 303 528q15 65 12 105.5t-19 75t-34 56t-32.5 51t-14.5 58.5q0 33 25 59.5t67 26.5q72 0 109.5 -59t37.5 -150q0 -199 -129.5 -433.5t-337.5 -455.5q-250 -265 -467.5 -409t-355.5 -144q-101 0 -159 36t-58 96zM324 1376 q0 59 40.5 99.5t98.5 40.5q60 0 100.5 -40.5t40.5 -99.5q0 -60 -40.5 -100.5t-100.5 -40.5q-59 0 -99 40.5t-40 100.5zM760 1376q0 59 40.5 99.5t98.5 40.5q60 0 100.5 -40.5t40.5 -99.5q0 -60 -40.5 -100.5t-100.5 -40.5q-59 0 -99 40.5t-40 100.5z" />
<glyph unicode="&#x152;" horiz-adv-x="2613" d="M109 727q0 189 66.5 354.5t180 280.5t268 181.5t326.5 66.5q208 0 358.5 -87t231.5 -245l45 305h967l-55 -354h-50q7 140 -57.5 197.5t-196.5 64.5q-192 9 -403 0q-37 -256 -98 -617h270q133 0 189.5 37t89.5 156h49l-76 -475h-49q2 46 -1.5 78t-15.5 54t-26.5 34.5 t-43 19t-56.5 8.5t-74 2h-271l-41 -274l-43 -303q-5 -31 -6.5 -51t3 -35t10.5 -22t23.5 -11.5t34 -5t48.5 -0.5q211 0 352 6q144 7 217 71.5t111 203.5h49l-53 -367h-1049q11 78 25 166q-205 -195 -492 -195q-222 0 -394.5 94t-267.5 266t-95 396zM344 651q0 -155 39 -271 t110 -185.5t162.5 -103.5t202.5 -34q129 0 242 57.5t198 164.5t134 271t49 365q0 157 -40.5 276t-112.5 190.5t-165 107t-205 35.5q-171 0 -311.5 -114t-221.5 -314.5t-81 -444.5z" />
<glyph unicode="&#x153;" horiz-adv-x="1587" d="M66 295q0 146 60.5 285t152 235.5t199 155.5t202.5 59q122 0 190.5 -59t83.5 -152q73 96 173 151.5t200 55.5q114 0 166.5 -49t52.5 -107q0 -39 -10 -74.5t-32 -65.5t-45.5 -54.5t-63 -48.5t-71.5 -42t-83.5 -39.5t-86.5 -35t-93 -35.5t-92 -35q-4 -27 -4 -78 q0 -133 48 -207.5t122 -74.5q71 0 154 65.5t151 173.5l45 -26q-108 -182 -210 -254t-239 -72q-200 0 -241 230q-87 -109 -193 -167.5t-203 -58.5q-91 0 -158.5 30t-104 79t-53.5 103t-17 112zM285 365q0 -71 6.5 -123.5t22 -95.5t44.5 -65t72 -22q79 0 144.5 43.5t105 109.5 t67 147t38 151t10.5 127q0 147 -33 226t-115 79q-79 0 -144 -43.5t-104.5 -109t-66 -146.5t-37 -150.5t-10.5 -127.5zM975 496q74 31 138 65.5t125 79.5t96.5 98.5t35.5 108.5q0 110 -121 110q-77 0 -160.5 -142.5t-113.5 -319.5z" />
<glyph unicode="&#x178;" horiz-adv-x="1513" d="M113 1536l6 47h629l-7 -47l-96 -8q-139 -12 -96 -117l252 -604l391 500q41 52 61 90t23 61.5t-10.5 38.5t-34.5 22t-55 11l-60 6l6 47h510l-6 -47l-55 -6q-65 -7 -118.5 -51.5t-145.5 -161.5l-486 -608l-84 -545q-9 -55 13 -78t90 -29l114 -10l-6 -47h-694l6 47l109 10 q75 8 105.5 30t39.5 77l90 549l-311 719q-10 23 -18 35.5t-26.5 29t-52 26t-83.5 13.5zM535 1864q0 58 40.5 98.5t98.5 40.5q60 0 100.5 -40t40.5 -99q0 -60 -40.5 -101t-100.5 -41q-59 0 -99 41t-40 101zM1073 1864q0 58 40.5 98.5t98.5 40.5q60 0 101 -40t41 -99 q0 -60 -41 -101t-101 -41q-59 0 -99 41t-40 101z" />
<glyph unicode="&#x2c6;" horiz-adv-x="700" d="M0 1178l328 383h94l209 -381l-39 -27l-244 238l-315 -242z" />
<glyph unicode="&#x2dc;" horiz-adv-x="968" d="M70 1286q62 123 120.5 175t143.5 52q40 0 78 -16t69 -39.5t61 -46.5t66.5 -39t73.5 -16q84 0 162 96l30 -18q-62 -123 -120.5 -175.5t-143.5 -52.5q-44 0 -84 16.5t-70.5 39.5t-60 46t-64 39.5t-69.5 16.5q-84 0 -162 -96z" />
<glyph unicode="&#x2000;" horiz-adv-x="1055" />
<glyph unicode="&#x2001;" horiz-adv-x="2111" />
<glyph unicode="&#x2002;" horiz-adv-x="1055" />
<glyph unicode="&#x2003;" horiz-adv-x="2111" />
<glyph unicode="&#x2004;" horiz-adv-x="703" />
<glyph unicode="&#x2005;" horiz-adv-x="527" />
<glyph unicode="&#x2006;" horiz-adv-x="351" />
<glyph unicode="&#x2007;" horiz-adv-x="351" />
<glyph unicode="&#x2008;" horiz-adv-x="263" />
<glyph unicode="&#x2009;" horiz-adv-x="422" />
<glyph unicode="&#x200a;" horiz-adv-x="117" />
<glyph unicode="&#x2010;" horiz-adv-x="806" d="M94 471l15 96h602l-15 -96h-602z" />
<glyph unicode="&#x2011;" horiz-adv-x="806" d="M94 471l15 96h602l-15 -96h-602z" />
<glyph unicode="&#x2012;" horiz-adv-x="806" d="M94 471l15 96h602l-15 -96h-602z" />
<glyph unicode="&#x2013;" horiz-adv-x="1052" d="M94 471l15 96h847l-14 -96h-848z" />
<glyph unicode="&#x2014;" horiz-adv-x="1558" d="M94 469l15 98h1353l-14 -98h-1354z" />
<glyph unicode="&#x2018;" horiz-adv-x="409" d="M20 1200q0 65 30 127.5t78.5 111t104 85t113.5 59.5l23 -45q-34 -20 -58 -36t-56 -42t-49.5 -54.5t-17.5 -55.5q0 -18 19 -37t42.5 -35t42.5 -47.5t19 -71.5q0 -53 -42 -90t-99 -37q-72 0 -111 48t-39 120z" />
<glyph unicode="&#x2019;" horiz-adv-x="458" d="M90 1075q180 106 180 189q0 15 -12.5 29.5t-31 28t-36.5 30t-30.5 43t-12.5 59.5q0 53 42.5 90t99.5 37q72 0 110.5 -48t38.5 -120q0 -65 -29.5 -127.5t-78 -111t-104 -85t-113.5 -59.5z" />
<glyph unicode="&#x201a;" horiz-adv-x="526" d="M90 -221q180 106 180 188q0 18 -19 37t-42.5 35t-42.5 47.5t-19 71.5q0 53 42.5 90t99.5 37q72 0 110.5 -48t38.5 -120q0 -65 -29.5 -127.5t-78 -111t-104 -85t-113.5 -59.5z" />
<glyph unicode="&#x201c;" horiz-adv-x="772" d="M20 1200q0 65 30 127.5t78.5 111t104 85t113.5 59.5l23 -45q-34 -20 -58 -36t-56 -42t-49.5 -54.5t-17.5 -55.5q0 -18 19 -37t42.5 -35t42.5 -47.5t19 -71.5q0 -53 -42 -90t-99 -37q-72 0 -111 48t-39 120zM383 1200q0 65 30 127.5t78.5 111t104 85t113.5 59.5l22 -45 q-180 -106 -180 -188q0 -18 19 -37t42.5 -35t42.5 -47.5t19 -71.5q0 -53 -42.5 -90t-99.5 -37q-72 0 -110.5 48t-38.5 120z" />
<glyph unicode="&#x201d;" horiz-adv-x="821" d="M90 1075q180 106 180 189q0 15 -12.5 29.5t-31 28t-36.5 30t-30.5 43t-12.5 59.5q0 53 42.5 90t99.5 37q72 0 110.5 -48t38.5 -120q0 -65 -29.5 -127.5t-78 -111t-104 -85t-113.5 -59.5zM453 1075q180 106 180 189q0 15 -12.5 29.5t-30.5 28t-36.5 30t-31 43t-12.5 59.5 q0 53 42 90t99 37q72 0 111 -48t39 -120q0 -65 -30 -127.5t-78.5 -111t-104 -85t-113.5 -59.5z" />
<glyph unicode="&#x201e;" horiz-adv-x="880" d="M90 -221q180 106 180 188q0 18 -19 37t-42.5 35t-42.5 47.5t-19 71.5q0 53 42.5 90t99.5 37q72 0 110.5 -48t38.5 -120q0 -65 -29.5 -127.5t-78 -111t-104 -85t-113.5 -59.5zM444 -221q34 20 58 36t56 42t49.5 54.5t17.5 55.5q0 18 -19 37t-42.5 35t-42.5 47.5t-19 71.5 q0 53 42 90t99 37q72 0 111 -48t39 -120q0 -65 -30 -127.5t-78.5 -111t-104 -85t-113.5 -59.5z" />
<glyph unicode="&#x2022;" horiz-adv-x="872" d="M102 530q0 135 96.5 231.5t231.5 96.5q144 0 242 -96t98 -232q0 -145 -97.5 -242.5t-242.5 -97.5q-136 0 -232 98t-96 242z" />
<glyph unicode="&#x2026;" horiz-adv-x="1480" d="M123 131q0 63 45 108.5t108 45.5q67 0 113.5 -45.5t46.5 -108.5q0 -67 -46 -113.5t-114 -46.5q-63 0 -108 46.5t-45 113.5zM584 131q0 63 45 108.5t108 45.5q67 0 113.5 -45.5t46.5 -108.5q0 -67 -46.5 -113.5t-113.5 -46.5q-63 0 -108 46.5t-45 113.5zM1044 131 q0 63 45.5 108.5t108.5 45.5q67 0 113.5 -45.5t46.5 -108.5q0 -67 -46 -113.5t-114 -46.5q-63 0 -108.5 46.5t-45.5 113.5z" />
<glyph unicode="&#x202f;" horiz-adv-x="422" />
<glyph unicode="&#x2039;" horiz-adv-x="563" d="M45 504l455 428h59l-313 -434l176 -428h-60z" />
<glyph unicode="&#x203a;" horiz-adv-x="563" d="M4 70l315 436l-178 426h60l321 -430l-459 -432h-59z" />
<glyph unicode="&#x205f;" horiz-adv-x="527" />
<glyph unicode="&#x20ac;" horiz-adv-x="1624" d="M2 557l35 96h196q-2 23 -2 70q0 95 15 184h-189l35 97h174q77 281 290 443.5t484 162.5q163 0 315 -46.5t263 -129.5l-35 -306h-43q-51 203 -178 299.5t-313 96.5q-173 0 -322.5 -137.5t-216.5 -382.5h614l-34 -97h-603q-20 -127 -20 -254h602l-35 -96h-563 q24 -241 147 -370.5t340 -129.5q54 0 101 8t106 34t111 70t109 120t108 180h47l-76 -334q-232 -164 -506 -164q-157 0 -284.5 43.5t-214 123t-140.5 185t-75 234.5h-242z" />
<glyph unicode="&#x2122;" horiz-adv-x="2285" d="M102 1354l13 229h841l-2 -229h-39q-10 91 -42.5 130.5t-127.5 39.5h-131q0 -4 -1 -111t-1 -164v-239l2 -205q0 -30 17.5 -45.5t56.5 -20.5l64 -6v-37h-449v37l68 6q41 5 59.5 20t18.5 46q0 16 1 83.5t1 121.5v239q0 70 -1 172t-1 103h-130q-92 0 -130 -41.5t-48 -128.5 h-39zM993 696v37l64 8q35 6 50.5 24.5t18.5 55.5q13 113 15 172l22 492q3 60 -55 67l-68 4v27h330l244 -620l231 620h301v-27l-67 -4q-59 -7 -56 -71l25 -475l14 -197q3 -59 58 -68l63 -8v-37h-397v37l57 8q61 10 58 68q-5 74 -9 195l-28 450l-291 -768h-21l-321 789 l-23 -484l-8 -170q-2 -39 10 -56.5t47 -23.5l64 -8v-37h-328z" />
<glyph unicode="&#x25fc;" horiz-adv-x="1034" d="M0 0v1034h1034v-1034h-1034z" />
</font>
</defs>
</svg>
