<?xml version="1.0" standalone="no"?>
<!DOCTYPE svg PUBLIC "-//W3C//DTD SVG 1.1//EN" "http://www.w3.org/Graphics/SVG/1.1/DTD/svg11.dtd" >
<svg xmlns="http://www.w3.org/2000/svg">
<metadata></metadata>
<defs>
<font id="romain_bp_headline_regularRg" horiz-adv-x="1959" >
<font-face units-per-em="2048" ascent="1536" descent="-512" />
<missing-glyph horiz-adv-x="409" />
<glyph unicode="&#xfb01;" horiz-adv-x="1249" d="M49 0v43h51q69 0 93 23.5t24 89.5v776h-162v53h162v193q0 136 35 238t98.5 162.5t144 90t177.5 29.5q83 0 166.5 -24t144.5 -74.5t61 -116.5q0 -40 -26 -69.5t-62 -29.5q-38 0 -63 15t-36.5 39.5t-19.5 54t-18.5 58.5t-28 53.5t-52.5 39.5t-87 15q-127 0 -186 -110.5 t-59 -364.5v-199h626v-829q0 -66 24 -89.5t93 -23.5h51v-43h-524v43h51q69 0 93 23.5t24 89.5v673q0 58 -19 79t-73 24h-346v-752q0 -82 34.5 -109.5t122.5 -27.5h51v-43h-565z" />
<glyph unicode="&#xfb02;" horiz-adv-x="1251" d="M49 0v43h51q69 0 93 23.5t24 89.5v776h-162v53h162v193q0 269 110.5 394.5t309.5 125.5q119 0 211 -25h196v-1517q0 -66 24 -89.5t93 -23.5h51v-43h-524v43h51q69 0 93 23.5t24 89.5v1300q-41 38 -68 81.5t-36.5 66.5t-36.5 39t-78 16q-125 0 -178 -109t-53 -366v-199 h296v-53h-296v-752q0 -82 34.5 -109.5t122.5 -27.5h51v-43h-565z" />
<glyph unicode="&#xfb03;" horiz-adv-x="1886" d="M49 0v43h51q69 0 93 23.5t24 89.5v776h-162v53h162v152q0 136 33 238t93 162.5t138.5 90t175.5 29.5q110 0 187 -31t119 -78q118 150 346 150q83 0 166.5 -24t144.5 -74.5t61 -116.5q0 -40 -26 -69.5t-62 -29.5q-38 0 -63 15t-36.5 39.5t-19.5 54t-18.5 58.5t-28 53.5 t-52.5 39.5t-87 15q-127 0 -186.5 -110.5t-59.5 -364.5v-199h627v-829q0 -66 24 -89.5t93 -23.5h51v-43h-524v43h51q69 0 93 23.5t24 89.5v673q0 58 -19 79t-73 24h-347v-752q0 -82 35 -109.5t123 -27.5h51v-43h-565v43h51q69 0 93 23.5t24 89.5v776h-448v-752 q0 -82 34.5 -109.5t122.5 -27.5h51v-43h-565zM406 985h448v193q0 117 29 215q-42 19 -62 82q-45 143 -164 143q-128 0 -189.5 -111.5t-61.5 -363.5v-158z" />
<glyph unicode="&#xfb04;" horiz-adv-x="1886" d="M49 0v43h51q69 0 93 23.5t24 89.5v776h-162v53h162v152q0 136 33 238t93 162.5t138.5 90t175.5 29.5q197 0 295 -98q107 139 320 139q119 0 211 -25h196v-1517q0 -66 24 -89.5t93 -23.5h51v-43h-524v43h51q69 0 93 23.5t24 89.5v1300q-41 38 -68 81.5t-36.5 66.5 t-36.5 39t-78 16q-125 0 -178.5 -109t-53.5 -366v-199h297v-53h-297v-752q0 -82 35 -109.5t123 -27.5h51v-43h-565v43h51q69 0 93 23.5t24 89.5v776h-446v-752q0 -82 34.5 -109.5t122.5 -27.5h51v-43h-565zM406 985h446v193q0 122 25 217q-39 20 -56 78q-46 145 -164 145 q-128 0 -189.5 -111.5t-61.5 -363.5v-158z" />
<glyph horiz-adv-x="0" />
<glyph horiz-adv-x="682" />
<glyph unicode="&#xd;" horiz-adv-x="1024" />
<glyph unicode=" "  horiz-adv-x="409" />
<glyph unicode="&#x09;" horiz-adv-x="409" />
<glyph unicode="&#xa0;" horiz-adv-x="409" />
<glyph unicode="!" horiz-adv-x="432" d="M82 106q0 56 39 95t94 39q57 0 96 -39t39 -95q0 -57 -39 -96t-96 -39q-56 0 -94.5 39t-38.5 96zM90 1671q124 47 248 0q-61 -622 -107 -1302h-36q-50 744 -105 1302z" />
<glyph unicode="&#x22;" horiz-adv-x="694" d="M102 1597h191l-72 -450h-49zM401 1597h191l-72 -450h-49z" />
<glyph unicode="#" horiz-adv-x="1732" d="M66 475l40 88h336l195 486h-383l41 88h379l215 536h98l-215 -536h455l215 536h98l-215 -536h350l-41 -88h-346l-194 -486h393l-41 -88h-387l-191 -475h-98l191 475h-455l-191 -475h-98l191 475h-342zM541 563h454l195 486h-455z" />
<glyph unicode="$" horiz-adv-x="1357" d="M102 115v282h21q37 -95 83.5 -162.5t90 -103.5t99 -56t98 -25t100.5 -5v746l-123 43q-350 123 -350 430q0 200 131 316.5t342 127.5v180h86v-178q130 -4 225.5 -32t184.5 -81v-249h-21q-61 155 -159 223.5t-230 75.5v-648l43 -14q38 -13 62.5 -22t64 -25t66 -30 t62.5 -34.5t60.5 -42.5t52.5 -49.5t46 -59t34 -68t23.5 -80.5t7.5 -93q0 -222 -140 -360t-382 -148v-184h-86v182q-299 9 -492 144zM324 1356q0 -115 52 -191t195 -127l23 -8v612q-120 -17 -195 -97.5t-75 -188.5zM680 47q154 18 234.5 107.5t80.5 212.5q0 283 -307 391 l-8 2v-713z" />
<glyph unicode="%" horiz-adv-x="1847" d="M102 1227q0 150 109.5 260t257.5 110q167 0 268 -105.5t101 -264.5q0 -157 -105 -264t-264 -107t-263 109.5t-104 261.5zM205 1227q0 -126 75 -209.5t189 -83.5q123 0 196.5 87.5t73.5 205.5q0 122 -77.5 208.5t-192.5 86.5q-104 0 -184 -84t-80 -211zM344 0l1106 1673 h102l-1110 -1673h-98zM993 342q0 150 109.5 260.5t257.5 110.5q167 0 268 -106t101 -265q0 -157 -105 -264t-264 -107t-263 109.5t-104 261.5zM1096 342q0 -126 75 -209.5t189 -83.5q123 0 196.5 87.5t73.5 205.5q0 122 -77.5 208.5t-192.5 86.5q-104 0 -184 -84t-80 -211z " />
<glyph unicode="&#x26;" horiz-adv-x="1787" d="M76 424q0 196 138.5 338.5t381.5 189.5q-205 228 -205 420q0 153 106.5 242.5t293.5 89.5q149 0 246.5 -74.5t97.5 -208.5q0 -112 -98 -228t-224 -173l410 -467l80 139q79 140 69.5 194t-115.5 62v37h443v-37q-44 -3 -71.5 -10t-67 -32t-84 -78.5t-101.5 -141.5 l-114 -176l309 -352q44 -49 102 -78t154 -37v-43h-610v43q144 0 140 52q-2 18 -22 40l-184 203q-138 -194 -269.5 -280.5t-308.5 -86.5q-126 0 -225 42.5t-156.5 111t-86.5 145t-29 154.5zM303 469q0 -183 97 -287t249 -104q245 0 465 301l-491 547q-156 -63 -238 -180 t-82 -277zM592 1450q0 -100 38.5 -184t123.5 -179l39 -45q91 57 155 164.5t64 214.5q0 101 -54 172.5t-153 71.5q-100 0 -156.5 -64.5t-56.5 -150.5z" />
<glyph unicode="'" horiz-adv-x="395" d="M104 1597h191l-72 -450h-49z" />
<glyph unicode="(" horiz-adv-x="696" d="M145 547q0 320 113 633.5t309 505.5h111q-139 -134 -239.5 -335t-147.5 -406t-47 -396q0 -201 50 -410.5t154.5 -408.5t247.5 -330h-112q-203 187 -321 506t-118 641z" />
<glyph unicode=")" horiz-adv-x="704" d="M0 -600q143 131 248 330t155 408.5t50 410.5q0 191 -47 396t-148 406t-240 335h111q196 -192 309 -505.5t113 -633.5q0 -323 -117.5 -641.5t-320.5 -505.5h-113z" />
<glyph unicode="*" horiz-adv-x="753" d="M68 1440l45 76l219 -130l-2 263h88l-2 -254l223 131l45 -76l-223 -127l229 -127l-45 -76l-229 133l2 -264h-88l2 246l-213 -125l-45 76l221 127z" />
<glyph unicode="+" horiz-adv-x="1134" d="M82 479v86h434v434h94v-434h443v-86h-443v-444h-94v444h-434z" />
<glyph unicode="," horiz-adv-x="495" d="M102 -256q54 32 102 100t48 127q-53 3 -89 41t-36 92q0 57 36 95.5t97 38.5q64 0 98.5 -43.5t34.5 -110.5q0 -115 -85.5 -211t-198.5 -143z" />
<glyph unicode="-" horiz-adv-x="806" d="M102 479v86h603v-86h-603z" />
<glyph unicode="." horiz-adv-x="466" d="M100 104q0 56 39 95t94 39t94.5 -39t39.5 -95q0 -55 -39 -94t-95 -39q-55 0 -94 38.5t-39 94.5z" />
<glyph unicode="/" horiz-adv-x="796" d="M0 -68l702 1772h95l-703 -1772h-94z" />
<glyph unicode="0" horiz-adv-x="1413" d="M123 739q0 181 44.5 328t123.5 244t186.5 149.5t233.5 52.5q280 0 429.5 -203.5t149.5 -574.5q0 -180 -44.5 -326t-123 -241t-185 -146t-230.5 -51q-269 0 -426.5 202t-157.5 566zM340 737q0 -156 21.5 -280.5t56.5 -204.5t83 -133.5t99 -76t107 -22.5t106.5 22.5t99 76 t83.5 133.5t56 204.5t21 280.5t-21 281.5t-56.5 207t-83 136.5t-98.5 78.5t-107 23.5t-107 -23.5t-99 -78.5t-83.5 -136.5t-56.5 -207t-21 -281.5z" />
<glyph unicode="1" horiz-adv-x="811" d="M61 1337v23q236 44 422 153h33v-1280q0 -111 32.5 -150.5t133.5 -39.5h68v-43h-678v43h69q106 0 146.5 38.5t40.5 147.5v1098q-100 -16 -267 10z" />
<glyph unicode="2" horiz-adv-x="1169" d="M-41 12q294 256 415 375q350 342 425 587q22 73 22 140q0 139 -72 215t-206 76q-140 0 -236.5 -96t-107.5 -238l-35 2q-2 187 129.5 313.5t345.5 126.5q111 0 201.5 -39.5t146 -120.5t55.5 -190q0 -459 -862 -997h500q58 0 96.5 2t78 8t64.5 18.5t50 31.5t41 48.5 t30 69.5t25 94h22v-438h-1122z" />
<glyph unicode="3" horiz-adv-x="1136" d="M61 229q0 37 23.5 59.5t65.5 22.5q22 0 39.5 -9t30.5 -28.5t21 -35.5t19 -44q1 -3 2 -5.5t2 -4.5q68 -168 248 -168q151 0 243.5 108.5t92.5 264.5q0 167 -104.5 260.5t-264.5 93.5q-71 0 -135 -20v29q191 66 309.5 201t118.5 257q0 94 -62 145.5t-175 51.5 q-71 0 -137 -24t-120 -75.5t-81 -123.5l-27 8q24 90 72.5 155.5t111 100t125.5 50t131 15.5q167 0 265 -74t98 -192q0 -125 -105 -227.5t-276 -163.5q226 -18 344.5 -133.5t118.5 -282.5q0 -96 -35 -180.5t-101.5 -149t-170.5 -102t-234 -37.5q-107 0 -212 35.5t-173 96 t-68 126.5z" />
<glyph unicode="4" horiz-adv-x="1325" d="M-2 469l887 1087h14v-948h98q131 0 182 52t74 180h21v-385h-375v-222q0 -111 32.5 -150.5t133.5 -39.5h68v-43h-678v43h69q106 0 146.5 38.5t40.5 147.5v226h-707zM190 608h521v629z" />
<glyph unicode="5" horiz-adv-x="1183" d="M82 244q0 41 24 64.5t64 23.5q20 0 36.5 -7.5t27.5 -17t23 -28.5t18 -32t17.5 -38t16.5 -37q32 -68 86 -108.5t152 -40.5q141 0 236.5 115.5t95.5 303.5q0 159 -88 262t-240 103q-97 0 -197 -41t-161 -117l-15 4l152 822h510q87 0 133 22.5t69 77.5h21l-45 -283h-658 l-86 -454q64 52 157 83t194 31q210 0 338.5 -122.5t128.5 -321.5q0 -234 -156.5 -385.5t-394.5 -151.5q-107 0 -214 39t-176 103.5t-69 130.5z" />
<glyph unicode="6" horiz-adv-x="1314" d="M133 586q0 154 49 293.5t134.5 249.5t201 198.5t248 147.5t276.5 90l13 -37q-322 -119 -483 -310.5t-207 -472.5q41 100 139 175t239 75q61 0 122 -15t123 -52.5t108.5 -93t76 -144t29.5 -198.5q0 -144 -71 -264t-193.5 -188.5t-267.5 -68.5q-254 0 -395.5 170 t-141.5 445zM338 473q0 -122 39.5 -224.5t113 -164t166.5 -61.5q152 0 242 128t90 332q0 186 -83.5 304t-217.5 118q-159 0 -254.5 -124.5t-95.5 -307.5z" />
<glyph unicode="7" horiz-adv-x="1044" d="M61 -115l945 1407h-588q-115 0 -175.5 -50t-80.5 -159h-25v392h991l19 -19l-916 -1665z" />
<glyph unicode="8" horiz-adv-x="1255" d="M123 348q0 133 94.5 233t274.5 162l-29 19q-264 163 -264 395q0 69 27.5 133t80 117t140 85t196.5 32q195 0 309.5 -83.5t114.5 -209.5q0 -116 -92 -210.5t-270 -162.5l112 -70q170 -107 243 -196t73 -217q0 -69 -31.5 -138.5t-91.5 -130t-161 -98t-226 -37.5 q-135 0 -246 40.5t-182.5 128t-71.5 208.5zM293 367q0 -166 91.5 -253t242.5 -87q145 0 224 76t79 200q0 40 -8 71.5t-31 71t-71.5 81.5t-123.5 89l-178 111q-109 -66 -167 -161.5t-58 -198.5zM385 1221q0 -55 20 -101.5t63.5 -89t85 -72.5t110.5 -73l14 -11 q108 67 167.5 147t59.5 189q0 114 -66 188.5t-194 74.5q-116 0 -188 -70.5t-72 -181.5z" />
<glyph unicode="9" horiz-adv-x="1314" d="M133 993q0 144 71.5 263.5t193.5 188t268 68.5q255 0 395.5 -165t140.5 -439q0 -152 -49 -292.5t-134.5 -251t-201 -201t-248.5 -151.5t-276 -93l-12 37q322 119 483 310t207 472q-41 -100 -139.5 -175t-239.5 -75q-61 0 -122 15.5t-122.5 53t-108.5 93t-76.5 144 t-29.5 198.5zM346 1001q0 -186 83.5 -303.5t217.5 -117.5q159 0 254.5 124.5t95.5 307.5q0 122 -39.5 224.5t-113 164t-166.5 61.5q-152 0 -242 -128.5t-90 -332.5z" />
<glyph unicode=":" horiz-adv-x="471" d="M102 104q0 56 39 95t95 39q55 0 94 -39t39 -95t-38.5 -94.5t-94.5 -38.5t-95 39t-39 94zM102 899q0 55 39 94t95 39t94.5 -39t38.5 -94t-38.5 -94t-94.5 -39t-95 39t-39 94z" />
<glyph unicode=";" horiz-adv-x="495" d="M102 -256q54 32 102 100t48 127q-53 3 -89 41t-36 92q0 59 38.5 96.5t94.5 37.5q64 0 98.5 -44.5t34.5 -109.5q0 -115 -85.5 -211t-198.5 -143zM121 897q0 55 38.5 94t94.5 39t94.5 -39t38.5 -94t-38.5 -94t-94.5 -39t-94.5 39t-38.5 94z" />
<glyph unicode="&#x3c;" horiz-adv-x="1136" d="M102 475v88l1035 467v-104l-918 -406l918 -438v-109z" />
<glyph unicode="=" horiz-adv-x="1134" d="M102 293v86h930v-86h-930zM102 662v86h930v-86h-930z" />
<glyph unicode="&#x3e;" horiz-adv-x="1136" d="M0 -27v109l918 438l-918 406v104l1034 -467v-88z" />
<glyph unicode="?" horiz-adv-x="788" d="M66 1550q4 62 106 105t225 43q70 0 132 -18t111.5 -52.5t78.5 -91.5t29 -129q0 -67 -22.5 -135.5t-58.5 -128.5t-79.5 -121l-87 -122t-79.5 -121.5t-58.5 -129.5t-22.5 -137q0 -83 33 -127l-15 -10q-1 1 -23 21.5t-37 39t-35 49.5t-31 71.5t-11 86.5q0 90 35 179 t84.5 161.5t99 144.5t84.5 156t35 168q0 48 -14 93.5t-48.5 80.5t-84.5 35q-45 0 -77.5 -20.5t-51.5 -49.5t-36 -58.5t-41 -50t-56 -20.5q-36 0 -60 23t-24 65zM225 102q0 56 38 95t93 39t94 -39t39 -95q0 -55 -38.5 -93t-94.5 -38t-93.5 37.5t-37.5 93.5z" />
<glyph unicode="@" horiz-adv-x="1951" d="M104 774q0 193 72.5 365.5t197.5 297t300.5 197t374.5 72.5q137 0 263 -30.5t237.5 -96t194 -160t130 -232t47.5 -302.5q0 -175 -63.5 -315.5t-177 -220t-255.5 -79.5q-185 0 -270 93.5t-74 248.5q-41 -75 -87 -126.5t-92.5 -77.5t-88.5 -37t-88 -11q-64 0 -113 26.5 t-76.5 70t-41 92t-13.5 98.5q0 181 75.5 332t200 236t267.5 85q103 0 182 -51l19 68h184l-104 -563q-40 -190 -1.5 -293t171.5 -103q140 0 246 148.5t106 378.5q0 228 -98 396t-277 256.5t-418 88.5q-170 0 -323.5 -65t-265 -177.5t-177 -271t-65.5 -336.5 q0 -233 106.5 -410t290 -269.5t416.5 -92.5q103 0 241 29l17 -74q-123 -33 -281 -33q-255 0 -456.5 103t-317 297t-115.5 448zM696 670q0 -91 39 -139t103 -48q22 0 50 7.5t65 26t73.5 58.5t63.5 95q0 6 2 10l73 389q1 95 -35 144t-100 49q-73 0 -152.5 -99.5t-130.5 -239 t-51 -253.5z" />
<glyph unicode="A" horiz-adv-x="1726" d="M0 0v43h20q47 0 77.5 8.5t61.5 36t58.5 76.5t61.5 133l577 1425h27l633 -1558q26 -61 64 -91t97 -30h49v-43h-583v43h45q68 0 98 23q18 13 17 37q0 17 -9 40l-184 457h-623l-112 -274q-31 -76 -45 -125.5t-14.5 -82t18 -48.5t45.5 -21.5t76 -5.5h34v-43h-489zM545 739 h510l-252 627z" />
<glyph unicode="B" horiz-adv-x="1538" d="M113 0v43h73q71 0 100 24t29 89v1362q0 64 -29 88t-100 24h-73v43h581q109 0 197.5 -11t167.5 -39t132.5 -72t84.5 -112.5t31 -158.5q0 -154 -113 -262.5t-285 -132.5q230 -16 365 -122.5t135 -299.5q0 -107 -39.5 -191t-100.5 -134t-143 -82t-158.5 -44t-156.5 -12h-698 zM526 125q0 -45 27 -57.5t117 -12.5h84q206 0 316 108t110 300q0 95 -26 162.5t-88.5 119t-172 76.5t-270.5 25h-97v-721zM526 885h70q479 0 479 381q0 185 -104 266.5t-326 81.5h-119v-729z" />
<glyph unicode="C" horiz-adv-x="1767" d="M94 834q0 197 71 361.5t195.5 276t295 173t366.5 61.5q347 0 629 -158v-303h-23q-46 105 -117.5 183.5t-155 123t-167.5 65.5t-170 21q-105 0 -201.5 -29t-183.5 -92.5t-151 -156.5t-102 -230t-38 -303q0 -156 37 -287t100.5 -222t149.5 -155t183 -94t202 -30 q76 0 141.5 9.5t139.5 36.5t134.5 71.5t117 120t95.5 176.5h23v-297q-129 -97 -298.5 -141t-344.5 -44q-182 0 -335.5 47t-261 128.5t-183.5 191.5t-112 235.5t-36 260.5z" />
<glyph unicode="D" horiz-adv-x="1880" d="M113 0v43h73q71 0 100 24t29 89v1362q0 64 -29 88t-100 24h-73v43h667q485 0 745.5 -217t260.5 -608q0 -187 -63 -344t-178 -268.5t-283.5 -173.5t-372.5 -62h-776zM528 174q0 -73 53.5 -94t221.5 -21h37q113 0 213.5 26t191 85.5t155.5 149.5t103.5 226t38.5 306 q0 175 -49 311t-128 219t-189 136.5t-221 73.5t-236 20h-191v-1438z" />
<glyph unicode="E" horiz-adv-x="1523" d="M113 0v43h73q71 0 100 24t29 89v1362q0 64 -29 88t-100 24h-73v43h1224v-348h-20q-24 143 -115 207.5t-276 64.5h-398v-671h267q41 0 69 2t63 8.5t59.5 21t48 36.5t38.5 58t23 83h20v-490h-20q-8 48 -23.5 84t-39 58t-47.5 36t-59 20.5t-63 8.5t-69 2h-267v-670 q0 -63 33 -85.5t98 -22.5h373q311 0 359 305h20v-381h-1298z" />
<glyph unicode="F" horiz-adv-x="1327" d="M113 0v43h73q71 0 100 24t29 89v1362q0 64 -29 88t-100 24h-73v43h1214v-348h-20q-24 144 -112.5 208t-279.5 64h-387v-671h256q41 0 69 2t63 8.5t59.5 21t48 36.5t38.5 58t23 83h21v-490h-21q-8 48 -23.5 84t-39 58t-47.5 36t-59 20.5t-63 8.5t-69 2h-256v-682 q0 -74 36 -101.5t116 -27.5h94v-43h-661z" />
<glyph unicode="G" horiz-adv-x="1886" d="M94 834q0 196 74 361.5t200.5 276t295.5 172.5t358 62q347 0 629 -158v-235h-13q-48 94 -121.5 160.5t-159.5 101t-168 49t-171 14.5q-105 0 -201.5 -29t-183.5 -92.5t-151 -156.5t-102 -230t-38 -303q0 -156 37 -287t100.5 -222t149.5 -155t183 -94t202 -30 q44 0 79.5 1.5t84.5 7.5t87 16.5t78.5 30t66.5 46.5t43 68t17 92v254q0 33 -23 51.5t-58 18.5h-82v43h538v-43h-80q-35 0 -58.5 -18.5t-23.5 -51.5v-236q0 -103 -89.5 -183t-237.5 -122.5t-326 -42.5q-183 0 -338 47t-264 128.5t-185 191.5t-112.5 235.5t-36.5 260.5z" />
<glyph unicode="H" horiz-adv-x="1949" d="M113 0v43h73q71 0 100 24t29 89v1362q0 64 -29 88t-100 24h-73v43h618v-43h-74q-71 0 -100 -24t-29 -88v-590h893v590q0 64 -29 88t-100 24h-73v43h618v-43h-74q-71 0 -100 -24t-29 -88v-1362q0 -65 29 -89t100 -24h74v-43h-618v43h73q71 0 100 24t29 89v692h-893v-692 q0 -65 29 -89t100 -24h74v-43h-618z" />
<glyph unicode="I" horiz-adv-x="843" d="M113 0v43h73q71 0 100 24t29 89v1362q0 64 -29 88t-100 24h-73v43h618v-43h-74q-71 0 -100 -24t-29 -88v-1362q0 -65 29 -89t100 -24h74v-43h-618z" />
<glyph unicode="J" horiz-adv-x="989" d="M16 156q0 37 24 59.5t60 22.5q37 0 60.5 -22t38.5 -71q23 -72 51.5 -103.5t77.5 -31.5q31 0 54 11t41 31.5t30 58t19.5 81.5t12 110.5t6 137.5t1.5 170v908q0 64 -35 88t-115 24h-74v43h639v-43h-73q-71 0 -100 -24t-29 -88v-908q0 -76 -2.5 -134t-12 -128t-25.5 -121 t-44.5 -102t-68 -82.5t-97.5 -51.5t-131 -20q-76 0 -138 19t-97.5 48t-54 60t-18.5 58z" />
<glyph unicode="K" horiz-adv-x="1654" d="M113 0v43h73q71 0 100 24t29 89v1362q0 64 -29 88t-100 24h-73v43h618v-43h-74q-71 0 -100 -24t-29 -88v-666l523 518q49 49 80.5 84.5t50.5 66t19.5 50t-15 33.5t-49.5 20t-88 6v43h536v-43q-81 0 -155.5 -35.5t-122.5 -77t-164 -153.5q-4 -4 -7 -6.5t-6 -5.5l-419 -410 l731 -833q56 -66 213 -66v-43h-621v43q115 0 135 13q8 5 8 15q0 16 -22 42l-627 721v-678q0 -65 29 -89t100 -24h74v-43h-618z" />
<glyph unicode="L" horiz-adv-x="1523" d="M113 0v43h73q71 0 100 24t29 89v1362q0 64 -29 88t-100 24h-73v43h618v-43h-74q-71 0 -100 -24t-29 -88v-1325q0 -70 34.5 -94.5t107.5 -24.5h334q186 0 274 83.5t113 243.5h20v-401h-1298z" />
<glyph unicode="M" horiz-adv-x="2195" d="M92 0v43h74q78 0 112.5 48t38.5 163l50 1214v13q-1 38 -15 67q-18 33 -49.5 49.5t-64 23.5t-68.5 7v45h422l532 -1304l496 1304h430v-45q-36 0 -68 -7t-64 -23q-30 -17 -48 -50q-17 -31 -17 -75v-5l48 -1312q3 -65 31 -89t98 -24h73v-43h-620v43h73q71 0 101 24.5 t29 88.5l-46 1335l-579 -1491h-23l-592 1423l-45 -1171q-1 -17 -1 -32q0 -90 26 -130q30 -46 119 -47h78v-43h-531z" />
<glyph unicode="N" horiz-adv-x="1869" d="M113 0v43h61q87 0 124.5 48t37.5 157v1200q0 61 -38.5 104t-86.5 59.5t-96 16.5v45h372l1063 -1286v1038q0 113 -29.5 159t-117.5 46h-78v43h535v-43h-62q-87 0 -124.5 -48t-37.5 -157v-1454h-18l-1196 1415v-1138q0 -113 29.5 -159t117.5 -46h78v-43h-534z" />
<glyph unicode="O" d="M94 840q0 195 69 359.5t189 275.5t282 173t347 62q183 0 345.5 -64t281.5 -178t188.5 -280t69.5 -361q0 -194 -69 -356.5t-189 -271t-281.5 -168.5t-345.5 -60t-346.5 62t-282 173t-189 275.5t-69.5 358.5zM342 834q0 -168 35.5 -305t95.5 -228t142.5 -153t173.5 -89.5 t192 -27.5t192 27.5t173 89.5t142 153t95 228t35 305q0 169 -35 307.5t-95 232t-142 157t-173.5 92t-191.5 28.5q-127 0 -238.5 -47t-202.5 -142t-144.5 -256.5t-53.5 -371.5z" />
<glyph unicode="P" horiz-adv-x="1372" d="M104 0v43h74q71 0 100 24t29 89v1362q0 64 -29 88t-100 24h-74v43h613q145 0 260 -24t205.5 -75.5t140 -141t49.5 -211.5q0 -234 -145 -369t-393 -135q-184 0 -314 65v-610q0 -74 36 -101.5t116 -27.5h94v-43h-662zM520 809q92 -21 197 -21q89 0 165 25.5t135.5 76 t93.5 134t34 190.5q0 194 -109 297t-329 103q-70 0 -187 -6v-799z" />
<glyph unicode="Q" d="M94 840q0 157 44.5 294t125.5 241t191 179t244.5 113.5t281.5 38.5q183 0 345.5 -63.5t281.5 -176.5t188.5 -278.5t69.5 -360.5q0 -274 -131 -475t-353 -299l279 -391l-10 -10l-584 323q-58 -4 -86 -4q-184 0 -346.5 62t-282 173t-189 275.5t-69.5 358.5zM342 834 q0 -168 35.5 -305t95.5 -228t142.5 -153t173.5 -89.5t192 -27.5t192 27.5t173 89.5t142 153t95 228t35 305q0 169 -35 307t-95 231t-142 156t-173 91t-192 28t-192 -28t-173.5 -91t-142.5 -155.5t-95.5 -231t-35.5 -307.5z" />
<glyph unicode="R" horiz-adv-x="1699" d="M113 0v43h73q71 0 100 24t29 89v1362q0 64 -29 88t-100 24h-73v43h538q83 0 149.5 -3.5t139 -14.5t127.5 -29.5t106 -50t84 -74.5t52.5 -105t19.5 -139q0 -164 -119 -279t-323 -144q174 -35 277.5 -130.5t150.5 -263.5q17 -60 27.5 -95.5t26 -80.5t27.5 -70.5t29.5 -56 t36 -46.5t42 -33t51.5 -24q29 -7 63 -11q28 -3 60 -3h16l6 -24q-92 -25 -182 -25q-92 0 -163.5 29t-124 88.5t-89 139.5t-64.5 192q-27 108 -72 182t-108 116.5t-137 60.5t-170 18h-62v-627q0 -75 32 -101t120 -26h72v-43h-639zM528 852h76q92 0 161.5 9t135.5 34 t107.5 67.5t66.5 113t25 167.5q0 205 -123 293q-109 78 -312 77q-26 0 -53 -1l-84 -4v-756z" />
<glyph unicode="S" horiz-adv-x="1304" d="M102 115v282h21q28 -71 61.5 -126.5t65 -92t71 -62.5t71.5 -39.5t75.5 -21t73 -9t73.5 -1.5q188 0 289 95.5t101 244.5q0 131 -79 227t-261 158l-193 66q-350 120 -350 428q0 142 69 244t185 152t266 50q146 0 250.5 -28.5t198.5 -84.5v-249h-21q-65 164 -171.5 231.5 t-250.5 67.5q-140 0 -236 -85t-96 -206q0 -113 56 -191t200 -129l152 -53q44 -15 70 -24.5t71 -28.5t73.5 -34.5t67.5 -41t64 -50.5t53 -60.5t43.5 -73.5t26 -86.5t10.5 -102.5q0 -231 -151 -370.5t-410 -139.5q-331 0 -539 144z" />
<glyph unicode="T" horiz-adv-x="1482" d="M0 1313v360h1483v-360h-21q-23 148 -103 216t-235 68h-276v-1421q0 -80 31 -106.5t116 -26.5h97v-43h-701v43h86q92 0 125 26.5t33 104.5v1423h-277q-154 0 -233.5 -67.5t-104.5 -216.5h-20z" />
<glyph unicode="U" horiz-adv-x="1775" d="M23 1630v43h618v-43h-74q-71 0 -100 -24t-29 -88v-902q0 -241 134.5 -387.5t353.5 -146.5q247 0 383.5 154t136.5 413v776q0 113 -30 159t-118 46h-77v43h534v-43h-61q-87 0 -124.5 -48t-37.5 -157v-780q0 -311 -174.5 -492.5t-476.5 -181.5q-303 0 -479.5 175.5 t-176.5 486.5v885q0 64 -29 88t-100 24h-73z" />
<glyph unicode="V" horiz-adv-x="1691" d="M0 1630v43h592v-43h-53q-67 0 -97 -23q-18 -14 -18 -39q0 -17 8 -38l471 -1223l410 1041q30 77 43.5 126t14.5 81.5t-17 48t-45 21t-76 5.5h-35v43h490v-43h-21q-48 0 -78 -8.5t-61 -35t-58.5 -76.5t-60.5 -134l-559 -1425h-27l-612 1558q-48 121 -162 121h-49z" />
<glyph unicode="W" horiz-adv-x="2516" d="M0 1630v43h592v-43h-53q-67 0 -97 -23q-18 -14 -17 -39q0 -16 7 -38l430 -1229l352 983l-81 225q-45 121 -162 121h-49v43h591v-43h-53q-113 0 -113 -64q0 -16 7 -36l430 -1206l358 1024q28 79 40 127t14 81.5t-15.5 48t-43.5 20t-75 5.5h-34v43h489v-43h-20 q-48 0 -79 -8t-63.5 -34.5t-59.5 -77t-57 -134.5l-507 -1425h-27l-451 1229l-444 -1229h-27l-571 1558q-45 121 -162 121h-49z" />
<glyph unicode="X" horiz-adv-x="1785" d="M0 0v43q100 0 167 46t177 183l457 564l-500 673q-44 60 -63 77q-50 44 -146 44v43h572v-43h-33q-77 0 -103 -25q-11 -11 -11 -26q0 -19 18 -45l397 -537l332 410q52 63 71 107q11 27 11 46q0 13 -4 23q-12 25 -46 36t-90 11v43h482v-43q-52 0 -88 -9.5t-76 -40 t-73.5 -67.5t-96.5 -114l-377 -463l573 -772q43 -60 94.5 -90.5t141.5 -30.5v-43h-619v43h54q56 0 85 12.5t29 34t-18 49.5l-471 635l-414 -512q-49 -62 -67 -105q-10 -25 -10 -43q-1 -14 5 -24q14 -24 48 -35.5t92 -11.5v-43h-500z" />
<glyph unicode="Y" horiz-adv-x="1525" d="M0 1630v43h592v-43h-53q-68 0 -101 -25q-18 -14 -18 -35q0 -18 12 -40l379 -676l387 625q30 49 30 82q0 69 -132 69h-58v43h488v-43h-53q-34 0 -57 -7t-46 -28.5t-40 -45.5t-48 -74l-438 -705v-594q0 -80 31 -106.5t116 -26.5h86v-43h-680v43h76q92 0 125 26.5t33 104.5 v594l-420 741q-34 62 -69.5 91.5t-92.5 29.5h-49z" />
<glyph unicode="Z" horiz-adv-x="1464" d="M47 0l1045 1595h-424q-236 0 -337.5 -64.5t-115.5 -201.5h-25v344h1192l-1036 -1599h604q366 0 393 278h23v-352h-1319z" />
<glyph unicode="[" horiz-adv-x="600" d="M186 -598v2271h414v-86h-319v-2099h319v-86h-414z" />
<glyph unicode="\" horiz-adv-x="790" d="M-12 1704h96l700 -1772h-96z" />
<glyph unicode="]" horiz-adv-x="600" d="M0 -512h319v2099h-319v86h414v-2271h-414v86z" />
<glyph unicode="^" horiz-adv-x="1097" d="M102 825l381 850h97l415 -850h-108l-357 738l-323 -738h-105z" />
<glyph unicode="_" horiz-adv-x="1599" d="M123 0h1354v-86h-1354v86z" />
<glyph unicode="`" horiz-adv-x="428" d="M51 1618h185l217 -479h-27z" />
<glyph unicode="a" horiz-adv-x="1056" d="M66 207q0 82 46 143t127.5 96.5t182.5 52.5t221 17l2 301q0 88 -48 130t-128 42q-73 0 -121 -37q-42 -32 -42 -95q0 -9 1 -19q1 -12 1 -22q0 -43 -19 -67q-24 -30 -62 -30t-60 23.5t-22 66.5q0 66 54.5 118.5t129.5 78.5t148 26q178 0 267.5 -76.5t89.5 -240.5l-3 -529 q0 -98 70 -98q67 0 98 66l17 -4q-14 -88 -68 -130.5t-135 -42.5q-77 0 -123.5 46t-46.5 116q-54 -82 -136 -125t-165 -43q-131 0 -203.5 69t-72.5 167zM264 236q0 -73 45 -121.5t117 -48.5q129 0 219 102v326q-95 -3 -179.5 -31.5t-143 -88t-58.5 -138.5z" />
<glyph unicode="b" horiz-adv-x="1341" d="M70 0v43h51q69 0 93 23.5t24 89.5v1362q0 66 -24 89t-93 23h-51v43h356v-760q122 119 291 119q231 0 379.5 -150t148.5 -376q0 -148 -68.5 -270.5t-191 -193.5t-274.5 -71q-172 0 -285 113v-84h-356zM426 106q48 -37 93.5 -52t113.5 -15q185 0 294 133t109 334 t-108.5 330t-286.5 129q-69 0 -116 -15t-99 -57v-787z" />
<glyph unicode="c" horiz-adv-x="1038" d="M84 512q0 111 43.5 208.5t117 165.5t173.5 107t211 39q51 0 109.5 -11t113.5 -31t91 -54.5t36 -75.5q0 -29 -19.5 -48t-50.5 -19q-36 0 -58.5 19.5t-37 47.5t-33 56t-59.5 47.5t-103 19.5q-69 0 -125.5 -28.5t-93 -75t-61 -107.5t-35 -123t-10.5 -125q0 -96 22.5 -181 t67.5 -154t120 -109.5t171 -40.5q80 0 160 38t141 116l22 -19q-134 -203 -385 -203q-242 0 -385 147t-143 394z" />
<glyph unicode="d" horiz-adv-x="1357" d="M96 504q0 146 63.5 267t182 193t270.5 72q180 0 301 -129v611q0 66 -23.5 89t-92.5 23h-52v43h357v-1517q0 -66 25 -89.5t94 -23.5h51v-43h-359v88q-125 -117 -301 -117q-228 0 -372 152.5t-144 380.5zM305 504q0 -132 42.5 -236t131 -166.5t211.5 -62.5q70 0 121 15.5 t102 51.5v779q-98 80 -231 80q-176 0 -276.5 -129t-100.5 -332z" />
<glyph unicode="e" horiz-adv-x="1064" d="M76 510q0 229 146.5 375.5t371.5 146.5q178 0 299 -116.5t121 -278.5h-723q-6 -61 -6 -113q0 -96 22.5 -180.5t67.5 -152.5t120 -108t171 -40q82 0 169 36.5t150 110.5l19 -14q-145 -205 -400 -205q-242 0 -385 146t-143 393zM299 688h526q-5 137 -64.5 219t-162.5 82 q-54 0 -99.5 -17t-77.5 -45.5t-57 -68t-40 -81t-25 -89.5z" />
<glyph unicode="f" horiz-adv-x="772" d="M49 0v43h51q69 0 93 23.5t24 89.5v776h-162v53h162v193q0 268 113.5 394t312.5 126q68 0 125 -13t94.5 -32.5t64.5 -45t38.5 -49.5t11.5 -45q0 -37 -21 -55t-57 -18q-71 0 -98 88q-22 69 -61.5 100t-102.5 31q-125 0 -178 -109t-53 -366v-199h337v-53h-337v-752 q0 -82 34.5 -109.5t122.5 -27.5h51v-43h-565z" />
<glyph unicode="g" horiz-adv-x="1062" d="M55 -313q0 91 81 155.5t212 91.5q-58 6 -102 26.5t-68 49.5t-35.5 59.5t-11.5 63.5q0 174 252 211q-125 36 -204 127.5t-79 206.5q0 96 57 177t153 128t208 47q82 0 164 -31v2h428v-100l-328 47q72 -47 114 -116t42 -154q0 -146 -124 -249t-296 -103q-41 0 -82 6 q-85 -9 -129.5 -43t-44.5 -80q0 -41 38 -72t108 -31h206q79 0 143 -8t122.5 -28.5t98.5 -53t63.5 -85t23.5 -121.5q0 -99 -45 -180t-120 -131.5t-170.5 -77.5t-199.5 -27q-228 0 -351.5 79t-123.5 214zM205 -313q0 -62 25.5 -110t70.5 -76t101.5 -42t123.5 -14q78 0 143 13 t122 42.5t89.5 84.5t32.5 132q0 213 -315 213h-211q-182 -69 -182 -243zM287 678q0 -65 25 -135t80 -124t126 -54q54 0 100.5 30t75 77t44.5 101t16 105q0 49 -15 102t-43 101t-75 79t-103 31q-54 0 -99.5 -31t-73.5 -79t-43 -101t-15 -102z" />
<glyph unicode="h" horiz-adv-x="1304" d="M49 0v43h51q69 0 93 23.5t24 89.5v1362q0 66 -24 89t-93 23h-51v43h357v-903q31 115 128.5 188.5t219.5 73.5q141 0 235 -82q56 -49 84.5 -122t28.5 -195v-477q0 -66 24 -89.5t93 -23.5h51v-43h-525v43h52q69 0 92.5 23.5t23.5 89.5v495q0 144 -69 213q-70 70 -178 70 q-102 0 -179 -72.5t-81 -173.5v-532q0 -66 23.5 -89.5t92.5 -23.5h51v-43h-524z" />
<glyph unicode="i" horiz-adv-x="622" d="M49 0v43h51q69 0 93 23.5t24 89.5v673q0 66 -24 89.5t-93 23.5h-51v43h357v-829q0 -66 23.5 -89.5t92.5 -23.5h51v-43h-524zM182 1468q0 56 38 95t93 39t94 -39t39 -95q0 -55 -38.5 -93t-94.5 -38q-55 0 -93 37.5t-38 93.5z" />
<glyph unicode="j" horiz-adv-x="616" d="M41 -643q48 50 82 121.5t52 139.5t28 157.5t12 151.5t2 145v757q0 66 -24 89.5t-93 23.5h-51v43h357v-913q0 -87 -6 -157t-27.5 -156.5t-58.5 -156.5t-103 -141t-156 -125zM188 1468q0 56 38 95t93 39t94.5 -39t39.5 -95q0 -55 -39 -93t-95 -38q-55 0 -93 37.5t-38 93.5z " />
<glyph unicode="k" horiz-adv-x="1222" d="M49 0v43h51q69 0 93 23.5t24 89.5v1362q0 66 -24 89t-93 23h-51v43h357v-1517q0 -66 23.5 -89.5t92.5 -23.5h51v-43h-524zM410 526l378 320q20 19 27.5 40t-12.5 38.5t-74 17.5h-45v43h436v-43q-81 0 -135 -17.5t-115 -68.5l-297 -252l420 -457q61 -65 104 -84.5 t126 -19.5v-43h-514v43h59q43 0 54 4t-3 29z" />
<glyph unicode="l" horiz-adv-x="612" d="M49 0v43h51q69 0 93 23.5t24 89.5v1362q0 66 -24 89t-93 23h-51v43h357v-1517q0 -66 23.5 -89.5t92.5 -23.5h51v-43h-524z" />
<glyph unicode="m" horiz-adv-x="1974" d="M49 0v43h51q69 0 93 23.5t24 89.5v673q0 66 -24 89.5t-93 23.5h-51v43h357v-190q37 105 129 171t208 66q130 0 221 -69t119 -191q31 113 128 186.5t219 73.5q155 0 252.5 -96t97.5 -260v-520q0 -66 23.5 -89.5t92.5 -23.5h52v-43h-525v43h52q69 0 92.5 23.5t23.5 89.5 v522q0 115 -68.5 185.5t-183.5 70.5q-88 0 -157.5 -56.5t-91.5 -142.5q4 -36 4 -59v-520q0 -66 23.5 -89.5t92.5 -23.5h52v-43h-525v43h51q69 0 93 23.5t24 89.5v522q0 115 -68.5 185.5t-183.5 70.5q-87 0 -156 -55t-91 -138v-585q0 -66 23.5 -89.5t92.5 -23.5h51v-43h-524z " />
<glyph unicode="n" horiz-adv-x="1304" d="M49 0v43h51q69 0 93 23.5t24 89.5v673q0 66 -24 89.5t-93 23.5h-51v43h357v-215q31 115 128.5 188.5t219.5 73.5q141 0 235 -82q56 -49 84.5 -122t28.5 -195v-477q0 -66 24 -89.5t93 -23.5h51v-43h-525v43h52q69 0 92.5 23.5t23.5 89.5v495q0 144 -69 213q-70 70 -178 70 q-102 0 -179 -72.5t-81 -173.5v-532q0 -66 23.5 -89.5t92.5 -23.5h51v-43h-524z" />
<glyph unicode="o" horiz-adv-x="1265" d="M96 502q0 148 73 270.5t196 191t268 68.5t268 -68.5t195.5 -191t72.5 -270.5t-72.5 -270.5t-195.5 -191.5t-268 -69t-268 68.5t-196 191t-73 271.5zM305 502q0 -53 6.5 -105.5t21 -109t40 -104.5t60.5 -86.5t86.5 -60.5t113.5 -22q74 0 133 32.5t94.5 83t59 117 t32.5 129.5t9 126q0 64 -9 127.5t-32.5 129.5t-59 116t-94.5 82t-133 32q-73 0 -131.5 -31.5t-94 -80.5t-59.5 -115t-33.5 -130t-9.5 -130z" />
<glyph unicode="p" horiz-adv-x="1366" d="M70 -555h51q69 0 93 23.5t24 89.5v1271q0 66 -24 89.5t-93 23.5h-51v43h356v-70q125 117 309 117q232 0 383.5 -150.5t151.5 -375.5q0 -148 -68.5 -270.5t-191.5 -193.5t-275 -71q-185 0 -309 107v-502q0 -78 33.5 -104.5t124.5 -26.5h51v-43h-565v43zM426 106 q100 -75 231 -75q123 0 216.5 65t140.5 172t47 238q0 202 -109 334.5t-286 132.5q-136 0 -240 -88v-779z" />
<glyph unicode="q" horiz-adv-x="1357" d="M96 504q0 109 36.5 206.5t102 169.5t162.5 114t211 42q183 0 305 -125v74h357v-43h-51q-69 0 -93 -23.5t-24 -89.5v-1271q0 -66 24 -89.5t93 -23.5h51v-43h-565v43h51q91 0 124 26.5t33 104.5v512q-125 -117 -301 -117q-228 0 -372 152.5t-144 380.5zM305 504 q0 -132 42.5 -236t131 -166.5t211.5 -62.5q70 0 121 15.5t102 51.5v781q-99 78 -231 78q-176 0 -276.5 -129t-100.5 -332z" />
<glyph unicode="r" horiz-adv-x="903" d="M49 0v43h51q69 0 93 23.5t24 89.5v673q0 66 -24 89.5t-93 23.5h-51v43h357v-254q31 132 111 215.5t198 83.5q87 0 133.5 -34t46.5 -78q0 -30 -20 -54t-52 -24q-28 0 -48.5 14t-32.5 30t-38 30t-63 14q-87 0 -158.5 -87.5t-76.5 -191.5v-475q0 -80 26.5 -105.5 t110.5 -25.5h71v-43h-565z" />
<glyph unicode="s" horiz-adv-x="917" d="M76 143q0 32 22 50t49 18q25 0 45 -12t29.5 -25t25 -38t21.5 -34q32 -44 72.5 -63t99.5 -19q100 0 163 48.5t63 140.5q0 84 -54.5 136.5t-144.5 76.5l-100 27q-143 37 -200.5 111t-57.5 185q0 130 99 207.5t251 77.5q153 0 240 -54t87 -110q0 -30 -19.5 -47.5 t-47.5 -17.5q-17 0 -31 5t-26 16.5t-18 20t-18 27t-16 25.5q-31 48 -65.5 67t-93.5 19q-79 0 -138 -43.5t-59 -120.5q0 -78 48.5 -125.5t150.5 -75.5l86 -24q143 -40 216.5 -110t73.5 -199q0 -98 -55.5 -171t-140.5 -107t-184 -34q-168 0 -270.5 54.5t-102.5 117.5z" />
<glyph unicode="t" horiz-adv-x="749" d="M76 932v53h141l156 270h30v-270h320v-53h-320v-717q0 -91 38 -128.5t110 -37.5q45 0 94.5 13t81.5 34l12 -18q-79 -63 -147 -85t-150 -22q-105 0 -165 54.5t-60 167.5v739h-141z" />
<glyph unicode="u" horiz-adv-x="1255" d="M10 942v43h357l-2 -663q0 -117 62 -186.5t175 -69.5q86 0 159 63.5t97 151.5v548q0 66 -24 89.5t-93 23.5h-51v43h357v-829q0 -66 23.5 -89.5t92.5 -23.5h51v-43h-356v223q-40 -115 -132 -185.5t-206 -70.5q-154 0 -249 96t-95 261l2 505q0 66 -24 89.5t-93 23.5h-51z " />
<glyph unicode="v" horiz-adv-x="1146" d="M0 942v43h483v-43q-77 0 -101 -15t-11 -55l250 -682l235 562q24 54 24 98q0 19 -4 36q-16 56 -81 56h-37v43h389v-43q-145 0 -211 -158l-350 -825h-51l-363 877q-25 61 -57.5 83.5t-114.5 22.5z" />
<glyph unicode="w" horiz-adv-x="1712" d="M-8 942v43h481v-43q-77 0 -105 -17q-19 -12 -18 -34q0 -10 4 -23l238 -678l223 578l-27 68q-25 61 -57.5 83.5t-114.5 22.5v43h482v-43h-2q-25 0 -35 -2q-54 -3 -74 -19t-8 -49l238 -682l217 562q22 51 22 93q0 22 -6 41q-17 56 -82 56h-37v43h389v-43q-81 0 -129 -42.5 t-78 -115.5l-331 -825h-52l-282 729l-291 -729h-51l-342 877q-25 61 -57.5 83.5t-114.5 22.5z" />
<glyph unicode="x" horiz-adv-x="1142" d="M0 0v43q76 0 122.5 21.5t100.5 85.5l266 317l-266 369q-38 58 -76 82t-118 24v43h506v-43q-123 0 -123 -42q0 -12 10 -28l190 -260l187 222q23 27 23 49q0 17 -12 29q-28 30 -120 30v43h412v-43q-83 0 -130 -24.5t-93 -81.5l-232 -275l301 -411q26 -39 46 -59t57 -34 t92 -14v-43h-506v43q123 0 123 42q0 12 -10 28l-224 305l-223 -266q-27 -34 -27 -57q0 -52 136 -52v-43h-412z" />
<glyph unicode="y" horiz-adv-x="1093" d="M-68 -496q0 31 21.5 53.5t54.5 22.5q30 0 51.5 -19t32 -41.5t29 -41.5t43.5 -19q50 0 90 39t92 166l127 316l-356 856q-25 61 -58.5 83.5t-115.5 22.5v43h485v-43q-77 0 -102.5 -15.5t-10.5 -54.5l252 -684l234 564q23 52 23 94q0 21 -6 40q-17 56 -83 56h-37v43h396v-43 q-81 0 -129 -42.5t-78 -115.5l-481 -1146q-28 -67 -58.5 -114.5t-57 -73t-58.5 -39.5t-55 -17.5t-54 -3.5q-72 0 -131.5 31.5t-59.5 82.5z" />
<glyph unicode="z" horiz-adv-x="1003" d="M31 0l649 940h-180q-97 0 -154 -9t-98 -37t-61.5 -73.5t-34.5 -124.5h-27v289h797l-654 -946h189q102 0 171.5 10.5t115.5 29.5t73.5 55.5t41.5 79.5t24 112h24v-326h-876z" />
<glyph unicode="{" horiz-adv-x="638" d="M33 535v16q62 11 110 51.5t75 98.5t40.5 121.5t13.5 129.5q0 110 -32 201q-45 127 -45 231q0 146 91 231t283 85h60v-86h-60q-142 0 -210 -62.5t-68 -165.5q0 -74 33 -178q45 -140 45 -262q0 -117 -41.5 -227t-130.5 -176q88 -65 130 -181t42 -235q0 -122 -45 -262 q-33 -104 -33 -178q0 -103 68 -165.5t210 -62.5h60v-86h-60q-193 0 -283.5 83t-90.5 233q0 104 45 231q32 91 32 201q0 66 -14 132t-41.5 126.5t-75 103t-108.5 52.5z" />
<glyph unicode="|" horiz-adv-x="546" d="M225 0v1673h94v-1673h-94z" />
<glyph unicode="}" horiz-adv-x="606" d="M10 -541h60q142 0 210 62.5t68 165.5q0 74 -33 178q-45 140 -45 262q0 119 42 235t130 181q-89 66 -130.5 176t-41.5 227q0 122 45 262q33 104 33 178q0 103 -68 165.5t-210 62.5h-60v86h60q192 0 283 -85t91 -231q0 -104 -45 -231q-32 -91 -32 -201q0 -66 13.5 -129.5 t40.5 -121.5t75 -98.5t110 -51.5v-16q-61 -10 -108.5 -52.5t-75 -103t-41.5 -126.5t-14 -132q0 -110 32 -201q45 -127 45 -231q0 -150 -90.5 -233t-283.5 -83h-60v86z" />
<glyph unicode="~" horiz-adv-x="1349" d="M94 426q38 114 112.5 170.5t168.5 56.5q69 0 155 -31.5t154 -69.5t149 -69.5t140 -31.5q64 0 113.5 37t87.5 126l81 -32q-38 -113 -111.5 -167.5t-168.5 -54.5q-71 0 -158.5 31.5t-155.5 69t-147 69t-137 31.5q-132 0 -201 -172z" />
<glyph unicode="&#xa1;" horiz-adv-x="432" d="M84 1569q0 57 39 96t96 39q56 0 94.5 -39t38.5 -96q0 -55 -39 -94t-94 -39q-57 0 -96 38.5t-39 94.5zM96 4q61 620 107 1303h37q52 -778 104 -1303q-124 -47 -248 0z" />
<glyph unicode="&#xa2;" horiz-adv-x="1038" d="M84 512q0 209 138.5 352t346.5 164v199h84v-195q150 -5 238 -58.5t88 -105.5q0 -29 -20 -47t-48 -18q-57 0 -86 53q-32 60 -73 89.5t-99 35.5v-942h21q80 0 160 38t141 116l22 -19q-124 -187 -344 -201v-184h-84v184q-223 14 -354 158.5t-131 380.5zM293 524 q0 -111 28 -205.5t91.5 -168t156.5 -99.5v928q-59 -10 -106.5 -42.5t-78.5 -78t-52 -103.5t-30 -115.5t-9 -115.5z" />
<glyph unicode="&#xa3;" horiz-adv-x="1296" d="M51 -12v43h62q137 0 201.5 225.5t27.5 615.5h-233v58h227l-10 82q-12 90 -13 168.5t9.5 139.5t27.5 112t44 88t56 66t66 48t72 32t76 20t75 9.5t72 2.5q92 0 186 -21.5t163 -66.5t69 -101q0 -36 -24 -57.5t-64 -21.5q-34 0 -61.5 16t-45 40.5t-41 53t-47.5 53t-66.5 40.5 t-97.5 16q-342 0 -241 -598q12 -82 14 -121h496v-58h-492q6 -159 -23 -306.5t-79 -251t-103 -173.5t-102 -102q4 2 61.5 35t72.5 40.5t66.5 34.5t77 36t67.5 24.5t75 21t65 5.5q62 0 121 -16t97 -34.5t80.5 -34.5t74.5 -16q81 0 164 90l18 -10q-40 -75 -82 -125.5 t-81.5 -74.5t-72 -33t-69.5 -9q-40 0 -100 24t-136.5 48.5t-158.5 24.5q-72 0 -143.5 -16.5t-120.5 -35.5t-122.5 -29.5t-154.5 -0.5z" />
<glyph unicode="&#xa5;" horiz-adv-x="1525" d="M0 1630v43h592v-43h-53q-68 0 -101 -25t-6 -75l379 -676l387 625q94 151 -102 151h-58v43h488v-43h-53q-34 0 -57 -7t-46 -28.5t-40 -45.5t-48 -74l-414 -664h385v-70h-409v-223h409v-69h-409v-273q0 -80 31 -106.5t116 -26.5h86v-43h-680v43h76q92 0 125 26.5t33 104.5 v275h-410v69h410v223h-410v70h385l-395 698q-34 62 -69.5 91.5t-92.5 29.5h-49z" />
<glyph unicode="&#xa6;" horiz-adv-x="546" d="M225 319h94v-917h-94v917zM225 756v917h94v-917h-94z" />
<glyph unicode="&#xa7;" horiz-adv-x="1353" d="M172 -336q2 32 22.5 54t61.5 22q30 -1 52 -17t36.5 -41t29 -55.5t36 -60.5t51 -55.5t80.5 -42t118 -17.5q91 -1 161.5 23.5t111 67t61 91.5t21.5 101q1 71 -20.5 127.5t-66 99t-96 73t-122.5 60.5l-156 62q-183 72 -267 165.5t-81 229.5q1 117 76.5 214.5t201.5 147.5 q-128 65 -193 167t-63 229q3 166 136.5 279.5t353.5 109.5q173 -3 305 -75t131 -167q-2 -32 -22.5 -53.5t-61.5 -20.5q-30 0 -51.5 14.5t-34.5 36.5t-25.5 49t-30.5 54.5t-43 50t-69 37.5t-104 16q-145 3 -229.5 -65.5t-86.5 -171.5q-1 -111 57.5 -186t184.5 -130l215 -94 q79 -35 137.5 -71.5t107 -85.5t72.5 -111t23 -137q-1 -114 -75 -216.5t-189 -152.5q267 -154 264 -387q-3 -199 -149.5 -319t-385.5 -117q-130 3 -243.5 43t-178 100.5t-63.5 124.5zM356 672q-1 -112 76.5 -190t212.5 -136l156 -63q26 -12 104 -52q60 44 98.5 111.5 t38.5 126.5q1 51 -17.5 97.5t-47.5 81t-72.5 66t-83.5 53t-90 42.5l-207 86q-5 1 -11.5 4t-8.5 4q-70 -48 -108 -110t-40 -121z" />
<glyph unicode="&#xa8;" horiz-adv-x="892" d="M106 1403q0 55 39 94t95 39t94.5 -39t38.5 -94t-38.5 -94t-94.5 -39t-95 39t-39 94zM541 1403q0 55 38.5 94t94.5 39t94.5 -39t38.5 -94t-38.5 -94t-94.5 -39t-94.5 39t-38.5 94z" />
<glyph unicode="&#xa9;" horiz-adv-x="1832" d="M102 784q0 222 109 409.5t296 296.5t408 109q166 0 317 -64.5t260.5 -173.5t174 -260t64.5 -317q0 -165 -64.5 -316t-174 -259.5t-260.5 -173t-317 -64.5q-221 0 -408 109t-296 296t-109 408zM193 784q0 -149 56.5 -284.5t153 -233.5t230.5 -156.5t282 -58.5 q149 0 283.5 58t230.5 156.5t152.5 234t56.5 284.5q0 200 -95.5 369.5t-262 268t-365.5 98.5q-148 0 -282 -58.5t-230.5 -157t-153 -234.5t-56.5 -286zM397 803q0 111 45.5 208.5t120 163.5t170 104t195.5 38q204 0 368 -90v-191h-18q-22 63 -60 109.5t-85 71t-95 36 t-100 11.5q-70 0 -134 -27.5t-117.5 -81t-85.5 -145.5t-32 -209q0 -111 33.5 -201.5t87 -144.5t114.5 -82.5t122 -28.5q46 0 85 5t85 21t82 42t68 72.5t50 109.5h19v-186q-70 -57 -180 -87t-217 -30q-146 0 -266.5 69.5t-187.5 187t-67 255.5z" />
<glyph unicode="&#xaa;" horiz-adv-x="909" d="M131 1133q0 107 107.5 161t277.5 54l2 206q0 61 -30.5 91t-84.5 30q-95 0 -84 -104q3 -43 -18 -63.5t-57 -20.5q-26 0 -42 15.5t-16 45.5q0 46 36.5 83t87.5 55t102 18q258 0 258 -221v-365q0 -33 10 -50t37 -17q48 0 67 45l13 -2q-10 -60 -51.5 -90.5t-100.5 -30.5 q-55 0 -92 32.5t-37 79.5q-36 -55 -89.5 -85.5t-109.5 -30.5q-91 0 -138.5 47.5t-47.5 116.5zM291 1153q0 -53 26.5 -83t77.5 -30q74 0 123 66v225q-101 -5 -164 -50t-63 -128z" />
<glyph unicode="&#xab;" horiz-adv-x="864" d="M20 494v16l435 422h24l-286 -430l286 -432h-22zM344 494v16l434 422h25l-287 -430l287 -432h-23z" />
<glyph unicode="&#xac;" horiz-adv-x="1196" d="M80 449v86h973v-535h-95v449h-878z" />
<glyph unicode="&#xad;" horiz-adv-x="806" d="M102 479v86h603v-86h-603z" />
<glyph unicode="&#xae;" horiz-adv-x="1832" d="M102 784q0 222 109 409.5t296 296.5t408 109q166 0 317 -64.5t260.5 -173.5t174 -260t64.5 -317q0 -165 -64.5 -316t-174 -259.5t-260.5 -173t-317 -64.5q-221 0 -408 109t-296 296t-109 408zM193 784q0 -149 56.5 -284.5t153 -233.5t230.5 -156.5t282 -58.5 q149 0 283.5 58t230.5 156.5t152.5 234t56.5 284.5q0 200 -95.5 369.5t-262 268t-365.5 98.5q-148 0 -282 -58.5t-230.5 -157t-153 -234.5t-56.5 -286zM504 346v35l55 4q36 3 49 16t13 35v768q0 47 -62 53l-55 7v34h346q61 0 109 -3.5t106 -17.5t96.5 -38t65 -68t26.5 -104 q0 -88 -83.5 -161.5t-213.5 -88.5q98 -8 160 -58.5t98 -156.5q14 -43 20.5 -61.5t18 -50t19 -43.5t20 -31t24 -24.5t27.5 -11.5t34.5 -4t41.5 9l6 -10q-18 -18 -53 -32.5t-74 -14.5q-95 0 -149.5 60.5t-89.5 180.5q-40 136 -107.5 184t-179.5 48v-365q0 -22 15.5 -34.5 t54.5 -16.5l80 -4v-35h-418zM772 827l96 11q112 12 171 68.5t59 156.5q0 49 -17 85t-42.5 55.5t-64 31t-72.5 15t-77 3.5h-53v-426z" />
<glyph unicode="&#xaf;" horiz-adv-x="888" d="M102 1288v96h684v-96h-684z" />
<glyph unicode="&#xb0;" horiz-adv-x="708" d="M61 1413q0 121 85.5 206t207.5 85t207.5 -85t85.5 -206t-85.5 -206t-207.5 -85t-207.5 85t-85.5 206zM156 1413q0 -82 54.5 -145.5t143.5 -63.5q91 0 145 61.5t54 147.5q0 88 -56.5 148.5t-142.5 60.5q-80 0 -139 -60.5t-59 -148.5z" />
<glyph unicode="&#xb1;" horiz-adv-x="1134" d="M82 0v86h973v-86h-973zM82 537v86h438v378h94v-378h441v-86h-441v-359h-94v359h-438z" />
<glyph unicode="&#xb2;" horiz-adv-x="901" d="M96 879v14q60 39 113.5 77.5t121 95.5t115.5 108.5t81.5 111.5t33.5 111q0 66 -39.5 94.5t-97.5 28.5q-54 0 -111 -17.5t-96 -52.5l-14 16q59 67 135.5 100t148.5 33q101 0 178.5 -44.5t77.5 -129.5q0 -51 -26 -101.5t-64.5 -90.5t-97 -82t-109 -71t-114.5 -62h284 q66 0 103.5 28t50.5 101h16v-268h-690z" />
<glyph unicode="&#xb3;" horiz-adv-x="768" d="M12 627l13 16q94 -63 198 -63t168 70t64 181q0 100 -65.5 164t-199.5 64l-6 10q126 55 195.5 142.5t69.5 187.5q0 71 -40 107t-100 36q-89 0 -155 -72l-17 15q83 112 254 112q119 0 175.5 -53.5t56.5 -132.5q0 -85 -88 -171.5t-193 -113.5q138 -13 215.5 -89t77.5 -181 q0 -53 -24 -109.5t-67 -104.5t-112.5 -79t-150.5 -31q-166 0 -269 95z" />
<glyph unicode="&#xb4;" horiz-adv-x="428" d="M51 1139l217 479h185l-375 -479h-27z" />
<glyph unicode="&#xb6;" horiz-adv-x="1146" d="M61 1264q0 60 14 114.5t50 109.5t92 94.5t147 64t207 24.5h457v-92h-174v-1819h-94v1819h-160v-1819h-94v1098q-186 0 -315.5 112t-129.5 294z" />
<glyph unicode="&#xb7;" horiz-adv-x="466" d="M100 526q0 56 39 94.5t94 38.5q56 0 95 -39t39 -94t-39 -94t-95 -39q-55 0 -94 38.5t-39 94.5z" />
<glyph unicode="&#xb8;" horiz-adv-x="573" d="M100 -489q63 6 116 30.5t84.5 57.5t49 67.5t17.5 63.5q0 48 -24.5 72t-78.5 24q-42 0 -84 -29l-49 39l107 156h61l-109 -152q54 41 117 41q74 0 119 -36.5t45 -108.5t-62 -129.5t-144.5 -84t-158.5 -24.5z" />
<glyph unicode="&#xb9;" horiz-adv-x="606" d="M70 1536v43h452v-43h-57q-35 0 -58.5 -18.5t-23.5 -51.5v-479q0 -33 23.5 -51t58.5 -18h61v-44h-452v44h57q35 0 58.5 18t23.5 51v479q0 33 -23.5 51.5t-58.5 18.5h-61z" />
<glyph unicode="&#xba;" horiz-adv-x="956" d="M100 1333q0 157 109.5 264t265.5 107q154 0 264.5 -107t110.5 -264q0 -155 -110.5 -261.5t-264.5 -106.5q-157 0 -266 105.5t-109 262.5zM266 1333q0 -56 10.5 -111.5t33.5 -108t65.5 -85.5t99.5 -33t99.5 33t64.5 86t32.5 108t10.5 111q0 57 -10.5 112.5t-32.5 108.5 t-64.5 86t-99.5 33q-56 0 -98.5 -32.5t-65.5 -85t-34 -108.5t-11 -114z" />
<glyph unicode="&#xbb;" horiz-adv-x="864" d="M61 70l287 432l-287 430h25l434 -422v-16l-436 -424h-23zM385 70l287 432l-287 430h25l434 -422v-16l-436 -424h-23z" />
<glyph unicode="&#xbc;" horiz-adv-x="1734" d="M88 1536v43h453v-43h-58q-35 0 -58.5 -18.5t-23.5 -51.5v-479q0 -33 23.5 -51t58.5 -18h62v-44h-453v44h58q35 0 58 18t23 51v479q0 33 -23 51.5t-58 18.5h-62zM195 0l1108 1673h102l-1112 -1673h-98zM754 309l598 735h18v-606h109q45 0 75.5 24.5t42.5 94.5h15v-248 h-236v-196q0 -33 23.5 -51.5t58.5 -18.5h62v-43h-453v43h57q35 0 58.5 18.5t23.5 51.5v196h-452zM918 438h299v367z" />
<glyph unicode="&#xbd;" horiz-adv-x="1593" d="M90 1536v43h453v-43h-58q-35 0 -58.5 -18.5t-23.5 -51.5v-479q0 -33 23.5 -51t58.5 -18h62v-44h-453v44h58q35 0 58 18t23 51v479q0 33 -23 51.5t-58 18.5h-62zM195 0l1108 1673h102l-1112 -1673h-98zM774 0v14q60 39 113.5 77.5t121 95.5t115.5 108.5t81.5 111.5 t33.5 111q0 66 -39.5 94.5t-97.5 28.5q-54 0 -111 -17.5t-96 -52.5l-14 17q59 67 135.5 100t148.5 33q101 0 178.5 -44.5t77.5 -129.5q0 -51 -26 -101.5t-65 -91t-97 -82.5t-109 -71.5t-114 -61.5h284q66 0 103.5 28t50.5 101h16v-268h-690z" />
<glyph unicode="&#xbe;" horiz-adv-x="1902" d="M-8 627l12 16q94 -63 199 -63q104 0 167.5 70t63.5 181q0 100 -65 164t-199 64l-6 10q125 55 194.5 142.5t69.5 187.5q0 71 -39.5 107t-99.5 36q-90 0 -156 -72l-16 15q83 112 254 112q119 0 175 -53.5t56 -132.5q0 -85 -87.5 -171.5t-192.5 -113.5q138 -13 215 -89 t77 -181q0 -53 -24 -109.5t-67 -104.5t-112.5 -79t-150.5 -31q-165 0 -268 95zM362 0l1108 1673h103l-1112 -1673h-99zM918 309l598 735h18v-606h108q45 0 76 24.5t43 94.5h15v-248h-236v-196q0 -33 23.5 -51.5t58.5 -18.5h61v-43h-452v43h57q35 0 58.5 18.5t23.5 51.5v196 h-452zM1081 438h299v367z" />
<glyph unicode="&#xbf;" horiz-adv-x="788" d="M68 264q0 91 42 186t102 177.5t119.5 165.5t101.5 178.5t42 187.5q0 83 -33 127l15 10q1 -1 23 -21.5t37 -39t35 -49.5t31 -71.5t11 -86.5q0 -90 -35 -179t-84.5 -161.5t-99 -144.5t-84.5 -156t-35 -168q0 -48 14 -93.5t48.5 -80.5t84.5 -35q45 0 77.5 20.5t52 50 t36.5 58.5t41 49.5t56 20.5q36 0 60 -23t24 -65q-3 -41 -53 -76t-125 -53.5t-154 -18.5q-147 0 -248.5 75t-101.5 216zM326 1569q0 55 38.5 93t94.5 38q55 0 93 -38t38 -93q0 -56 -38 -94.5t-93 -38.5t-94 39t-39 94z" />
<glyph unicode="&#xc0;" horiz-adv-x="1726" d="M0 0v43h20q47 0 77.5 8.5t61.5 36t58.5 76.5t61.5 133l577 1425h27l633 -1558q26 -61 64 -91t97 -30h49v-43h-583v43h45q67 0 97.5 23t8.5 77l-184 457h-623l-112 -274q-31 -76 -45 -125.5t-14.5 -82t18 -48.5t45.5 -21.5t76 -5.5h34v-43h-489zM545 739h510l-252 627z M641 2224h184l217 -479h-26z" />
<glyph unicode="&#xc1;" horiz-adv-x="1726" d="M0 0v43h20q47 0 77.5 8.5t61.5 36t58.5 76.5t61.5 133l577 1425h27l633 -1558q26 -61 64 -91t97 -30h49v-43h-583v43h45q67 0 97.5 23t8.5 77l-184 457h-623l-112 -274q-31 -76 -45 -125.5t-14.5 -82t18 -48.5t45.5 -21.5t76 -5.5h34v-43h-489zM545 739h510l-252 627z M662 1745l217 479h184l-375 -479h-26z" />
<glyph unicode="&#xc2;" horiz-adv-x="1726" d="M0 0v43h20q47 0 77.5 8.5t61.5 36t58.5 76.5t61.5 133l577 1425h27l633 -1558q26 -61 64 -91t97 -30h49v-43h-583v43h45q67 0 97.5 23t8.5 77l-184 457h-623l-112 -274q-31 -76 -45 -125.5t-14.5 -82t18 -48.5t45.5 -21.5t76 -5.5h34v-43h-489zM528 1745l334 500h19 l315 -500h-22l-304 301l-319 -301h-23zM545 739h510l-252 627z" />
<glyph unicode="&#xc3;" horiz-adv-x="1726" d="M0 0v43h20q47 0 77.5 8.5t61.5 36t58.5 76.5t61.5 133l577 1425h27l633 -1558q26 -61 64 -91t97 -30h49v-43h-583v43h45q67 0 97.5 23t8.5 77l-184 457h-623l-112 -274q-31 -76 -45 -125.5t-14.5 -82t18 -48.5t45.5 -21.5t76 -5.5h34v-43h-489zM492 1806l96 250h631 l92 96l14 -8l-96 -250h-631l-92 -96zM545 739h510l-252 627z" />
<glyph unicode="&#xc4;" horiz-adv-x="1726" d="M0 0v43h20q47 0 77.5 8.5t61.5 36t58.5 76.5t61.5 133l577 1425h27l633 -1558q26 -61 64 -91t97 -30h49v-43h-583v43h45q67 0 97.5 23t8.5 77l-184 457h-623l-112 -274q-31 -76 -45 -125.5t-14.5 -82t18 -48.5t45.5 -21.5t76 -5.5h34v-43h-489zM512 1989q0 55 39 94 t94 39t94 -39t39 -94q0 -56 -39 -95t-94 -39t-94 39t-39 95zM545 739h510l-252 627zM946 1989q0 55 39 94t94 39t94 -39t39 -94q0 -56 -39 -95t-94 -39t-94 39t-39 95z" />
<glyph unicode="&#xc5;" horiz-adv-x="1726" d="M0 0v43h20q47 0 77.5 8.5t61.5 36t58.5 76.5t61.5 133l577 1425h27l633 -1558q26 -61 64 -91t97 -30h49v-43h-583v43h45q67 0 97.5 23t8.5 77l-184 457h-623l-112 -274q-31 -76 -45 -125.5t-14.5 -82t18 -48.5t45.5 -21.5t76 -5.5h34v-43h-489zM545 739h510l-252 627z M653 2005q0 84 61 142.5t148 58.5t148 -58.5t61 -142.5t-61 -142.5t-148 -58.5t-148 58.5t-61 142.5zM733 2005q0 -56 36.5 -94.5t92.5 -38.5q60 0 95.5 38t35.5 95q0 58 -38.5 95.5t-92.5 37.5q-56 0 -92.5 -38.5t-36.5 -94.5z" />
<glyph unicode="&#xc6;" horiz-adv-x="2594" d="M0 0v43q48 4 82.5 11.5t68.5 24.5t62.5 39.5t66.5 62.5t77.5 87t98.5 119q11 14 17 21l913 1118q-3 59 -32.5 81.5t-96.5 22.5h-73v43h1224v-307h-20q-22 134 -101 182.5t-237 48.5h-451v-671h287q49 0 80.5 3t68.5 14.5t60.5 33.5t43 61.5t28.5 96.5h20v-490h-20 q-10 57 -29.5 97t-42.5 61.5t-60.5 33.5t-68.5 14.5t-80 2.5h-287v-670q0 -63 33.5 -85.5t98.5 -22.5h391q154 0 235.5 60t104.5 204h20v-340h-1298v43h73q71 0 100 24t29 89v698h-450l-416 -514q-44 -55 -72.5 -95t-46.5 -75t-19 -57.5t13 -39t45.5 -23.5t81.5 -7h58v-43 h-580zM993 926h393v485z" />
<glyph unicode="&#xc7;" horiz-adv-x="1767" d="M94 834q0 197 71 361.5t195.5 276t295 173t366.5 61.5q347 0 629 -158v-303h-23q-46 105 -117.5 183.5t-155 123t-167.5 65.5t-170 21q-105 0 -201.5 -29t-183.5 -92.5t-151 -156.5t-102 -230t-38 -303q0 -156 37 -287t100.5 -222t149.5 -155t183 -94t202 -30 q76 0 141.5 9.5t139.5 36.5t134.5 71.5t117 120t95.5 176.5h23v-297q-129 -97 -298.5 -141t-344.5 -44q-6 0 -18.5 1t-18.5 1l-94 -133q54 41 117 41q74 0 118.5 -36.5t44.5 -108.5t-61.5 -129.5t-144 -84t-158.5 -24.5l-6 13q63 6 116 30.5t84.5 57.5t48.5 67.5t17 63.5 q0 49 -24 72.5t-78 23.5q-42 0 -84 -29l-50 39l95 139q-163 11 -300 63.5t-234 134t-165 188t-100.5 226t-32.5 247.5z" />
<glyph unicode="&#xc8;" horiz-adv-x="1523" d="M113 0v43h73q71 0 100 24t29 89v1362q0 64 -29 88t-100 24h-73v43h1224v-348h-20q-24 143 -115 207.5t-276 64.5h-398v-671h267q41 0 69 2t63 8.5t59.5 21t48 36.5t38.5 58t23 83h20v-490h-20q-8 48 -23.5 84t-39 58t-47.5 36t-59 20.5t-63 8.5t-69 2h-267v-670 q0 -63 33 -85.5t98 -22.5h373q311 0 359 305h20v-381h-1298zM541 2224h184l217 -479h-27z" />
<glyph unicode="&#xc9;" horiz-adv-x="1523" d="M113 0v43h73q71 0 100 24t29 89v1362q0 64 -29 88t-100 24h-73v43h1224v-348h-20q-24 143 -115 207.5t-276 64.5h-398v-671h267q41 0 69 2t63 8.5t59.5 21t48 36.5t38.5 58t23 83h20v-490h-20q-8 48 -23.5 84t-39 58t-47.5 36t-59 20.5t-63 8.5t-69 2h-267v-670 q0 -63 33 -85.5t98 -22.5h373q311 0 359 305h20v-381h-1298zM684 1745l217 479h184l-374 -479h-27z" />
<glyph unicode="&#xca;" horiz-adv-x="1523" d="M113 0v43h73q71 0 100 24t29 89v1362q0 64 -29 88t-100 24h-73v43h1224v-348h-20q-24 143 -115 207.5t-276 64.5h-398v-671h267q41 0 69 2t63 8.5t59.5 21t48 36.5t38.5 58t23 83h20v-490h-20q-8 48 -23.5 84t-39 58t-47.5 36t-59 20.5t-63 8.5t-69 2h-267v-670 q0 -63 33 -85.5t98 -22.5h373q311 0 359 305h20v-381h-1298zM471 1745l334 500h18l316 -500h-23l-303 301l-319 -301h-23z" />
<glyph unicode="&#xcb;" horiz-adv-x="1523" d="M113 0v43h73q71 0 100 24t29 89v1362q0 64 -29 88t-100 24h-73v43h1224v-348h-20q-24 143 -115 207.5t-276 64.5h-398v-671h267q41 0 69 2t63 8.5t59.5 21t48 36.5t38.5 58t23 83h20v-490h-20q-8 48 -23.5 84t-39 58t-47.5 36t-59 20.5t-63 8.5t-69 2h-267v-670 q0 -63 33 -85.5t98 -22.5h373q311 0 359 305h20v-381h-1298zM412 1989q0 55 39 94t94 39t94 -39t39 -94q0 -56 -39 -95t-94 -39t-94 39t-39 95zM969 1989q0 55 38.5 94t94.5 39t94.5 -39t38.5 -94q0 -56 -39 -95t-94 -39t-94 39t-39 95z" />
<glyph unicode="&#xcc;" horiz-adv-x="843" d="M113 0v43h73q71 0 100 24t29 89v1362q0 64 -29 88t-100 24h-73v43h618v-43h-74q-71 0 -100 -24t-29 -88v-1362q0 -65 29 -89t100 -24h74v-43h-618zM221 2224h185l217 -479h-27z" />
<glyph unicode="&#xcd;" horiz-adv-x="843" d="M113 0v43h73q71 0 100 24t29 89v1362q0 64 -29 88t-100 24h-73v43h618v-43h-74q-71 0 -100 -24t-29 -88v-1362q0 -65 29 -89t100 -24h74v-43h-618zM221 1745l217 479h185l-375 -479h-27z" />
<glyph unicode="&#xce;" horiz-adv-x="843" d="M88 1745l334 500h18l316 -500h-23l-303 301l-319 -301h-23zM113 0v43h73q71 0 100 24t29 89v1362q0 64 -29 88t-100 24h-73v43h618v-43h-74q-71 0 -100 -24t-29 -88v-1362q0 -65 29 -89t100 -24h74v-43h-618z" />
<glyph unicode="&#xcf;" horiz-adv-x="843" d="M72 1989q0 55 39 94t94 39t94 -39t39 -94q0 -56 -39 -95t-94 -39t-94 39t-39 95zM113 0v43h73q71 0 100 24t29 89v1362q0 64 -29 88t-100 24h-73v43h618v-43h-74q-71 0 -100 -24t-29 -88v-1362q0 -65 29 -89t100 -24h74v-43h-618zM506 1989q0 55 39 94t94 39t94 -39 t39 -94q0 -56 -39 -95t-94 -39t-94 39t-39 95z" />
<glyph unicode="&#xd0;" horiz-adv-x="1871" d="M0 815v74h307v629q0 64 -29 88t-100 24h-74v43h668q484 0 740.5 -216.5t256.5 -608.5q0 -187 -62 -344t-175 -268.5t-280 -173.5t-371 -62h-777v43h74q71 0 100 24t29 89v659h-307zM520 174q0 -73 53.5 -94t221.5 -21h36q113 0 213.5 26t191.5 85.5t156 149.5t103.5 226 t38.5 306q0 175 -49 311t-128 219t-189 136.5t-221 73.5t-236 20h-191v-723h379v-74h-379v-641z" />
<glyph unicode="&#xd1;" horiz-adv-x="1869" d="M113 0v43h61q87 0 124.5 48t37.5 157v1200q0 61 -38.5 104t-86.5 59.5t-96 16.5v45h372l1063 -1286v1038q0 113 -29.5 159t-117.5 46h-78v43h535v-43h-62q-87 0 -124.5 -48t-37.5 -157v-1454h-18l-1196 1415v-1138q0 -113 29.5 -159t117.5 -46h78v-43h-534zM594 1806 l96 250h631l92 96l14 -8l-96 -250h-631l-92 -96z" />
<glyph unicode="&#xd2;" d="M94 840q0 195 69 359.5t189 275.5t282 173t347 62q183 0 345.5 -64t281.5 -178t188.5 -280t69.5 -361q0 -194 -69 -356.5t-189 -271t-281.5 -168.5t-345.5 -60t-346.5 62t-282 173t-189 275.5t-69.5 358.5zM342 834q0 -168 35.5 -305t95.5 -228t142.5 -153t173.5 -89.5 t192 -27.5t192 27.5t173 89.5t142 153t95 228t35 305q0 169 -35 307.5t-95 232t-142 157t-173.5 92t-191.5 28.5q-127 0 -238.5 -47t-202.5 -142t-144.5 -256.5t-53.5 -371.5zM778 2224h185l217 -479h-27z" />
<glyph unicode="&#xd3;" d="M94 840q0 195 69 359.5t189 275.5t282 173t347 62q183 0 345.5 -64t281.5 -178t188.5 -280t69.5 -361q0 -194 -69 -356.5t-189 -271t-281.5 -168.5t-345.5 -60t-346.5 62t-282 173t-189 275.5t-69.5 358.5zM342 834q0 -168 35.5 -305t95.5 -228t142.5 -153t173.5 -89.5 t192 -27.5t192 27.5t173 89.5t142 153t95 228t35 305q0 169 -35 307.5t-95 232t-142 157t-173.5 92t-191.5 28.5q-127 0 -238.5 -47t-202.5 -142t-144.5 -256.5t-53.5 -371.5zM799 1745l217 479h184l-375 -479h-26z" />
<glyph unicode="&#xd4;" d="M94 840q0 195 69 359.5t189 275.5t282 173t347 62q183 0 345.5 -64t281.5 -178t188.5 -280t69.5 -361q0 -194 -69 -356.5t-189 -271t-281.5 -168.5t-345.5 -60t-346.5 62t-282 173t-189 275.5t-69.5 358.5zM342 834q0 -168 35.5 -305t95.5 -228t142.5 -153t173.5 -89.5 t192 -27.5t192 27.5t173 89.5t142 153t95 228t35 305q0 169 -35 307.5t-95 232t-142 157t-173.5 92t-191.5 28.5q-127 0 -238.5 -47t-202.5 -142t-144.5 -256.5t-53.5 -371.5zM645 1745l334 500h18l316 -500h-23l-303 301l-319 -301h-23z" />
<glyph unicode="&#xd5;" d="M94 840q0 195 69 359.5t189 275.5t282 173t347 62q183 0 345.5 -64t281.5 -178t188.5 -280t69.5 -361q0 -194 -69 -356.5t-189 -271t-281.5 -168.5t-345.5 -60t-346.5 62t-282 173t-189 275.5t-69.5 358.5zM342 834q0 -168 35.5 -305t95.5 -228t142.5 -153t173.5 -89.5 t192 -27.5t192 27.5t173 89.5t142 153t95 228t35 305q0 169 -35 307.5t-95 232t-142 157t-173.5 92t-191.5 28.5q-127 0 -238.5 -47t-202.5 -142t-144.5 -256.5t-53.5 -371.5zM594 1806l96 250h631l92 96l14 -8l-96 -250h-631l-92 -96z" />
<glyph unicode="&#xd6;" d="M94 840q0 195 69 359.5t189 275.5t282 173t347 62q183 0 345.5 -64t281.5 -178t188.5 -280t69.5 -361q0 -194 -69 -356.5t-189 -271t-281.5 -168.5t-345.5 -60t-346.5 62t-282 173t-189 275.5t-69.5 358.5zM342 834q0 -168 35.5 -305t95.5 -228t142.5 -153t173.5 -89.5 t192 -27.5t192 27.5t173 89.5t142 153t95 228t35 305q0 169 -35 307.5t-95 232t-142 157t-173.5 92t-191.5 28.5q-127 0 -238.5 -47t-202.5 -142t-144.5 -256.5t-53.5 -371.5zM569 1989q0 55 38.5 94t94.5 39t95 -39t39 -94t-39 -94.5t-95 -39.5q-55 0 -94 39t-39 95z M1126 1989q0 55 39 94t95 39t94.5 -39t38.5 -94q0 -56 -39 -95t-94 -39q-56 0 -95 39.5t-39 94.5z" />
<glyph unicode="&#xd7;" horiz-adv-x="1089" d="M102 897l64 66l383 -385l377 378l61 -63l-377 -377l373 -373l-65 -63l-371 371l-371 -371l-61 63l368 371z" />
<glyph unicode="&#xd8;" d="M102 840q0 195 68 359.5t186 275.5t279.5 173t345.5 62q273 0 489 -137l107 131h119l-152 -184q148 -120 231 -297.5t83 -395.5q0 -194 -68 -356.5t-186 -271t-278.5 -168.5t-344.5 -60q-322 0 -553 174l-119 -145h-114l163 203q-123 117 -189.5 278.5t-66.5 358.5z M342 834q0 -314 117 -508l940 1159q-169 166 -418 166q-127 0 -238.5 -47t-202.5 -142t-144.5 -256.5t-53.5 -371.5zM510 248q87 -110 210 -163.5t261 -53.5q101 0 192 27.5t173 89.5t142 153t95 228t35 305q0 365 -160 579z" />
<glyph unicode="&#xd9;" horiz-adv-x="1775" d="M23 1630v43h618v-43h-74q-71 0 -100 -24t-29 -88v-902q0 -241 134.5 -387.5t353.5 -146.5q247 0 383.5 154t136.5 413v776q0 113 -30 159t-118 46h-77v43h534v-43h-61q-87 0 -124.5 -48t-37.5 -157v-780q0 -311 -174.5 -492.5t-476.5 -181.5q-303 0 -479.5 175.5 t-176.5 486.5v885q0 64 -29 88t-100 24h-73zM666 2224h184l217 -479h-27z" />
<glyph unicode="&#xda;" horiz-adv-x="1775" d="M23 1630v43h618v-43h-74q-71 0 -100 -24t-29 -88v-902q0 -241 134.5 -387.5t353.5 -146.5q247 0 383.5 154t136.5 413v776q0 113 -30 159t-118 46h-77v43h534v-43h-61q-87 0 -124.5 -48t-37.5 -157v-780q0 -311 -174.5 -492.5t-476.5 -181.5q-303 0 -479.5 175.5 t-176.5 486.5v885q0 64 -29 88t-100 24h-73zM829 1745l218 479h184l-375 -479h-27z" />
<glyph unicode="&#xdb;" horiz-adv-x="1775" d="M23 1630v43h618v-43h-74q-71 0 -100 -24t-29 -88v-902q0 -241 134.5 -387.5t353.5 -146.5q247 0 383.5 154t136.5 413v776q0 113 -30 159t-118 46h-77v43h534v-43h-61q-87 0 -124.5 -48t-37.5 -157v-780q0 -311 -174.5 -492.5t-476.5 -181.5q-303 0 -479.5 175.5 t-176.5 486.5v885q0 64 -29 88t-100 24h-73zM594 1745l334 500h18l316 -500h-23l-303 301l-320 -301h-22z" />
<glyph unicode="&#xdc;" horiz-adv-x="1775" d="M23 1630v43h618v-43h-74q-71 0 -100 -24t-29 -88v-902q0 -241 134.5 -387.5t353.5 -146.5q247 0 383.5 154t136.5 413v776q0 113 -30 159t-118 46h-77v43h534v-43h-61q-87 0 -124.5 -48t-37.5 -157v-780q0 -311 -174.5 -492.5t-476.5 -181.5q-303 0 -479.5 175.5 t-176.5 486.5v885q0 64 -29 88t-100 24h-73zM508 1989q0 55 39 94t94 39t94 -39t39 -94q0 -56 -39 -95t-94 -39t-94 39t-39 95zM1065 1989q0 55 38.5 94t94.5 39t94.5 -39t38.5 -94q0 -56 -39 -95t-94 -39t-94 39t-39 95z" />
<glyph unicode="&#xdd;" horiz-adv-x="1525" d="M0 1630v43h592v-43h-53q-68 0 -101 -25t-6 -75l379 -676l387 625q94 151 -102 151h-58v43h488v-43h-53q-34 0 -57 -7t-46 -28.5t-40 -45.5t-48 -74l-438 -705v-594q0 -80 31 -106.5t116 -26.5h86v-43h-680v43h76q92 0 125 26.5t33 104.5v594l-420 741q-34 62 -69.5 91.5 t-92.5 29.5h-49zM684 1745l217 479h184l-374 -479h-27z" />
<glyph unicode="&#xde;" horiz-adv-x="1421" d="M104 0v43h74q71 0 100 24t29 89v1362q0 64 -29 88t-100 24h-74v43h619v-43h-74q-71 0 -100 -24t-29 -88v-150l197 4q111 2 207 -12t179.5 -48t142.5 -86t92.5 -130t33.5 -176q0 -234 -145 -369t-393 -135q-184 0 -314 65v-309q0 -74 36 -101.5t116 -27.5h94v-43h-662z M520 508q92 -21 197 -21q89 0 165 25.5t135.5 76t93.5 134t34 190.5q0 194 -109 297t-329 103q-52 0 -187 -19v-786z" />
<glyph unicode="&#xdf;" horiz-adv-x="1417" d="M82 0v43h80q35 0 58.5 18.5t23.5 51.5v796l-156 37v39h156v158q0 255 124 402t339 147q147 0 255.5 -67t108.5 -183q0 -32 -8.5 -61.5t-19 -51t-33 -44.5t-37 -35t-46 -31t-43.5 -25.5t-46 -24.5q-61 -32 -91 -60t-30 -71q0 -116 237 -268l84 -53q140 -89 202.5 -182.5 t62.5 -212.5q0 -87 -33.5 -156t-89 -110.5t-122 -63t-138.5 -21.5q-172 0 -270.5 58t-98.5 129q0 34 23 57t63 23q29 0 50.5 -16t33.5 -40.5t29 -52.5t36 -52.5t55 -40.5t85 -16q105 0 159 57.5t54 149.5q0 78 -42.5 154t-135.5 133l-117 72q-250 159 -250 356q0 37 10.5 69 t24.5 53.5t42 45.5t47.5 37.5t55.5 36.5q62 39 90.5 94t28.5 143q0 86 -54.5 153.5t-150.5 67.5q-41 0 -76.5 -13.5t-69 -46.5t-57.5 -84t-38.5 -131.5t-14.5 -182.5v-1184h-350z" />
<glyph unicode="&#xe0;" horiz-adv-x="1036" d="M63 207q0 82 46 143t128 96.5t183 52.5t221 17l2 301q0 88 -48 130t-128 42q-72 0 -120.5 -37t-41.5 -114q6 -59 -18 -89t-62 -30t-60 23.5t-22 66.5q0 66 54.5 118.5t129.5 78.5t148 26q178 0 267 -76.5t89 -240.5l-2 -529q0 -98 70 -98q67 0 98 66l17 -4 q-14 -88 -68 -130.5t-135 -42.5q-77 0 -123.5 46t-46.5 116q-54 -82 -136 -125t-165 -43q-131 0 -204 69.5t-73 166.5zM262 236q0 -73 45 -121.5t117 -48.5q129 0 219 102v326q-95 -3 -179.5 -31.5t-143 -88t-58.5 -138.5zM276 1618h185l217 -479h-27z" />
<glyph unicode="&#xe1;" horiz-adv-x="1036" d="M63 207q0 82 46 143t128 96.5t183 52.5t221 17l2 301q0 88 -48 130t-128 42q-72 0 -120.5 -37t-41.5 -114q6 -59 -18 -89t-62 -30t-60 23.5t-22 66.5q0 66 54.5 118.5t129.5 78.5t148 26q178 0 267 -76.5t89 -240.5l-2 -529q0 -98 70 -98q67 0 98 66l17 -4 q-14 -88 -68 -130.5t-135 -42.5q-77 0 -123.5 46t-46.5 116q-54 -82 -136 -125t-165 -43q-131 0 -204 69.5t-73 166.5zM262 236q0 -73 45 -121.5t117 -48.5q129 0 219 102v326q-95 -3 -179.5 -31.5t-143 -88t-58.5 -138.5zM422 1139l217 479h184l-374 -479h-27z" />
<glyph unicode="&#xe2;" horiz-adv-x="1036" d="M63 207q0 82 46 143t128 96.5t183 52.5t221 17l2 301q0 88 -48 130t-128 42q-72 0 -120.5 -37t-41.5 -114q6 -59 -18 -89t-62 -30t-60 23.5t-22 66.5q0 66 54.5 118.5t129.5 78.5t148 26q178 0 267 -76.5t89 -240.5l-2 -529q0 -98 70 -98q67 0 98 66l17 -4 q-14 -88 -68 -130.5t-135 -42.5q-77 0 -123.5 46t-46.5 116q-54 -82 -136 -125t-165 -43q-131 0 -204 69.5t-73 166.5zM145 1139l334 499h19l315 -499h-22l-304 301l-319 -301h-23zM262 236q0 -73 45 -121.5t117 -48.5q129 0 219 102v326q-95 -3 -179.5 -31.5t-143 -88 t-58.5 -138.5z" />
<glyph unicode="&#xe3;" horiz-adv-x="1036" d="M63 207q0 82 46 143t128 96.5t183 52.5t221 17l2 301q0 88 -48 130t-128 42q-72 0 -120.5 -37t-41.5 -114q6 -59 -18 -89t-62 -30t-60 23.5t-22 66.5q0 66 54.5 118.5t129.5 78.5t148 26q178 0 267 -76.5t89 -240.5l-2 -529q0 -98 70 -98q67 0 98 66l17 -4 q-14 -88 -68 -130.5t-135 -42.5q-77 0 -123.5 46t-46.5 116q-54 -82 -136 -125t-165 -43q-131 0 -204 69.5t-73 166.5zM152 1210l96 240h528l92 96l15 -8l-97 -240h-528l-92 -96zM262 236q0 -73 45 -121.5t117 -48.5q129 0 219 102v326q-95 -3 -179.5 -31.5t-143 -88 t-58.5 -138.5z" />
<glyph unicode="&#xe4;" horiz-adv-x="1036" d="M63 207q0 82 46 143t128 96.5t183 52.5t221 17l2 301q0 88 -48 130t-128 42q-72 0 -120.5 -37t-41.5 -114q6 -59 -18 -89t-62 -30t-60 23.5t-22 66.5q0 66 54.5 118.5t129.5 78.5t148 26q178 0 267 -76.5t89 -240.5l-2 -529q0 -98 70 -98q67 0 98 66l17 -4 q-14 -88 -68 -130.5t-135 -42.5q-77 0 -123.5 46t-46.5 116q-54 -82 -136 -125t-165 -43q-131 0 -204 69.5t-73 166.5zM147 1403q0 55 39 94t95 39q55 0 94 -39t39 -94t-39 -94t-94 -39q-56 0 -95 39t-39 94zM262 236q0 -73 45 -121.5t117 -48.5q129 0 219 102v326 q-95 -3 -179.5 -31.5t-143 -88t-58.5 -138.5zM582 1403q0 55 39 94t94 39t94 -39t39 -94t-39 -94t-94 -39t-94 39t-39 94z" />
<glyph unicode="&#xe5;" horiz-adv-x="1036" d="M63 207q0 82 46 143t128 96.5t183 52.5t221 17l2 301q0 88 -48 130t-128 42q-72 0 -120.5 -37t-41.5 -114q6 -59 -18 -89t-62 -30t-60 23.5t-22 66.5q0 66 54.5 118.5t129.5 78.5t148 26q178 0 267 -76.5t89 -240.5l-2 -529q0 -98 70 -98q67 0 98 66l17 -4 q-14 -88 -68 -130.5t-135 -42.5q-77 0 -123.5 46t-46.5 116q-54 -82 -136 -125t-165 -43q-131 0 -204 69.5t-73 166.5zM262 236q0 -73 45 -121.5t117 -48.5q129 0 219 102v326q-95 -3 -179.5 -31.5t-143 -88t-58.5 -138.5zM281 1399q0 84 60.5 142t147.5 58t148 -58t61 -142 t-61 -142.5t-148 -58.5t-147.5 58.5t-60.5 142.5zM360 1399q0 -56 36.5 -94.5t92.5 -38.5q60 0 96 38t36 95q0 58 -39 95.5t-93 37.5q-56 0 -92.5 -38.5t-36.5 -94.5z" />
<glyph unicode="&#xe6;" horiz-adv-x="1579" d="M66 207q0 105 76.5 176t198.5 102t282 31l2 301q0 172 -164 172q-71 0 -116 -37t-38 -114q6 -59 -18 -89t-62 -30t-60 23.5t-22 66.5q0 66 52.5 118.5t125.5 78.5t146 26q120 0 193.5 -41t105.5 -129q58 80 147 125t197 45q177 0 296.5 -116.5t119.5 -278.5h-713 q-6 -62 -6 -113q0 -247 97.5 -364t273.5 -117q82 0 169 36.5t150 110.5l19 -14q-145 -205 -400 -205q-318 0 -432 217q-127 -217 -352 -217q-130 0 -199 68.5t-69 167.5zM264 236q0 -74 41 -122t113 -48q62 0 129.5 33.5t122.5 119.5q-47 109 -47 275q-94 -3 -174 -31.5 t-132.5 -88t-52.5 -138.5zM823 688h516q-5 137 -64.5 219t-162.5 82q-227 0 -289 -301z" />
<glyph unicode="&#xe7;" horiz-adv-x="1038" d="M84 512q0 111 43.5 208.5t117 165.5t173.5 107t211 39q51 0 109.5 -11t113.5 -31t91 -54.5t36 -75.5q0 -29 -19.5 -48t-50.5 -19q-36 0 -58.5 19.5t-37 47.5t-33 56t-59.5 47.5t-103 19.5q-69 0 -125.5 -28.5t-93 -75t-61 -107.5t-35 -123t-10.5 -125q0 -96 22.5 -181 t67.5 -154t120 -109.5t171 -40.5q80 0 160 38t141 116l22 -19q-134 -203 -385 -203q-6 0 -16.5 1t-15.5 1l-95 -133q54 41 117 41q74 0 119 -36.5t45 -108.5t-62 -129.5t-144.5 -84t-158.5 -24.5l-6 13q63 6 116 30.5t84.5 57.5t49 67.5t17.5 63.5q0 48 -24.5 72t-78.5 24 q-42 0 -84 -29l-49 39l96 141q-203 26 -320.5 169t-117.5 366z" />
<glyph unicode="&#xe8;" horiz-adv-x="1064" d="M76 510q0 229 146.5 375.5t371.5 146.5q178 0 299 -116.5t121 -278.5h-723q-6 -61 -6 -113q0 -96 22.5 -180.5t67.5 -152.5t120 -108t171 -40q82 0 169 36.5t150 110.5l19 -14q-145 -205 -400 -205q-242 0 -385 146t-143 393zM299 688h526q-5 137 -64.5 219t-162.5 82 q-54 0 -99.5 -17t-77.5 -45.5t-57 -68t-40 -81t-25 -89.5zM332 1618h184l217 -479h-26z" />
<glyph unicode="&#xe9;" horiz-adv-x="1064" d="M76 510q0 229 146.5 375.5t371.5 146.5q178 0 299 -116.5t121 -278.5h-723q-6 -61 -6 -113q0 -96 22.5 -180.5t67.5 -152.5t120 -108t171 -40q82 0 169 36.5t150 110.5l19 -14q-145 -205 -400 -205q-242 0 -385 146t-143 393zM299 688h526q-5 137 -64.5 219t-162.5 82 q-54 0 -99.5 -17t-77.5 -45.5t-57 -68t-40 -81t-25 -89.5zM455 1139l217 479h184l-375 -479h-26z" />
<glyph unicode="&#xea;" horiz-adv-x="1064" d="M76 510q0 229 146.5 375.5t371.5 146.5q178 0 299 -116.5t121 -278.5h-723q-6 -61 -6 -113q0 -96 22.5 -180.5t67.5 -152.5t120 -108t171 -40q82 0 169 36.5t150 110.5l19 -14q-145 -205 -400 -205q-242 0 -385 146t-143 393zM240 1139l333 499h19l315 -499h-22l-303 301 l-320 -301h-22zM299 688h526q-5 137 -64.5 219t-162.5 82q-54 0 -99.5 -17t-77.5 -45.5t-57 -68t-40 -81t-25 -89.5z" />
<glyph unicode="&#xeb;" horiz-adv-x="1064" d="M76 510q0 229 146.5 375.5t371.5 146.5q178 0 299 -116.5t121 -278.5h-723q-6 -61 -6 -113q0 -96 22.5 -180.5t67.5 -152.5t120 -108t171 -40q82 0 169 36.5t150 110.5l19 -14q-145 -205 -400 -205q-242 0 -385 146t-143 393zM244 1403q0 55 39 94t94 39t94 -39t39 -94 t-39 -94t-94 -39t-94 39t-39 94zM299 688h526q-5 137 -64.5 219t-162.5 82q-54 0 -99.5 -17t-77.5 -45.5t-57 -68t-40 -81t-25 -89.5zM678 1403q0 55 39 94t94 39t94 -39t39 -94t-39 -94t-94 -39t-94 39t-39 94z" />
<glyph unicode="&#xec;" horiz-adv-x="622" d="M49 0v43h51q69 0 93 23.5t24 89.5v673q0 66 -24 89.5t-93 23.5h-51v43h357v-829q0 -66 23.5 -89.5t92.5 -23.5h51v-43h-524zM74 1618h184l217 -479h-26z" />
<glyph unicode="&#xed;" horiz-adv-x="622" d="M49 0v43h51q69 0 93 23.5t24 89.5v673q0 66 -24 89.5t-93 23.5h-51v43h357v-829q0 -66 23.5 -89.5t92.5 -23.5h51v-43h-524zM111 1139l217 479h184l-375 -479h-26z" />
<glyph unicode="&#xee;" horiz-adv-x="622" d="M-61 1139l333 499h19l315 -499h-22l-303 301l-320 -301h-22zM49 0v43h51q69 0 93 23.5t24 89.5v673q0 66 -24 89.5t-93 23.5h-51v43h357v-829q0 -66 23.5 -89.5t92.5 -23.5h51v-43h-524z" />
<glyph unicode="&#xef;" horiz-adv-x="622" d="M-59 1403q0 55 38.5 94t94.5 39t94.5 -39t38.5 -94t-38.5 -94t-94.5 -39t-94.5 39t-38.5 94zM49 0v43h51q69 0 93 23.5t24 89.5v673q0 66 -24 89.5t-93 23.5h-51v43h357v-829q0 -66 23.5 -89.5t92.5 -23.5h51v-43h-524zM375 1403q0 55 38.5 94t94.5 39t94.5 -39t38.5 -94 t-38.5 -94t-94.5 -39t-94.5 39t-38.5 94z" />
<glyph unicode="&#xf0;" horiz-adv-x="1157" d="M92 498q0 114 34 208t86 152.5t118 98.5t127.5 56.5t117.5 16.5q197 0 324 -145q-83 295 -272 501l-224 -243l-63 63l225 244q-153 143 -375 240l11 22q209 -63 415 -205l191 207l63 -61l-182 -199q213 -167 343 -387t130 -469q0 -181 -64.5 -322.5t-187 -223 t-284.5 -81.5q-153 0 -276 72t-190 192t-67 263zM305 510q0 -213 87.5 -346t238.5 -133q92 0 167.5 63.5t116.5 168t41 226.5q0 155 -34 306l-11 41q-55 59 -129.5 84.5t-148.5 25.5q-145 0 -236.5 -124.5t-91.5 -311.5z" />
<glyph unicode="&#xf1;" horiz-adv-x="1304" d="M49 0v43h51q69 0 93 23.5t24 89.5v673q0 66 -24 89.5t-93 23.5h-51v43h357v-215q31 115 128.5 188.5t219.5 73.5q141 0 235 -82q56 -49 84.5 -122t28.5 -195v-477q0 -66 24 -89.5t93 -23.5h51v-43h-525v43h52q69 0 92.5 23.5t23.5 89.5v495q0 144 -69 213q-70 70 -178 70 q-102 0 -179 -72.5t-81 -173.5v-532q0 -66 23.5 -89.5t92.5 -23.5h51v-43h-524zM328 1210l96 240h528l92 96l15 -8l-96 -240h-529l-92 -96z" />
<glyph unicode="&#xf2;" horiz-adv-x="1265" d="M96 502q0 148 73 270.5t196 191t268 68.5t268 -68.5t195.5 -191t72.5 -270.5t-72.5 -270.5t-195.5 -191.5t-268 -69t-268 68.5t-196 191t-73 271.5zM305 502q0 -53 6.5 -105.5t21 -109t40 -104.5t60.5 -86.5t86.5 -60.5t113.5 -22q74 0 133 32.5t94.5 83t59 117 t32.5 129.5t9 126q0 64 -9 127.5t-32.5 129.5t-59 116t-94.5 82t-133 32q-73 0 -131.5 -31.5t-94 -80.5t-59.5 -115t-33.5 -130t-9.5 -130zM416 1618h184l217 -479h-26z" />
<glyph unicode="&#xf3;" horiz-adv-x="1265" d="M96 502q0 148 73 270.5t196 191t268 68.5t268 -68.5t195.5 -191t72.5 -270.5t-72.5 -270.5t-195.5 -191.5t-268 -69t-268 68.5t-196 191t-73 271.5zM305 502q0 -53 6.5 -105.5t21 -109t40 -104.5t60.5 -86.5t86.5 -60.5t113.5 -22q74 0 133 32.5t94.5 83t59 117 t32.5 129.5t9 126q0 64 -9 127.5t-32.5 129.5t-59 116t-94.5 82t-133 32q-73 0 -131.5 -31.5t-94 -80.5t-59.5 -115t-33.5 -130t-9.5 -130zM524 1139l217 479h185l-375 -479h-27z" />
<glyph unicode="&#xf4;" horiz-adv-x="1265" d="M96 502q0 148 73 270.5t196 191t268 68.5t268 -68.5t195.5 -191t72.5 -270.5t-72.5 -270.5t-195.5 -191.5t-268 -69t-268 68.5t-196 191t-73 271.5zM299 1139l334 499h18l316 -499h-23l-303 301l-319 -301h-23zM305 502q0 -53 6.5 -105.5t21 -109t40 -104.5t60.5 -86.5 t86.5 -60.5t113.5 -22q74 0 133 32.5t94.5 83t59 117t32.5 129.5t9 126q0 64 -9 127.5t-32.5 129.5t-59 116t-94.5 82t-133 32q-73 0 -131.5 -31.5t-94 -80.5t-59.5 -115t-33.5 -130t-9.5 -130z" />
<glyph unicode="&#xf5;" horiz-adv-x="1265" d="M96 502q0 148 73 270.5t196 191t268 68.5t268 -68.5t195.5 -191t72.5 -270.5t-72.5 -270.5t-195.5 -191.5t-268 -69t-268 68.5t-196 191t-73 271.5zM281 1210l96 240h528l92 96l15 -8l-97 -240h-528l-92 -96zM305 502q0 -53 6.5 -105.5t21 -109t40 -104.5t60.5 -86.5 t86.5 -60.5t113.5 -22q74 0 133 32.5t94.5 83t59 117t32.5 129.5t9 126q0 64 -9 127.5t-32.5 129.5t-59 116t-94.5 82t-133 32q-73 0 -131.5 -31.5t-94 -80.5t-59.5 -115t-33.5 -130t-9.5 -130z" />
<glyph unicode="&#xf6;" horiz-adv-x="1265" d="M96 502q0 148 73 270.5t196 191t268 68.5t268 -68.5t195.5 -191t72.5 -270.5t-72.5 -270.5t-195.5 -191.5t-268 -69t-268 68.5t-196 191t-73 271.5zM291 1403q0 55 38.5 94t94.5 39t94.5 -39t38.5 -94t-38.5 -94t-94.5 -39t-94.5 39t-38.5 94zM305 502q0 -53 6.5 -105.5 t21 -109t40 -104.5t60.5 -86.5t86.5 -60.5t113.5 -22q74 0 133 32.5t94.5 83t59 117t32.5 129.5t9 126q0 64 -9 127.5t-32.5 129.5t-59 116t-94.5 82t-133 32q-73 0 -131.5 -31.5t-94 -80.5t-59.5 -115t-33.5 -130t-9.5 -130zM725 1403q0 55 38.5 94t94.5 39t94.5 -39 t38.5 -94t-38.5 -94t-94.5 -39t-94.5 39t-38.5 94z" />
<glyph unicode="&#xf7;" horiz-adv-x="1134" d="M102 477v88h930v-88h-930zM426 174q0 56 39 94.5t94 38.5t94 -38.5t39 -94.5t-39 -94.5t-94 -38.5t-94 38.5t-39 94.5zM426 874q0 56 39 95t94 39t94 -39t39 -95t-39 -94.5t-94 -38.5t-94 38.5t-39 94.5z" />
<glyph unicode="&#xf8;" horiz-adv-x="1265" d="M96 502q0 209 139 357t343 169v199h84v-197q104 -5 197 -47.5t161.5 -111.5t108.5 -165t40 -204q0 -143 -68.5 -262.5t-184 -189.5t-254.5 -77v-184h-84v186q-204 19 -343 167t-139 360zM305 502q0 -75 13.5 -148.5t42.5 -146.5t85 -124t132 -65v965 q-61 -11 -109.5 -46.5t-78.5 -84.5t-49.5 -110.5t-27.5 -120.5t-8 -119zM662 16q67 6 120.5 40.5t86 84.5t54 114.5t30 125t8.5 121.5t-8.5 121.5t-30 125t-54 114t-86 84t-120.5 40.5v-971z" />
<glyph unicode="&#xf9;" horiz-adv-x="1255" d="M10 942v43h357l-2 -663q0 -117 62 -186.5t175 -69.5q86 0 159 63.5t97 151.5v548q0 66 -24 89.5t-93 23.5h-51v43h357v-829q0 -66 23.5 -89.5t92.5 -23.5h51v-43h-356v223q-40 -115 -132 -185.5t-206 -70.5q-154 0 -249 96t-95 261l2 505q0 66 -24 89.5t-93 23.5h-51z M369 1618h184l217 -479h-27z" />
<glyph unicode="&#xfa;" horiz-adv-x="1255" d="M10 942v43h357l-2 -663q0 -117 62 -186.5t175 -69.5q86 0 159 63.5t97 151.5v548q0 66 -24 89.5t-93 23.5h-51v43h357v-829q0 -66 23.5 -89.5t92.5 -23.5h51v-43h-356v223q-40 -115 -132 -185.5t-206 -70.5q-154 0 -249 96t-95 261l2 505q0 66 -24 89.5t-93 23.5h-51z M467 1139l217 479h184l-374 -479h-27z" />
<glyph unicode="&#xfb;" horiz-adv-x="1255" d="M10 942v43h357l-2 -663q0 -117 62 -186.5t175 -69.5q86 0 159 63.5t97 151.5v548q0 66 -24 89.5t-93 23.5h-51v43h357v-829q0 -66 23.5 -89.5t92.5 -23.5h51v-43h-356v223q-40 -115 -132 -185.5t-206 -70.5q-154 0 -249 96t-95 261l2 505q0 66 -24 89.5t-93 23.5h-51z M272 1139l334 499h19l315 -499h-22l-304 301l-319 -301h-23z" />
<glyph unicode="&#xfc;" horiz-adv-x="1255" d="M10 942v43h357l-2 -663q0 -117 62 -186.5t175 -69.5q86 0 159 63.5t97 151.5v548q0 66 -24 89.5t-93 23.5h-51v43h357v-829q0 -66 23.5 -89.5t92.5 -23.5h51v-43h-356v223q-40 -115 -132 -185.5t-206 -70.5q-154 0 -249 96t-95 261l2 505q0 66 -24 89.5t-93 23.5h-51z M252 1403q0 55 39 94t94 39t94 -39t39 -94t-39 -94t-94 -39t-94 39t-39 94zM686 1403q0 55 39 94t94 39t94 -39t39 -94t-39 -94t-94 -39t-94 39t-39 94z" />
<glyph unicode="&#xfd;" horiz-adv-x="1093" d="M-68 -496q0 31 21.5 53.5t54.5 22.5q30 0 51.5 -19t32 -41.5t29 -41.5t43.5 -19q50 0 90 39t92 166l127 316l-356 856q-25 61 -58.5 83.5t-115.5 22.5v43h485v-43q-77 0 -102.5 -15.5t-10.5 -54.5l252 -684l234 564q34 78 17 134t-83 56h-37v43h396v-43q-81 0 -129 -42.5 t-78 -115.5l-481 -1146q-28 -67 -58.5 -114.5t-57 -73t-58.5 -39.5t-55 -17.5t-54 -3.5q-72 0 -131.5 31.5t-59.5 82.5zM428 1139l217 479h184l-374 -479h-27z" />
<glyph unicode="&#xfe;" horiz-adv-x="1366" d="M70 -555h51q69 0 93 23.5t24 89.5v1960q0 66 -24 89t-93 23h-51v43h356v-758q125 117 309 117q232 0 383.5 -150.5t151.5 -375.5q0 -148 -68.5 -270.5t-191.5 -193.5t-275 -71q-185 0 -309 107v-502q0 -78 33.5 -104.5t124.5 -26.5h51v-43h-565v43zM426 106 q100 -75 231 -75q123 0 216.5 65t140.5 172t47 238q0 202 -109 334.5t-286 132.5q-136 0 -240 -88v-779z" />
<glyph unicode="&#xff;" horiz-adv-x="1093" d="M-68 -496q0 31 21.5 53.5t54.5 22.5q30 0 51.5 -19t32 -41.5t29 -41.5t43.5 -19q50 0 90 39t92 166l127 316l-356 856q-25 61 -58.5 83.5t-115.5 22.5v43h485v-43q-77 0 -102.5 -15.5t-10.5 -54.5l252 -684l234 564q34 78 17 134t-83 56h-37v43h396v-43q-81 0 -129 -42.5 t-78 -115.5l-481 -1146q-28 -67 -58.5 -114.5t-57 -73t-58.5 -39.5t-55 -17.5t-54 -3.5q-72 0 -131.5 31.5t-59.5 82.5zM197 1403q0 55 38.5 94t94.5 39t94.5 -39t38.5 -94t-38.5 -94t-94.5 -39t-94.5 39t-38.5 94zM631 1403q0 55 38.5 94t94.5 39t94.5 -39t38.5 -94 t-38.5 -94t-94.5 -39t-94.5 39t-38.5 94z" />
<glyph unicode="&#x152;" horiz-adv-x="2299" d="M102 852q0 156 44 289t123.5 230t189 165.5t241.5 102.5t281 34h1194v-307h-21q-22 134 -100.5 182.5t-236.5 48.5h-476q217 -70 354.5 -248.5t157.5 -422.5h25q48 0 77 3t60 14.5t49.5 33.5t34.5 61t25 97h20v-490h-20q-10 58 -26 97t-34 61.5t-49.5 33.5t-60 14 t-76.5 3h-20q0 -289 -142.5 -494t-378.5 -284h490q154 0 235.5 60t104.5 204h20v-340h-1206q-185 0 -345.5 59.5t-279 167t-186.5 269.5t-68 356zM342 846q0 -157 31 -285.5t84 -217t126.5 -150.5t156 -94t175.5 -40v1555q-94 -8 -175.5 -37t-156 -88t-127 -144.5 t-83.5 -213t-31 -285.5zM1130 76q105 22 191 78t154 148t105.5 233t37.5 319h-488v-778zM1130 926h486q-8 156 -50.5 280t-109.5 204.5t-149 127t-177 59.5v-671z" />
<glyph unicode="&#x153;" horiz-adv-x="1912" d="M104 502q0 149 71 271t192 190.5t266 68.5q133 0 246 -59.5t178 -169.5q59 105 172.5 167t249.5 62q177 0 296 -116.5t119 -278.5h-729q-6 -61 -6 -113q0 -95 23.5 -180t69.5 -153t122 -108t172 -40q82 0 169.5 36.5t150.5 110.5l18 -14q-145 -205 -399 -205 q-145 0 -255.5 60t-170.5 172q-64 -111 -178.5 -171.5t-247.5 -60.5q-145 0 -266 68.5t-192 190.5t-71 272zM313 502q0 -65 8 -127.5t30.5 -129.5t57 -117t92.5 -82t132 -32t133 32.5t94.5 83t59 117t32.5 129.5t9 126q0 64 -9 127.5t-32.5 129.5t-59 116t-94.5 82t-133 32 q-73 0 -130.5 -31.5t-92 -80.5t-57.5 -115.5t-31.5 -130t-8.5 -129.5zM1174 688h532q-5 137 -64.5 219t-162.5 82q-67 0 -121 -25.5t-90 -69.5t-59 -95t-35 -111z" />
<glyph unicode="&#x178;" horiz-adv-x="1525" d="M0 1630v43h592v-43h-53q-68 0 -101 -25t-6 -75l379 -676l387 625q94 151 -102 151h-58v43h488v-43h-53q-34 0 -57 -7t-46 -28.5t-40 -45.5t-48 -74l-438 -705v-594q0 -80 31 -106.5t116 -26.5h86v-43h-680v43h76q92 0 125 26.5t33 104.5v594l-420 741q-34 62 -69.5 91.5 t-92.5 29.5h-49zM377 1989q0 55 38.5 94t94.5 39t94.5 -39t38.5 -94q0 -56 -39 -95t-94 -39t-94 39t-39 95zM934 1989q0 55 39 94t94 39t94 -39t39 -94q0 -56 -39 -95t-94 -39t-94 39t-39 95z" />
<glyph unicode="&#x2c6;" horiz-adv-x="790" d="M61 1139l334 499h19l315 -499h-22l-304 301l-319 -301h-23z" />
<glyph unicode="&#x2dc;" horiz-adv-x="854" d="M61 1210l97 240h528l92 96l15 -8l-97 -240h-528l-92 -96z" />
<glyph unicode="&#x2000;" horiz-adv-x="1122" />
<glyph unicode="&#x2001;" horiz-adv-x="2245" />
<glyph unicode="&#x2002;" horiz-adv-x="1122" />
<glyph unicode="&#x2003;" horiz-adv-x="2245" />
<glyph unicode="&#x2004;" horiz-adv-x="748" />
<glyph unicode="&#x2005;" horiz-adv-x="561" />
<glyph unicode="&#x2006;" horiz-adv-x="374" />
<glyph unicode="&#x2007;" horiz-adv-x="374" />
<glyph unicode="&#x2008;" horiz-adv-x="280" />
<glyph unicode="&#x2009;" horiz-adv-x="449" />
<glyph unicode="&#x200a;" horiz-adv-x="124" />
<glyph unicode="&#x2010;" horiz-adv-x="806" d="M102 479v86h603v-86h-603z" />
<glyph unicode="&#x2011;" horiz-adv-x="806" d="M102 479v86h603v-86h-603z" />
<glyph unicode="&#x2012;" horiz-adv-x="806" d="M102 479v86h603v-86h-603z" />
<glyph unicode="&#x2013;" horiz-adv-x="1052" d="M102 479v86h848v-86h-848z" />
<glyph unicode="&#x2014;" horiz-adv-x="1558" d="M102 479v86h1354v-86h-1354z" />
<glyph unicode="&#x2018;" horiz-adv-x="413" d="M102 1350q0 115 86 211t199 143l6 -14q-54 -32 -101.5 -100.5t-47.5 -127.5q53 -3 89 -41t36 -92q0 -57 -36 -95t-97 -38q-66 0 -100 44.5t-34 109.5z" />
<glyph unicode="&#x2019;" horiz-adv-x="413" d="M102 1210q54 32 102 100.5t48 127.5q-53 3 -89 41t-36 92q0 57 36 95t97 38q66 0 99.5 -44t33.5 -110q0 -115 -85.5 -211t-198.5 -143z" />
<glyph unicode="&#x201a;" horiz-adv-x="495" d="M102 -256q54 32 102 100t48 127q-53 3 -89 41t-36 92q0 57 36 95.5t97 38.5q64 0 98.5 -43.5t34.5 -110.5q0 -115 -85.5 -211t-198.5 -143z" />
<glyph unicode="&#x201c;" horiz-adv-x="782" d="M102 1350q0 115 86 211t199 143l6 -14q-54 -32 -101.5 -100.5t-47.5 -127.5q53 -3 89 -41t36 -92q0 -57 -36 -95t-97 -38q-66 0 -100 44.5t-34 109.5zM451 1350q0 115 85.5 211t198.5 143l6 -14q-54 -32 -101.5 -100.5t-47.5 -127.5q53 -3 89 -41t36 -92q0 -57 -36 -95 t-97 -38q-66 0 -99.5 44t-33.5 110z" />
<glyph unicode="&#x201d;" horiz-adv-x="782" d="M102 1210q54 32 102 100.5t48 127.5q-53 3 -89 41t-36 92q0 57 36 95t97 38q66 0 99.5 -44t33.5 -110q0 -115 -85.5 -211t-198.5 -143zM451 1210q54 32 101.5 100.5t47.5 127.5q-53 3 -89 41t-36 92q0 57 36 95t97 38q66 0 99.5 -44t33.5 -110q0 -115 -85.5 -211 t-198.5 -143z" />
<glyph unicode="&#x201e;" horiz-adv-x="782" d="M102 -256q54 32 102 100t48 127q-53 3 -89 41t-36 92q0 57 36 95.5t97 38.5q66 0 99.5 -44t33.5 -110q0 -115 -85.5 -211t-198.5 -143zM451 -256q54 32 101.5 100t47.5 127q-53 3 -89 41t-36 92q0 57 36 95.5t97 38.5q66 0 99.5 -44t33.5 -110q0 -115 -85.5 -211 t-198.5 -143z" />
<glyph unicode="&#x2022;" horiz-adv-x="872" d="M102 530q0 135 96.5 231.5t231.5 96.5q144 0 242 -96t98 -232q0 -145 -97.5 -242.5t-242.5 -97.5q-136 0 -232 98t-96 242z" />
<glyph unicode="&#x2026;" horiz-adv-x="1300" d="M100 104q0 56 39 95t94 39t94.5 -39t39.5 -95q0 -55 -39 -94t-95 -39q-55 0 -94 38.5t-39 94.5zM516 104q0 56 39 95t94 39t94 -39t39 -95t-39 -94.5t-94 -38.5t-94 38.5t-39 94.5zM932 104q0 56 39 95t94 39t94 -39t39 -95t-39 -94.5t-94 -38.5t-94 38.5t-39 94.5z" />
<glyph unicode="&#x202f;" horiz-adv-x="449" />
<glyph unicode="&#x2039;" horiz-adv-x="563" d="M33 494v16l434 422h25l-287 -430l287 -432h-23z" />
<glyph unicode="&#x203a;" horiz-adv-x="563" d="M33 70l286 432l-286 430h24l435 -422v-16l-437 -424h-22z" />
<glyph unicode="&#x205f;" horiz-adv-x="561" />
<glyph unicode="&#x20ac;" horiz-adv-x="1685" d="M-86 653v70h195q-7 65 -7 111q0 47 7 112h-195v70h205q57 319 291 504.5t571 185.5q306 0 588 -158v-303h-23q-46 106 -111 184t-140.5 122.5t-154 65.5t-163.5 21q-87 0 -168 -22.5t-156 -71.5t-135 -120.5t-103 -176t-61 -231.5h469v-70h-477q-4 -78 -4 -119 q0 -71 4 -104h477v-70h-469q21 -151 80.5 -270.5t144 -193.5t184.5 -112t210 -38q75 0 138 9.5t131 36.5t123.5 71.5t108 120t91.5 176.5h22v-297q-245 -185 -606 -185q-189 0 -343.5 54t-259 148.5t-170 215.5t-91.5 264h-203z" />
<glyph unicode="&#x2122;" horiz-adv-x="2191" d="M68 1454v219h817v-219h-21q-8 86 -45.5 127t-124.5 45q-51 2 -145 2v-778q0 -43 57 -49l60 -4v-33h-367v33l47 4q35 3 48.5 14.5t13.5 34.5v778q-87 0 -138 -2q-88 -4 -132 -46.5t-52 -125.5h-18zM971 764v33l49 4q76 7 76 63l41 717q1 24 -17.5 38.5t-46.5 16.5l-61 4 v33h293l258 -698l260 698h270v-33l-61 -4q-58 -7 -58 -55l23 -502q4 -136 16 -237q1 -22 14.5 -30.5t43.5 -10.5l59 -4v-35h-367v35l49 4q37 3 48.5 10.5t11.5 30.5q0 9 -3 87.5t-7 143.5l-19 481l-299 -788h-49l-299 790l-35 -692q-4 -60 45 -63l62 -4v-33h-297z" />
<glyph unicode="&#x25fc;" horiz-adv-x="983" d="M0 0v983h983v-983h-983z" />
</font>
</defs>
</svg>
