<?xml version="1.0" encoding="utf-8"?>
<!-- Generator: Adobe Illustrator 19.0.0, SVG Export Plug-In . SVG Version: 6.00 Build 0)  -->
<svg version="1.1" id="Layer_1" xmlns="http://www.w3.org/2000/svg" xmlns:xlink="http://www.w3.org/1999/xlink" x="0px" y="0px"
	 viewBox="-242 384.7 109.9 73.2" style="enable-background:new -242 384.7 109.9 73.2;" xml:space="preserve">
<style type="text/css">
	.st0{fill:none;}
	.st1{fill:#FFFFFF;}
</style>
<g>
	<rect x="-184.4" y="410.2" class="st0" width="7.6" height="11.2"/>
	<rect x="-205" y="429.1" class="st0" width="35.2" height="20.2"/>
	<rect x="-198" y="410.2" class="st0" width="7.6" height="11.2"/>
	<rect x="-211.6" y="410.2" class="st0" width="7.6" height="11.2"/>
	<rect x="-170.8" y="410.2" class="st0" width="7.6" height="11.2"/>
	<path class="st1" d="M-156.3,450.2v-48h-18.5v-16.1H-200v16.1h-18.1v47.9h-4.3v6h4.3h18.1h25.3h18.5h3.8v-5.9H-156.3z
		 M-191.8,390.3h2.7v3h2.9v-3h2.7v8.6h-2.7v-3.5h-2.9v3.5h-2.7V390.3z M-176.8,410.2v11.2h-7.6v-11.2H-176.8z M-198,410.2h7.6v11.2
		h-7.6V410.2z M-211.6,410.2h7.6v11.2h-7.6V410.2z M-169.8,449.3H-205v-20.2h35.2V449.3z M-163.2,421.4h-7.6v-11.2h7.6V421.4z"/>
</g>
</svg>
