<?xml version="1.0" encoding="utf-8"?>
<!-- Generator: Adobe Illustrator 19.0.0, SVG Export Plug-In . SVG Version: 6.00 Build 0)  -->
<svg version="1.1" id="Layer_1" xmlns="http://www.w3.org/2000/svg" xmlns:xlink="http://www.w3.org/1999/xlink" x="0px" y="0px"
	 viewBox="0 0 109.9 73.2" style="enable-background:new 0 0 109.9 73.2;" xml:space="preserve">
<style type="text/css">
	.st0{fill:#FFFFFF;}
</style>
<path id="XMLID_54_" class="st0" d="M42.3,51.2c-2.8,0-5.5-0.3-8.1-0.9L22.3,62.1V45.4C16,41.1,11.9,34.8,11.9,27.8
	c0-12.9,13.6-23.4,30.3-23.4s30.3,10.5,30.3,23.4S59,51.2,42.3,51.2z M71,12.2c3.8,4.5,6,9.8,6,15.6C77,41.3,64.9,52.6,48.9,55
	c4.5,2.1,9.8,3.3,15.4,3.3c2.8,0,5.5-0.3,8.1-0.9l11.8,11.8V52.6C90.7,48.3,94.7,42,94.7,35C94.7,23.8,84.6,14.5,71,12.2z"/>
</svg>
