<?xml version="1.0" encoding="utf-8"?>
<!-- Generator: Adobe Illustrator 19.0.0, SVG Export Plug-In . SVG Version: 6.00 Build 0)  -->
<svg version="1.1" id="Layer_1" xmlns="http://www.w3.org/2000/svg" xmlns:xlink="http://www.w3.org/1999/xlink" x="0px" y="0px"
	 viewBox="0 0 109.9 73.2" style="enable-background:new 0 0 109.9 73.2;" xml:space="preserve">
<style type="text/css">
	.st0{fill:#FFFFFF;}
</style>
<path id="XMLID_61_" class="st0" d="M26.9,47.3h6.5v21.1c0,1.8-1.5,3.2-3.2,3.2c-1.8,0-3.2-1.5-3.2-3.2V47.3z M35,68.5
	c0,1.8,1.5,3.2,3.2,3.2c1.8,0,3.2-1.5,3.2-3.2V47.3H35V68.5z M24.7,38.6c-0.6-0.4-1.1-1.1-1.1-1.9c0-1.2,0.9-2.1,2-2.2
	c0.9-3.7,1.9-7.8,2.7-11h-4.1c-1.2,0-2.2,1-2.2,2.2v2l-4.5,4.6c-0.5,0.6-0.8,1.4-0.6,2.1c0.2,0.8,0.7,1.4,1.5,1.6l3.7,1.3v2.7
	c0,1.1,0.7,1.9,1.7,2.1C24,41.3,24.3,40.1,24.7,38.6z M34.2,21.6c4,0,7.3-3.3,7.3-7.3s-3.3-7.3-7.3-7.3s-7.3,3.3-7.3,7.3
	C26.9,18.3,30.2,21.6,34.2,21.6z M42.2,38.9c-1-0.2-1.8-1.1-1.8-2.2c0-0.7,0.4-1.4,0.9-1.8c-0.7-2.9-1.6-6.8-2.9-11.9
	c-1.3-0.5-2.7-0.8-4.2-0.8v0l0,0c-1.5,0-2.9,0.3-4.2,0.8c-1.2,5.1-2.2,9-2.9,11.9c0.5,0.4,0.9,1,0.9,1.8c0,1.1-0.8,2-1.8,2.2
	c-0.4,1.8-0.7,3-0.9,3.8v3.1h17.9v-3.1C43,41.8,42.7,40.7,42.2,38.9z M50.9,32.4l-4-4v-2.6c0-1.2-1-2.2-2.2-2.2h-4.7
	c0.8,3.2,1.8,7.3,2.6,11c1.1,0.1,2,1,2,2.2c0,0.8-0.4,1.5-1.1,1.9c0.4,1.5,0.7,2.8,0.9,3.7h0.1c1.2,0,2.2-1,2.2-2.2v-2.9l3.1-1.1
	c0.7-0.3,1.3-0.9,1.5-1.6C51.7,33.8,51.4,33,50.9,32.4z"/>
<path id="XMLID_54_" class="st0" d="M79.3,36.7c0,1.1,0.8,2,1.9,2.2l3.9,16H61.2l3.9-16c1.1-0.2,1.9-1.1,1.9-2.2
	c0-0.7-0.4-1.4-0.9-1.8l2.9-11.9c1.3-0.5,2.7-0.8,4.2-0.8c1.5,0,3,0.3,4.2,0.8l2.9,11.9C79.7,35.3,79.3,36,79.3,36.7z M64.8,12.9
	c0.5-0.1,0.9-0.3,1.2-0.6c-0.2,0.6-0.3,1.2-0.3,1.9c0,4,3.3,7.3,7.3,7.3c4,0,7.3-3.3,7.3-7.3s-3.3-7.3-7.3-7.3c-1.6,0-3,0.5-4.2,1.3
	c0.8-1.3,1.6-2.4,2.9-2.5c1.3-0.2,2.6,0,2.6,0c0.5-1.4-1-5.1-5.5-3.9C64.7,3,65,5.9,65.5,7.9c0.5,1.8-0.2,3-1.8,3.3
	c-1.5,0.3-2.6-1.3-2.7-2.2C60.1,10.1,61.6,13.6,64.8,12.9z M61,40.1c0,1,0.7,1.9,1.7,2.1l0.9-3.7c-0.6-0.4-1-1.1-1-1.8
	c0-1.1,0.9-2.1,2-2.2l2.7-11h-4.1c-1.2,0-2.2,1-2.2,2.2v2l-4.5,4.6c-0.5,0.6-0.8,1.4-0.6,2.1c0.2,0.8,0.7,1.4,1.5,1.6l3.7,1.3
	C61,37.4,61,40.1,61,40.1z M65.8,56.5v11.9c0,1.8,1.5,3.2,3.2,3.2c1.8,0,3.2-1.5,3.2-3.2V56.5H65.8L65.8,56.5z M89.8,32.4l-4-4v-2.6
	c0-1.2-1-2.2-2.2-2.2H79l2.7,11c1.1,0.1,2,1,2,2.2c0,0.8-0.4,1.5-1,1.8l0.9,3.7h0.1c1.2,0,2.2-1,2.2-2.2v-2.9l3.1-1.1
	c0.7-0.3,1.3-0.9,1.5-1.6C90.6,33.8,90.3,33,89.8,32.4z M73.9,68.5L73.9,68.5c0,1.8,1.5,3.2,3.2,3.2c1.8,0,3.2-1.5,3.2-3.2V56.5
	h-6.5L73.9,68.5L73.9,68.5z"/>
</svg>
