<?xml version="1.0" encoding="utf-8"?>
<!-- Generator: Adobe Illustrator 19.0.0, SVG Export Plug-In . SVG Version: 6.00 Build 0)  -->
<svg version="1.1" id="Layer_1" xmlns="http://www.w3.org/2000/svg" xmlns:xlink="http://www.w3.org/1999/xlink" x="0px" y="0px"
	 viewBox="0 0 109.9 73.2" style="enable-background:new 0 0 109.9 73.2;" xml:space="preserve">
<style type="text/css">
	.st0{fill:none;}
	.st1{fill:#FFFFFF;}
</style>
<g id="XMLID_53_">
	<path id="XMLID_72_" class="st0" d="M88.1,39.4C88.1,39.4,88.1,39.4,88.1,39.4c-0.8,0.9-1.6,1.6-2.5,2c-0.6,0.3-1.3,0.4-1.9,0.4
		c-0.7,0-1.3-0.2-1.9-0.4c-0.9-0.4-1.8-1.1-2.5-2c0,0,0,0,0,0c0,1.1-0.7,1.7-1.2,2c-0.1,0-0.1,0.1-0.2,0.1c-0.1,0.1-0.2,0.1-0.3,0.1
		c0,0,0,0,0,0c0,0.3,0.1,0.6,0.3,0.8c0.8,1.2,3.1,3,5.7,3c2.7,0,4.9-1.8,5.7-3c0.2-0.3,0.3-0.5,0.3-0.8c0,0,0,0,0,0
		C89.3,41.5,88.1,40.9,88.1,39.4z"/>
	<path id="XMLID_71_" class="st0" d="M18.9,30.2c0,0,0,0.1,0,0.1c0.1,0.8,0.4,1.4,0.6,1.7c0.1,0.2,0.3,0.2,0.4,0.2l0,0
		c0,0,0.1,0,0.1-0.1c0,0,0.1,0,0.1-0.1c0.6,2.4,1.9,4.7,3.4,6.1c0.9,0.8,1.9,1.3,3,1.3l0,0c0.1,0,0.2,0,0.3,0c0.7-0.1,1.4-0.3,2-0.8
		c0.2-0.2,0.5-0.4,0.7-0.6c1.5-1.4,2.7-3.7,3.4-6.1l0,0c0.1,0.1,0.1,0.1,0.2,0.1c0.1,0,0.1,0,0.2,0c0.1,0,0.1-0.1,0.2-0.1
		c0.3-0.3,0.6-1,0.7-1.8c0.2-1.1,0-2-0.3-2.2c0,0-0.1,0-0.1,0c0,0,0,0,0,0c0,0,0,0,0,0c-0.1,0-0.2,0-0.3,0.1l0,0l0,0l0,0
		c0,0,0,0,0,0c0,0,0,0,0,0c0,0,0,0,0,0c0,0,0,0,0,0c-0.4-1.8-0.9-3-1.5-3.6c-0.1-0.1-0.2-0.1-0.3-0.2l0,0c0,0.3,0.2,0.7,0.3,1.1h0
		c-0.7-0.4-1.5-1-2.5-1.1c-0.2,0-0.5,0-0.8,0c-0.3,0.1-0.6,0.2-0.9,0.3c-2.2,0.5-4.3-0.4-4.3-0.4c-1.2-0.1-2,0.3-2.5,1
		c-0.9,1.1-1.1,2.7-1.1,3c0,0,0,0,0,0c0,0,0,0,0,0c-0.1-0.1-0.2-0.2-0.3-0.1c0,0-0.1,0-0.1,0.1c0,0,0,0,0,0
		c-0.1,0.1-0.2,0.2-0.2,0.4C19,29.2,18.9,29.7,18.9,30.2z"/>
	<path id="XMLID_70_" class="st0" d="M45.7,26.3c0,0.7-0.1,1.3-0.1,2c0,0.1,0,0.1,0,0.2c0.1,1,0.5,1.8,0.8,2.2
		c0.2,0.2,0.3,0.3,0.5,0.3l0,0c0.1,0,0.2-0.1,0.2-0.1c0,0,0,0,0,0c0.8,3,2.4,6,4.3,7.7c1.1,1,2.4,1.6,3.7,1.6c0,0,0,0,0,0
		c1.4,0,2.7-0.7,3.8-1.7c1.9-1.8,3.5-4.7,4.3-7.7c0,0,0,0,0,0c0.1,0.1,0.1,0.1,0.2,0.1c0.1,0,0.1,0,0.2,0c0.1,0,0.1-0.1,0.2-0.2
		c0.4-0.4,0.7-1.2,0.9-2.3c0.2-1.4,0-2.6-0.4-2.8c0,0-0.1,0-0.1,0c-0.1,0-0.1,0-0.2,0c-0.1,0-0.1,0.1-0.2,0.1l0,0v0c0,0,0,0,0,0
		c0,0,0,0,0,0c0,0,0,0,0,0v0c0,0,0,0,0,0c-0.5-2.3-1.2-3.8-1.9-4.6c-0.1-0.1-0.3-0.2-0.4-0.2v0c0,0.3,0.3,0.9,0.3,1.4h0
		c-0.9-0.5-1.8-1.3-3.1-1.4c-0.3,0-0.6,0-1,0c-3.2,1.3-6.6-0.2-6.6-0.2c-0.7-0.1-1.4,0-1.9,0.3c-2.3,1-2.7,4.3-2.7,4.7c0,0,0,0,0,0
		c0,0,0,0,0,0l0,0c-0.1-0.1-0.3-0.2-0.4-0.2c0,0-0.1,0-0.1,0.1c0,0,0,0,0,0C45.9,25.8,45.8,26,45.7,26.3z"/>
	<path id="XMLID_69_" class="st0" d="M90.7,29C90.7,28.9,90.7,28.9,90.7,29l-0.8,0.8l-9.3-5.7C77.5,23.8,77,28.6,77,29c0,0,0,0,0,0
		l0,0c-0.1-0.1-0.2-0.2-0.3-0.1c0,0-0.1,0-0.1,0.1c-0.3,0.3-0.4,1.1-0.3,2.1c0.1,0.8,0.4,1.4,0.6,1.7c0.1,0.2,0.3,0.2,0.4,0.2
		c0.1,0,0.1,0,0.2-0.1c0.6,2.3,1.8,4.5,3.3,5.9c0.9,0.8,1.9,1.3,2.9,1.3c1,0,2-0.5,2.9-1.3c1.5-1.4,2.7-3.6,3.3-5.9
		C89.9,32.9,90,33,90,33c0.1,0,0.2,0,0.3-0.1c0.3-0.3,0.6-0.9,0.7-1.7C91.2,30.1,91.1,29.1,90.7,29z"/>
	<path id="XMLID_75_" class="st1" d="M45.5,31.8c0.9,2.8,2.3,5.5,4,7.5c1,1.1,2.1,2,3.2,2.6c0.8,0.4,1.6,0.6,2.5,0.6
		c0.9,0,1.7-0.2,2.5-0.6c1.2-0.6,2.3-1.5,3.3-2.7c1.7-2,3.1-4.7,3.9-7.4c0.7-0.2,1.4-1.7,1.7-3.6c0.3-2,0-3.8-0.7-4.1
		c0-0.5,0-1,0-1.5c0-7.4-3.7-11.7-9.5-12.2c-5.1-0.4-8.9,2-10.6,5.9c-0.6,1.3-0.9,3-1,4.8C44.7,22,44.6,23,44.6,24h0c0,0,0,0,0,0
		c0,0,0,0,0,0c-0.7,0.2-1.1,2-0.8,4.2C44.1,30.1,44.8,31.7,45.5,31.8z M46.2,25.6c0.1,0,0.3,0,0.4,0.2l0,0c0,0,0,0,0,0c0,0,0,0,0,0
		c0-0.5,0.5-3.7,2.7-4.7c0.5-0.2,1.2-0.3,1.9-0.3c0,0,3.5,1.5,6.6,0.2c0.3,0,0.7,0,1,0c1.3,0.1,2.2,0.9,3.1,1.4h0
		c0-0.5-0.4-1-0.3-1.4v0c0.1,0.1,0.3,0.1,0.4,0.2c0.7,0.9,1.3,2.3,1.9,4.6c0,0,0,0,0,0v0c0,0,0,0,0,0c0,0,0,0,0,0c0,0,0,0,0,0v0l0,0
		c0.1-0.1,0.1-0.1,0.2-0.1c0.1,0,0.1,0,0.2,0c0,0,0.1,0,0.1,0c0.4,0.2,0.6,1.4,0.4,2.8c-0.2,1-0.5,1.9-0.9,2.3
		c-0.1,0.1-0.1,0.1-0.2,0.2c-0.1,0-0.1,0-0.2,0c-0.1,0-0.2-0.1-0.2-0.1c0,0,0,0,0,0c-0.8,2.9-2.3,5.9-4.3,7.7
		c-1.2,1.1-2.4,1.7-3.8,1.7c0,0,0,0,0,0c-1.3,0-2.6-0.6-3.7-1.6c-2-1.8-3.5-4.7-4.3-7.7c0,0,0,0,0,0c-0.1,0.1-0.1,0.1-0.2,0.1l0,0
		c-0.2,0-0.3-0.1-0.5-0.3c-0.3-0.4-0.7-1.2-0.8-2.2c0-0.1,0-0.1,0-0.2c0-0.7,0-1.3,0.1-2c0.1-0.3,0.2-0.4,0.3-0.6c0,0,0,0,0,0
		C46.1,25.7,46.1,25.6,46.2,25.6z"/>
	<path id="XMLID_74_" class="st1" d="M99.8,50.2c-1.9-7.5-5.3-7.8-6-8c-0.1,0-0.2,0-0.3-0.1c-2.2-2.4-0.7-12.6-0.7-12.6
		c0-15.5-8.9-14-8.9-14c-0.1,0-0.2,0-0.3,0c-0.1,0-0.2,0-0.3,0c0,0-8.9-1.5-8.9,14c0,0,1.5,10.2-0.7,12.6c-0.1,0-0.2,0-0.3,0.1
		c-0.3,0.1-1.1,0.2-2.1,0.9c1.8,1,4.3,3.5,5.9,10c0.3,1.4,0.2,2.9-0.3,4.1c0,0,0,0,0,0.1c2.2,0.3,4.6,0.4,6.7,0.4
		c6.4,0,14.4-1,15.9-4.4C100,52.3,100,51.2,99.8,50.2z M89.6,41.7c0,0.3-0.1,0.6-0.3,0.8c-0.8,1.2-3.1,3-5.7,3c-2.7,0-4.9-1.8-5.7-3
		c-0.2-0.3-0.3-0.5-0.3-0.8c0,0,0,0,0,0c0,0,0.1-0.1,0.3-0.1c0.1,0,0.1-0.1,0.2-0.1c0.5-0.3,1.2-0.9,1.2-2c0,0,0,0,0,0
		c0.8,0.9,1.6,1.6,2.5,2c0.6,0.3,1.3,0.4,1.9,0.4c0.7,0,1.3-0.2,1.9-0.4c0.9-0.4,1.8-1.1,2.5-2c0,0,0,0,0,0
		C88.1,40.9,89.3,41.5,89.6,41.7C89.6,41.6,89.6,41.7,89.6,41.7z M91,31.1c-0.1,0.8-0.4,1.5-0.7,1.7C90.3,33,90.2,33,90,33
		c-0.1,0-0.1,0-0.2-0.1c-0.6,2.3-1.8,4.6-3.3,5.9c-0.9,0.8-1.9,1.3-2.9,1.3c-1,0-2-0.5-2.9-1.3c-1.5-1.4-2.7-3.6-3.3-5.9
		c-0.1,0.1-0.1,0.1-0.2,0.1c-0.1,0-0.3,0-0.4-0.2c-0.3-0.3-0.5-0.9-0.6-1.7c-0.1-1,0-1.9,0.3-2.1c0,0,0.1-0.1,0.1-0.1
		c0.1,0,0.2,0,0.3,0.1l0,0c0,0,0,0,0,0c0-0.4,0.5-5.2,3.6-4.9l9.3,5.7l0.8-0.9c0,0,0.1,0,0.1,0C91.1,29.1,91.2,30.1,91,31.1z"/>
	<path id="XMLID_63_" class="st1" d="M33.6,53.1c1.7-6.7,4.2-9.1,6.1-10.1c-1.2-1-2.2-1.1-2.6-1.2c-1.5-0.4-3.3-0.2-4.2-0.6
		c-0.2,1.7-2.9,3-6.2,3s-6-1.3-6.2-3c-1,0.4-2.8,0.2-4.2,0.6C15.5,42,12,42.3,10.1,50c-0.3,1-0.2,2.2,0.3,3.1
		c1.6,3.5,9.7,4.5,16.4,4.5c2.3,0,4.9-0.1,7.3-0.5C33.4,56,33.3,54.5,33.6,53.1z"/>
	<path id="XMLID_73_" class="st1" d="M18.9,33c0.7,2.2,1.8,4.4,3.2,6c0.8,0.9,1.6,1.6,2.6,2c0.6,0.3,1.3,0.5,2,0.5
		c0.7,0,1.3-0.2,2-0.5c0.9-0.4,1.8-1.2,2.6-2.1c1.3-1.6,2.4-3.7,3.1-5.9c0.5-0.2,1.1-1.3,1.3-2.8c0.2-1.6,0-3-0.5-3.3
		c0-0.4,0-0.8,0-1.2c0-5.9-2.9-9.7-7.5-10.1c-4-0.3-7,1.6-8.4,4.7c-0.5,1-0.7,2.8-0.8,4.3c-0.2,0.7-0.2,1.5-0.2,2.3h0c0,0,0,0,0,0
		c0,0,0,0,0,0c-0.6,0.1-0.9,1.6-0.6,3.3C17.7,31.7,18.3,32.9,18.9,33z M19.2,28.2c0,0,0.1-0.1,0.1-0.1c0.1,0,0.2,0,0.3,0.1
		c0,0,0,0,0,0c0,0,0,0,0,0c0-0.3,0.2-1.9,1.1-3c0.5-0.6,1.4-1.1,2.5-1c0,0,2.1,0.9,4.3,0.4c0.3-0.1,0.6-0.2,0.9-0.3
		c0.3,0,0.5,0,0.8,0c1,0,1.7,0.7,2.5,1.1c0,0,0,0,0,0c0-0.4-0.3-0.8-0.3-1.1l0,0c0.1,0,0.2,0.1,0.3,0.2c0.5,0.7,1.1,1.8,1.5,3.6
		c0,0,0,0,0,0c0,0,0,0,0,0c0,0,0,0,0,0c0,0,0,0,0,0l0,0l0,0l0,0c0.1-0.1,0.2-0.1,0.3-0.1c0,0,0,0,0,0c0,0,0,0,0,0c0,0,0.1,0,0.1,0
		c0.3,0.2,0.5,1.1,0.3,2.2c-0.1,0.8-0.4,1.5-0.7,1.8c-0.1,0.1-0.1,0.1-0.2,0.1c-0.1,0-0.1,0-0.2,0c-0.1,0-0.1,0-0.2-0.1l0,0
		c-0.6,2.3-1.8,4.7-3.4,6.1c-0.2,0.2-0.5,0.4-0.7,0.6c-0.6,0.4-1.3,0.7-2,0.8c-0.1,0-0.2,0-0.3,0l0,0c-1.1,0-2.1-0.5-3-1.3
		c-1.6-1.4-2.8-3.8-3.4-6.1c0,0-0.1,0-0.1,0.1c0,0-0.1,0-0.1,0.1l0,0c-0.1,0-0.3-0.1-0.4-0.2c-0.3-0.3-0.5-1-0.6-1.7
		c0-0.1,0-0.1,0-0.1c0-0.5,0-1.1,0.1-1.6C19.1,28.5,19.1,28.3,19.2,28.2C19.2,28.2,19.2,28.2,19.2,28.2z"/>
	<path id="XMLID_60_" class="st1" d="M33.7,28.2C33.7,28.2,33.7,28.2,33.7,28.2"/>
	<line id="XMLID_59_" class="st1" x1="33.4" y1="28.3" x2="33.4" y2="28.3"/>
	<path id="XMLID_58_" class="st1" d="M57.4,51.1c1.8-2.3,4.4-5.7,5.4-7.7c-1.2,2.1-3.6,5.3-5.3,7.5l-1-4.4c0,0-0.1,0.1-0.1,0.1
		L57.4,51.1z"/>
	<path id="XMLID_57_" class="st1" d="M54.4,46.6c0,0-0.1-0.1-0.1-0.1l-0.9,4.4c-1.7-2.2-4.1-5.4-5.3-7.5c1,2,3.6,5.4,5.4,7.7
		L54.4,46.6z"/>
	<path id="XMLID_56_" class="st1" d="M57.3,44c0,0.2,0,0.4,0,0.6c0.1-0.4,0.1-0.7,0.1-1.1h-3.9c0,0.4,0,0.7,0.1,1.1
		c0-0.2,0-0.4,0-0.6H57.3z"/>
	<path id="XMLID_55_" class="st1" d="M40.3,43.6c-1.8,0.9-4.2,3.2-5.8,9.7c-0.3,1.3-0.2,2.7,0.3,3.8c0,0,0,0.1,0,0.1
		c2,4.4,12.3,5.7,20.7,5.7c8.4,0,18.7-1.3,20.7-5.7c0,0,0,0,0,0c0.5-1.2,0.6-2.6,0.3-3.9c-1.6-6.3-4-8.7-5.7-9.6
		c-1-0.5-1.7-0.6-2.1-0.7c-1.8-0.5-4-0.3-5.2-0.7c0,0-0.1,0-0.1,0c0,0.3-0.2,0.7-0.5,1.2c-1,2-3.6,5.4-5.4,7.7l-1-4.5
		c0,0,0.1-0.1,0.1-0.1c0.5-0.4,0.7-1.1,0.8-1.9c0-0.2,0-0.4,0-0.6h-3.7c0,0.2,0,0.4,0,0.6c0.1,0.7,0.3,1.4,0.8,1.9
		c0,0,0.1,0.1,0.1,0.1l-1,4.5c-1.8-2.3-4.4-5.7-5.4-7.7c-0.3-0.5-0.4-0.9-0.5-1.2c0,0-0.1,0-0.1,0c-1.2,0.4-3.4,0.2-5.2,0.7
		C41.9,43,41.2,43.1,40.3,43.6z"/>
	<path id="XMLID_54_" class="st1" d="M36.1,24.4c-0.2-3.5-1.8-6.6-4.3-8.5v-0.2c0-0.8-0.6-1.5-1.3-1.5c-0.3,0-0.7,0.2-0.9,0.4
		c-0.7-0.3-1.5-0.5-2.3-0.6v-1.1c0-0.5-0.4-0.9-0.8-0.9h-0.3c-0.4,0-0.8,0.4-0.8,0.9V14c-0.9,0.1-1.8,0.4-2.6,0.7
		c-0.2-0.3-0.6-0.5-1-0.5c-0.7,0-1.3,0.7-1.3,1.5v0.5c-2.2,1.9-3.7,4.8-3.9,8.1c-0.4,0.1-0.6,0.5-0.6,1c0,0.6,0.4,1,0.9,1h18.9
		c0.5,0,0.9-0.5,0.9-1C36.7,24.9,36.5,24.5,36.1,24.4z"/>
</g>
</svg>
